<svg xmlns="http://www.w3.org/2000/svg" viewBox="0 0 138.61 138.61"><defs><style>.cls-1{fill:#0098fe;}.cls-2{fill:#f3f3f3;}</style></defs><title>icon_3Asset 29</title><g id="Layer_2" data-name="Layer 2"><g id="Layer_1-2" data-name="Layer 1"><circle class="cls-1" cx="69.3" cy="69.3" r="69.3"/><path class="cls-2" d="M67.23,71.64a8.47,8.47,0,0,1-2-.25L36.1,64.11V86.17a2.09,2.09,0,0,0,.6,1.46C42.89,93.82,56.53,96,67.23,96s24.34-2.2,30.53-8.39a2,2,0,0,0,.6-1.46V64.77L69.07,71.43A8.24,8.24,0,0,1,67.23,71.64Z"/><path class="cls-2" d="M113.45,48.85,67.79,42.62a5.09,5.09,0,0,0-.56,0,4.32,4.32,0,0,0-.62.05L25.1,48.86A4.15,4.15,0,0,0,24.71,57L66.22,67.37a4.29,4.29,0,0,0,1,.12,4.12,4.12,0,0,0,.92-.1l36.07-8.2h2.44v24.9a2.08,2.08,0,1,0,4.15,0V57.69l3-.68a4.15,4.15,0,0,0-.37-8.16Z"/></g></g></svg>