<svg xmlns="http://www.w3.org/2000/svg" viewBox="0 0 75.72 75.72"><defs><style>.cls-1{fill:#1a9afb;}</style></defs><title>ICON 2Asset 23</title><g id="Layer_2" data-name="Layer 2"><g id="Layer_2-2" data-name="Layer 2"><path class="cls-1" d="M61.53,14.2A14.2,14.2,0,0,0,47.33,0H13.87A13.87,13.87,0,0,0,0,13.87H0V47.33a14.2,14.2,0,0,0,14.2,14.2A14.19,14.19,0,0,0,28.4,75.72H61.85A13.87,13.87,0,0,0,75.72,61.85h0V28.4A14.19,14.19,0,0,0,61.53,14.2ZM14.82,27.37V57.62a9.88,9.88,0,0,1-9.88-9.88v-35A9.47,9.47,0,0,1,14.4,3.29h35a9.87,9.87,0,0,1,9.87,9.88H29A14.19,14.19,0,0,0,14.82,27.37ZM43.16,56H35.65L56,35.65v7.51ZM55.22,51.2a9.51,9.51,0,0,1-3.66,3.65ZM29,56H21.45L56,21.45V29Zm2-37.86h7.51L18.11,38.43V30.92Zm-11.1,5a9.51,9.51,0,0,1,3.65-3.66Zm25.3-5h7.5L18.11,52.62v-7.5ZM70.79,61.65a9.14,9.14,0,0,1-9.14,9.14H26.34a9.9,9.9,0,0,1-9.88-9.88H47A13.87,13.87,0,0,0,60.91,47V16.46a9.9,9.9,0,0,1,9.88,9.88Z"/></g></g></svg>