<svg xmlns="http://www.w3.org/2000/svg" viewBox="0 0 595.37 532.5"><defs><style>.cls-1{fill:#ffcc80;}.cls-2{fill:#e0dfe6;}.cls-3{fill:#525d7d;}</style></defs><title>CASTLEAsset 4</title><g id="Layer_2" data-name="Layer 2"><g id="Layer_1-2" data-name="Layer 1"><path class="cls-1" d="M196.71,383c-6.23-20.06-12.66-40.72-22-59.6a3.83,3.83,0,0,0-.74-1c5.66-4.86,8.82-12.62,9.07-19.91.22-6.43-10-6.46-10,0a19.7,19.7,0,0,1-4.34,12.34,4.83,4.83,0,0,0-6.5-1.55c-3.47,1.93-8.82.54-10.36-3.36-2.09-5.31-10.62-3.24-8.75,2.41a17.19,17.19,0,0,0,21.1,11,4.39,4.39,0,0,0,3.08,2.26,4,4,0,0,0,.1,1c5,20.09,12.1,39.78,17.9,59.67C187.41,393.51,199,390.34,196.71,383Z"/><path class="cls-1" d="M520.7,269.37c-1.93-4.29-6.19-4.29-9.21-2.18a5.13,5.13,0,0,0-4,3.57,19.27,19.27,0,0,1-6.63,9.58,3.87,3.87,0,0,0-.88,5c-7.59,2.5-18.54,4-27.68,4.95a5.28,5.28,0,0,0,.18-5.93l-3-4.2a25.6,25.6,0,0,0-3.59-4.55c-3.59-3.15-9.57-.17-8.24,4.8.92,3.42,3.19,6.66,4.87,9.77a4.69,4.69,0,0,0,.66.94c-3.35.27-5.9.46-7.06.6l-20.37,2.45a5.89,5.89,0,0,0-.17-5.23c-1.42-2.69-2.75-5.36-4.41-7.91a4.66,4.66,0,0,0-5.8-1.9c-1.95.85-3.54,3.29-2.7,5.48a46.25,46.25,0,0,1,2.57,8.68,4.42,4.42,0,0,0,.95,2q-16,1.92-32,3.85a5.58,5.58,0,0,0,1.44-5.47,23,23,0,0,0-1.78-4,5.71,5.71,0,0,0-5-2.84,5.53,5.53,0,0,0-4.13,1.86,12.23,12.23,0,0,0-1.41-.57c-3.51-1.34-6.89,2.65-5.94,5.94,1.17,4.07,5.06,5.78,8.9,5.5a4.7,4.7,0,0,0,.44.34c-15.38,1.22-33.34,1.58-45.07,11-14.54,11.65-27.94,25.33-41.31,38.3-3.92,3.81,1.86,9.33,5.92,5.92,8.57-7.2,16.95-14.61,25.39-21.95,9.29-8.09,16.91-15.66,29.63-17.38,23.43-3.18,47.11-5,70.61-7.69,22.05-2.52,44.34-4.36,66.27-7.77C513.55,297.87,528.25,286.06,520.7,269.37Z"/><path class="cls-1" d="M202.05,99.69c-6.3,6.15-13.73,12.31-18.69,19.62-2.69,4,2.55,8.79,6.44,6.44,7.54-4.56,14.11-11.78,20.56-17.74C215.92,102.87,207.48,94.4,202.05,99.69Z"/><path class="cls-2" d="M216.82,41.12c.16-.68.31-1.37.46-2.06,1.65-7.89-10.13-11.28-12.16-3.35-2.31,9-4.56,14.85-13.93,18.22A105.71,105.71,0,0,1,164,59.48c-15.35,1.28-39.06,5.2-46.39-11.9-1.8-4.19-7.51-1.54-7.8,2.11a17.73,17.73,0,0,0,2.22,10.71,4.68,4.68,0,0,0-.16,4.38c8.46,19.23,39.23,18.76,56.54,16.37,19.18-2.65,47.79-10.94,54-31.94C223.89,44.51,220.52,41.46,216.82,41.12Z"/><path class="cls-2" d="M517.12,45.73C501.14,54,484.35,58,466.49,59.51A3.52,3.52,0,0,0,463.65,65,73.33,73.33,0,0,1,456,63.33a3.33,3.33,0,0,0-3.21,5.52c9.14,9.08,23,10.08,35.18,9,12.66-1.17,25.6-2.85,35.74-11.12,3.08-2.51,2.55-6.49.44-9.24C530.91,52.92,525.41,41.43,517.12,45.73Z"/><path class="cls-2" d="M339,69.9c-2.32,2.38-4.89,7.28-8.61,5-3.14-1.95-6.85,1.26-6,4.63,1.2,4.92,6.36,7.18,11.09,7,5.78-.27,10.29-4.48,13.53-8.86C353.37,71.73,344,64.82,339,69.9Z"/><path class="cls-2" d="M481.57,92.06a6.15,6.15,0,0,0-9,1.73c-.38.66-.25.44-.61.72a2.78,2.78,0,0,1-1.79.75,6.32,6.32,0,0,1-3.34-.75c-3.51-2-7.18,2-5.38,5.39,4,7.61,15.57,7.61,20.78,1.34C484.53,98.43,484.68,94.46,481.57,92.06Z"/><path class="cls-2" d="M516,110.75c-1.77,1.45-2.76,3.4-3.86,5.37a44.85,44.85,0,0,0-2.89,5l-.63-.71a15.76,15.76,0,0,0-3.4-3.61c-2.85-2.12-5.36,2.2-3.5,4.53.95,1.2.88,2.68,1.16,4.09a11.16,11.16,0,0,0,1.84,4.29,8.24,8.24,0,0,0,8.81,3.23c3.05-.83,5-3.42,6.89-5.78,2.4-3.07,5.38-6.27,6.42-10.08C528.65,110.39,520.76,106.81,516,110.75Z"/><path class="cls-2" d="M565.16,73a6.61,6.61,0,0,0-8.93,4.29,5.09,5.09,0,0,1-2.45,3.37c-1.91,1.34-4.07.8-6.12,2a4.14,4.14,0,0,0-1.47,5.61c2.52,3.79,8.29,3.81,12.29,2.67a15.74,15.74,0,0,0,9.84-8.56C569.9,78.75,569.12,74.65,565.16,73Z"/><path class="cls-2" d="M557.68,218.59c-7.89-1.46-15.77,2.47-21.41,7.8-1.8,1.71.49,4.13,2.49,3.22a18.5,18.5,0,0,1,8.38-1.54c2.58.08,4.94,1.19,7.45,1.74C561.94,231.42,565,219.94,557.68,218.59Z"/><path class="cls-2" d="M591.07,220l1.06-.8a4.57,4.57,0,0,0,2.18-3.8,4.66,4.66,0,0,0-1.29-3.11,4.56,4.56,0,0,0-3.11-1.28,4.61,4.61,0,0,0-3.79,2.17c-1.2,1.58-2.39,3.16-3.59,4.73a3.21,3.21,0,0,0-.34,2.74,15.21,15.21,0,0,0-4,1.57,13,13,0,0,0-4.48,5.25c-.83,1.67-1.2,4.57-1.85,7.25-.08-.06-.14-.14-.21-.2a5.07,5.07,0,0,0-7.45,1.42,6.05,6.05,0,0,1-.32.55l-.29.3c.56-.34-.38.25-.78.49.07-.09-1.27.37-.69.28a2.73,2.73,0,0,1-1.29-.05c-3.94-.89-6.32,4.4-2.77,6.58a11.05,11.05,0,0,0,8.71,1.17,2.2,2.2,0,0,0,2.36,1c5.53-.67,8.37-4.62,10.54-9.4.84-1.86,1.69-4.89,3.66-5.86,1.17-.57,2.84-.36,4.09-.72a9.54,9.54,0,0,0,4.15-2.51C594.12,225.34,593.25,221.84,591.07,220Z"/><path class="cls-2" d="M592.7,188.36a5.44,5.44,0,0,0-4-.57c.1-.09.32-.25.43-.34.56-.39,1.12-.76,1.71-1.1a4.64,4.64,0,1,0-5.63-7.3,29.61,29.61,0,0,0-5.46,8,3.57,3.57,0,0,0,.91,4.53,3.83,3.83,0,0,0,3.45.53,17.44,17.44,0,0,1-2,2.82c-1.38,1.49-3.11,2.42-4.67,3.71-2.62,2.19-.18,5.69,2.49,6s5.88-1,8.27-2.31a16.18,16.18,0,0,0,6.51-6.43A5.65,5.65,0,0,0,592.7,188.36Z"/><path class="cls-2" d="M579.23,165.8a22.25,22.25,0,0,1-4-8.24c-1.12-3.7-7.42-4.33-8.16,0-.94,5.56.19,10.58,2.55,15.64,1.57,3.35,6.34,3.75,9,1.72C581.64,172.58,581.61,168.58,579.23,165.8Z"/><path class="cls-2" d="M494.3,262.49a8.77,8.77,0,0,0,.08-3.09,21.57,21.57,0,0,0-.62-3.47,6,6,0,0,0-2.22-3.58c-4.17-11.75-5.53-24.17-7.19-36.54-1.69-12.66-2.53-27.21-9.48-38.29a2.68,2.68,0,0,0-1.08-1c2.39-2.82,1.19-8.69-3.74-8.73-13.76-.12-27.86-.83-41.58.33-3.33.28-4.71,5.72-.86,6.33,11.33,1.81,23,2.41,34.51,3.07a337.12,337.12,0,0,0,1.63,41.91c1.22,13.4,1.77,28.74,5.84,41.76-2.07.54-4,1.16-5.7,1.52-5.38,1.17-15.52,1.66-19.31,6.24-3.37,4.07-3.84,13.41-5.19,18.51-.65,2.49,2.91,3.38,3.8,1.05,1.17-3.11,2.39-10,4.69-12.37.06-.56.13-1.11.2-1.67a42.84,42.84,0,0,0,6.89-.13c3.39-.22,11.6-2.12,16.47-2.71-.44,2.26-.66,4.41.8,6.83a6.24,6.24,0,0,0,5.38,3.08c5.91-.2,12.62-3.39,18.07-5.49C503,273.26,500.86,262.29,494.3,262.49ZM470,178a2.86,2.86,0,0,0-.16.86c-.09,4,0,8.15.26,12.28q-.6-6.61-1.24-13.21Z"/><path class="cls-2" d="M409.49,228.69c-10.8-24.85-18.6-51.22-27.65-76.78a3,3,0,0,0-5.67.21,5.28,5.28,0,0,0-5.09-1.26c-8.11,1.8-16.31,1.36-24.41,2.73-2.35.39-2.76,4.1-.67,5.12,7.32,3.59,16.52,3.73,24.64,3.14,4.36,25.52,8.89,51.3,16.19,76.12,2,6.82,11.71,4.9,12.08-1.13C403.62,242.21,412.6,235.85,409.49,228.69Z"/><path class="cls-2" d="M345.9,240.87q-8.46-29.44-16.22-59.09c-4.86-18.63-8.34-38.58-16.18-56.22-1.27-2.84-5.6-1.26-5.62,1.53-.08,19.35,5.45,39.26,9.55,58.06q5.83,26.78,12.52,53.33c-3.33-6-5.15-15.06-6.37-19.41-2.54-9.1-4.31-18.39-6.16-27.65-1.76-8.77-3.24-17.62-5.35-26.31-1.86-7.67-3.65-16.7-8.68-23-1-1.18-2.5,0-2.65,1.1-1.41,10.66,2.18,23.33,3.49,34,1.35,11,2.47,22,4.44,32.85,2.71,15.06,6.26,45.86,25.71,47.65,4.74.43,7.15-4.15,6.54-8.11C344.4,248.59,347.19,245.35,345.9,240.87Z"/><path class="cls-2" d="M233.06,240c-1-1.46-1.54-4.49-2.14-5.91-.92-2.21-1.9-4.38-3-6.52a104.1,104.1,0,0,0-8-13.28c-3.32-4.73-10-.72-7.66,4.47a92.49,92.49,0,0,1,5.79,17.42c1.22,5.42,1.31,10.4,4.82,14.89,1.69,2.15,4.85,2.37,7.28,1.92l1-.19C238.3,251.47,237.56,243.47,233.06,240Z"/><path class="cls-2" d="M282.06,152.23a5.07,5.07,0,0,0-5,5,26.08,26.08,0,0,1-1.05,9c-1.3,4.38,5.37,7.37,7.49,3.16a36.56,36.56,0,0,0,3.6-12.12C287.43,154.55,284.53,152.23,282.06,152.23Z"/><path class="cls-2" d="M367.05,198.5c.3-2.13-.52-4.27-2.78-4.89-1.94-.54-4.49.65-4.89,2.77a72.82,72.82,0,0,0-.85,9.67,2.79,2.79,0,0,0,1,2.38,3.68,3.68,0,0,0-2.1,4.34,3.78,3.78,0,0,0,4.58,2.6l2.18-.59a3.89,3.89,0,0,0,2.69-4.74,4.43,4.43,0,0,0-2.18-2.49,3,3,0,0,0,.25-.63A66.45,66.45,0,0,0,367.05,198.5Z"/><path class="cls-2" d="M445.55,194.55a4.85,4.85,0,0,0-3.77,1,5.25,5.25,0,0,0-2,4l-.33,3.59c-.22,2.33,2,4.35,4.1,4.64a4.74,4.74,0,0,0,5.19-3.39c.35-1.16.71-2.32,1.07-3.49A5.1,5.1,0,0,0,445.55,194.55Z"/><path class="cls-2" d="M299.25,307.16c-1.58-2.45-5.26-3.93-7.9-2.08-.12.08-.24.14-.35.22-.11-2.23-.21-4.46-.19-6.69a4.48,4.48,0,0,0-5.07-4.4c-2.87.39-4.14,2.93-3.72,5.59.45,2.93.64,5.91.94,8.86a5,5,0,0,0,.27,1.17,5.55,5.55,0,0,0-.59,3.18,5.25,5.25,0,0,0,5.18,4.57,20.07,20.07,0,0,0,9.36-2.52A5.83,5.83,0,0,0,299.25,307.16Z"/><path class="cls-2" d="M313,274.29a4.27,4.27,0,0,0-3.65,6.36c1.07,2,.9,4.29.71,6.48-.23,2.84,4.2,2.83,4.44,0a11.68,11.68,0,0,1,2.15-6.48C318.61,278,315.88,274.29,313,274.29Z"/><path class="cls-2" d="M258.85,308.56a4.74,4.74,0,0,0-5.26,2.07,4.81,4.81,0,0,0-.46,3.71c.74,2.72,4.23,4.37,6.57,2.71a3.91,3.91,0,0,0,1.18-.8C263.21,313.92,262.31,309.27,258.85,308.56Z"/><path class="cls-2" d="M268,324c-1.23-2.9-4.32-3.6-7-2.36s-5.4,2.45-8.13,3.61c-1.76.75-2.29,3.29-1.59,4.86a3.94,3.94,0,0,0,4.59,2.26c3-.62,5.95-1.17,8.94-1.71S269,326.5,268,324Z"/><path class="cls-2" d="M321.37,290.92a4,4,0,0,0-5.38-1.41l-2.76,1.62a3.78,3.78,0,0,0-1.34,5.1c1.21,1.87,3.17,2.15,5.1,1.34l3-1.27a3.9,3.9,0,0,0,1.81-2.35A4,4,0,0,0,321.37,290.92Z"/><path class="cls-2" d="M298.35,126.17c-3.22,3.31-11,2.08-15.22,2.32-5.14.29-10.27.74-15.41,1.17a3.18,3.18,0,0,0,0,6.36c7.71.67,15.4,1.23,23.12,1.64,5.65.29,10.87.37,15.08-3.91C310.76,128.83,303.16,121.22,298.35,126.17Z"/><path class="cls-2" d="M303.48,96.94c-4.46-8-7.54-17.07-13-24.43-1.42-1.91-5.49-1.66-5.15,1.39,1.06,9.44,5,18.43,7.29,27.61C294.63,109.72,307.82,104.7,303.48,96.94Z"/><path class="cls-2" d="M374.63,129.83c-1.32-4.52-3.27-8.84-4.87-13.27s-2.7-9-4.44-13.4c-1.32-3.32-7.36-3.36-6.91.94.53,5,1.74,9.8,2.43,14.73.65,4.76,1,9.56,1.93,14.27C364.33,140.8,376.88,137.51,374.63,129.83Z"/><path class="cls-2" d="M463.22,138.88c-4.28-4.95-9.13-9.34-13.16-14.54-3.47-4.48-6.79-9.06-10.27-13.53-1.94-2.5-5.36.68-4.14,3.19,2.7,5.58,5.85,10.85,8.94,16.21s5.63,11,9,16.13C458.36,153.71,469.13,145.7,463.22,138.88Z"/><path class="cls-2" d="M360.39,253.12c-5,3.21-7,6.91-9.11,12.23-1.65,4.19,3,.91-2.38,3.4-3.78,1.75-7.57,3.45-11.35,5.19-5.21,2.41-3.73,10.95,1.59,12.17,4.14.94-5.68,9.16-6.45,9.78a88.14,88.14,0,0,1-8.62,6c-1.94,1.22-.68,4.88,1.64,3.91,6.9-2.91,15.41-6.25,20.33-12.14a11.39,11.39,0,0,0,2.78-9.3c4.58-1.26,9.38-2.65,12.89-5.18,5-3.57,5-11.24,8.47-16.24C374.33,257,366.22,249.38,360.39,253.12Z"/><path class="cls-2" d="M242,268.22a3,3,0,0,0-2.13-2.71c.07-6.39-9.7-7.4-11.41-1.27-2.11,7.53-2.87,15.5-4.12,23.22-1.19,7.38-1.7,16.48-9.94,19.54-4.34,1.61-8.25.93-11,5.49-1.86,3.07-1.47,5.79-.91,8.62a9.59,9.59,0,0,0,.29,1.94c-4.32.58-10-.53-13.7-.4a2,2,0,0,0-1,3.75c5.82,3.69,14.58,6.68,21.48,5a4.87,4.87,0,0,0,2.49-1.58,6.89,6.89,0,0,0,2.27-1c5.9-3.93,11.89-7.73,17.84-11.57,4.21-2.71,8.26-4.84,9.35-10s-.6-11.19-.54-16.5C241,283.35,242.67,275.66,242,268.22Z"/><path class="cls-2" d="M247.92,252.43a41.39,41.39,0,0,1-1.64-6.77,4.26,4.26,0,0,0-3.66-4.15,4.2,4.2,0,0,0-4.64,3,22.88,22.88,0,0,0-.31,10.72,5.32,5.32,0,1,0,10.25-2.82Z"/><path class="cls-2" d="M197.71,245.34c-1.28-3-4.49-3.72-7.31-2.46-3.68,1.65-8.15,4.42-9.73,8.3-.75,1.83,1.17,4.28,3.11,4.08s3.49-1.1,5.28-1.66a46.23,46.23,0,0,1,5.31-1.31C197.44,251.74,198.8,247.93,197.71,245.34Z"/><path class="cls-2" d="M205.62,210.91c-9.48,1.08-18.76,2.34-28.32,2.42-4,0-5.15,6.46-1,7.16,9.59,1.59,19.56,2.91,29.29,2.39C213.4,222.47,213.15,210.05,205.62,210.91Z"/><path class="cls-2" d="M200.43,187.53a103.55,103.55,0,0,1-9-20.26c-1.26-3.82-8.08-3.46-7.48,1a132.46,132.46,0,0,0,5.43,23.93C192.09,200.63,204.87,195.13,200.43,187.53Z"/><path class="cls-2" d="M149.33,324.29c-7.05,2.34-13.85,6.28-21.5,6.32-5.52,0-9.36-4.07-14.59-3.92-2.45.07-5.22,2.21-4.93,4.93.17,1.59-7.06,8-8.29,9.34a2.3,2.3,0,0,0,3.25,3.26c2.84-2.47,5.65-5.12,8.69-7.37,1.61,1.38,3,3.07,4.88,4.19a29.08,29.08,0,0,0,11.76,3.87c9,1,18.74-2.56,26.51-6.93C162.37,333.89,157.52,321.57,149.33,324.29Z"/><path class="cls-2" d="M208.1,374.72c-2.36.77-3.24,3-4.23,5.12-.5,1-1,2.05-1.58,3-.16.25-.69,1.09-.83,1.35a6.55,6.55,0,0,0-3.85,5.89,6.76,6.76,0,0,0,4.82,6.33c7.43,2.42,10.61-5.63,11.06-11.4C213.71,382.28,213.09,373.09,208.1,374.72Z"/><path class="cls-2" d="M232.15,383.27a6.68,6.68,0,0,0-1.91-1.48l-1.7-2.27c-1.34-1.78-3.75-2.88-5.84-1.53s-2.47,3.63-1.53,5.84c.35.85.71,1.69,1.07,2.53a6.71,6.71,0,0,0,.33,2.49,5.88,5.88,0,0,0,4,4,5.73,5.73,0,0,0,5.57-9.58Z"/><path class="cls-2" d="M274.06,480.41c-5.79-14.34-11.72-28.62-17.59-42.92a4.92,4.92,0,0,0-1.57-2.07,5.3,5.3,0,0,0,.32-3.23c-2-9.93-5.41-19.5-8.43-29.14-1.39-4.46-8.22-2.62-7,1.93,2.45,9.32,3.57,18.8,4.95,28.3-3.46-9-7.62-18-7.17-27.74.15-3.42-4.76-3.82-5.76-.78-4,12.34-3.75,24.68-.67,37.23a7.08,7.08,0,0,0,7.47,5.58,3.76,3.76,0,0,0-1.41,3.39c.59,11.38,2.68,24.1,7.16,34.6,3.27,7.68,16,2.2,13.46-5.68-3.2-10.09-8-20.26-12.07-30.08a4.93,4.93,0,0,0-3.86-2.91c3.45-1.37,6-4.7,4.5-9.1a4.31,4.31,0,0,0,1.29.73,6.08,6.08,0,0,0,.17,1.35c3.95,14.83,7.83,29.69,11.86,44.5C262.26,493.8,277.59,489.14,274.06,480.41Z"/><path class="cls-2" d="M470.83,453.56c-1.57-5.92-6.48-12.54-12.09-15.19-5.36-2.53-11.28-1.61-16.86-.4-3,.65-2.32,5.36.72,5.34,3.46,0,9.53-.48,12.09,2.51,2.78,3.26,2.23,9,4.52,12.64C463,464.5,472.72,460.66,470.83,453.56Z"/><path class="cls-2" d="M532.87,443.41c-2.79-9.8-3.49-20.17-3.47-30.31,0-6.48-9-6.08-9.79,0a143.35,143.35,0,0,0-.9,20.55,7.4,7.4,0,0,0-1,.13c.34-8.31.61-16.59.51-24.93-.06-4.44-6.48-5.34-7.73-1.05-2.67,9.2-4.85,18.47-7,27.79a14,14,0,0,0-5.85,1.15c-9,3.71-15.19,12.28-20.54,20-2,2.91,2.46,6.25,4.87,3.75,4.25-4.4,9.78-7.85,15.22-10.64,4.11-2.11,3.42-2,6,1.23a13.78,13.78,0,0,0,4,3.69c6.12,3.27,11.52.73,15.32-3.66C527.22,453.59,534.85,450.38,532.87,443.41Z"/><path class="cls-2" d="M473.38,372.15l-.09.07A86.52,86.52,0,0,0,457,381.38c-3.05,2.17-4.51,6.05-2.49,9.5a6.75,6.75,0,0,0,2.36,2.33,10.26,10.26,0,0,0,.32,3.39,1.61,1.61,0,0,0,2.66.7,26.26,26.26,0,0,0,3.53-3.62,5.25,5.25,0,0,0,.63-.31c5.29-3.42,10.7-6.56,16.13-9.75C487.58,379.22,480.15,367.15,473.38,372.15Z"/><path class="cls-2" d="M431.76,378.25a35.36,35.36,0,0,1-9-1.59c-3-.93-5.63-2.81-8.64-3.48a3.57,3.57,0,0,0-4,5.17c1.72,3.32,5.55,5.73,8.68,7.63a45.52,45.52,0,0,0,11.25,4.76C438.82,393.22,441.25,378.68,431.76,378.25Z"/><path class="cls-2" d="M556.49,372.1c-2.32-2.14-6.62-2.69-8.87,0a25.64,25.64,0,0,1-1.8,2,18.78,18.78,0,0,1-1.93,1.65,5,5,0,0,1-.46.28,2.4,2.4,0,0,0-1.29-.22l.45.13a3.71,3.71,0,0,0-3.64,1c-3.58,4.29-.3,9.9,5.08,10,4.71.08,9-3,12.46-5.89C559,378.84,558.86,374.27,556.49,372.1Z"/><path class="cls-2" d="M332.42,507.48c-.22.06-.42.14-.63.21a7.44,7.44,0,0,0-.93-1.15c-2.16-2.16-6.44-3.13-9.05-1.17-.75.56-1.51,1.12-2.28,1.67a10.89,10.89,0,0,0-1.07.7,3.17,3.17,0,0,0-.33.29,2.07,2.07,0,0,0-.41,0l-1.77.37c.23-.06-.45-.05-.45-.05-.65-.08-1.29-.27-1.93-.39-2-.38-3.78-.55-5.41.95-2.19,2-1.48,5.38-.11,7.66a13.25,13.25,0,0,0,7.33,5.29c4.94,1.55,11.41.34,14.93-3.64a17.26,17.26,0,0,0,6.63-3C340.58,512.16,336.67,506.28,332.42,507.48Z"/><path class="cls-2" d="M362.65,497.81c-3,2-7.94,4.09-8.95,8-.56,2.18.22,4.37,1.08,6.49-6.62,1.8-11.66,6.63-17.14,10.5a4.61,4.61,0,0,0-1,6.73,2.41,2.41,0,0,0,2.14,2.86c5.52.36,11.05-.41,16.53-1,3.27-.37,6.77-.51,9.39-2.77s3.07-5.46,2.84-8.63a33.93,33.93,0,0,0-1.36-7c-.22-.77-.73-1.83-1.17-2.88,1-.32,2.12-.59,2.54-.74C376.41,506.09,370.1,492.93,362.65,497.81Z"/><path class="cls-2" d="M395.39,495c-4.5,3.72-10.91,7.3-10.67,13.92.08,2.29,2.33,5.4,1.54,7.49-1.26,3.34-6.87,3.49-9.71,4.3-3.14.9-3.23,5.6,0,6.46,6.95,1.83,15.59.89,19.69-5.79a11.78,11.78,0,0,0,1.05-9.63c-.77-2.58-2.06-1.81,0-3.23,1.86-1.29,3.78-2.48,5.67-3.72C410.39,499.94,402.44,489.21,395.39,495Z"/><path class="cls-2" d="M394.71,474.41a6.1,6.1,0,0,0-4.16-.69,7,7,0,0,1-.74-.94,7.9,7.9,0,0,1-1.08-4.58c.09-3.74-5.23-4.23-6.33-.86a17.61,17.61,0,0,0,.88,12.82c2.2,4.74,8.21,8.56,12.66,3.85A6.19,6.19,0,0,0,394.71,474.41Z"/><path class="cls-2" d="M369,460.36c-2.36-3.73-4.18-8-7.06-11.38-2-2.31-5.74-.37-5.78,2.39-.05,3.45,1.22,6.88,1.66,10.31a7.64,7.64,0,0,0-2.57,4.63,7.19,7.19,0,0,0,3.36,7l.51.36c2.18,1.49,5.15,1.15,7.35,0C371.8,470.88,371.91,464.94,369,460.36Z"/><path class="cls-2" d="M408.6,439.63c-.32-3.52-2.44-6.42-6.1-6.91-3.16-.42-7.13,1.58-7.71,5-.12.72-.22,1.44-.32,2.17,0,.15,0,.24-.05.36l-.06.2-.12.2.09-.09a1.09,1.09,0,0,1-.11.13.76.76,0,0,1-.42.24l-.77,0a11.48,11.48,0,0,1-2.44-.39,2.47,2.47,0,0,0-3,1.7c-1,5.25,4.4,9,9.12,9.14C402.77,451.67,409.16,445.91,408.6,439.63Z"/><path class="cls-2" d="M147.92,368c-2.56-2-7-2.14-9.23.55a32.38,32.38,0,0,0-2.5,3.23c-.21.34-.4.68-.62,1l-.28.26c-2.17-2.08-6.84-.79-6.74,2.85a9.21,9.21,0,0,0,1.48,5.19,9.66,9.66,0,0,0,6.5,4.08c5.56.81,10.89-3.29,13.2-8.1C151.27,373.85,150.83,370.22,147.92,368Z"/><path class="cls-2" d="M51.48,288.36c-4.81.06-9.53.23-12,5-2,3.88,0,6.42.42,10.25.79,6.47-5.68,8.31-10.71,8.74-2.77.23-5,3.82-2.48,6,5.68,5,14.58,4,20.34-.31a19.15,19.15,0,0,0,6.67-9.56,16.46,16.46,0,0,0,.65-4.64C61.65,301.2,60.71,288.25,51.48,288.36Z"/><path class="cls-2" d="M91.36,280.94c-3-5.77-10.64-4.63-13.91,0a10.63,10.63,0,0,0-1.53,3.42,15.14,15.14,0,0,0-4.37,1.13c-5.15,2.17-7.5,7.17-8.16,12.48-.58,4.65,5.77,5.1,7.92,2.14.75-1,3.1-1.12,3.75-1,3.57.47,6.25,1.59,9.85.06A13.43,13.43,0,0,0,91.36,280.94Z"/><path class="cls-2" d="M82.17,269.23a48.85,48.85,0,0,0-.69-5.53c-.81-4.26-7.59-4.14-8.48,0a18.37,18.37,0,0,1-1.13,4s-.64,1-.62.94a18.79,18.79,0,0,0-1.53,3.12c-1.23,3.15,1.35,7.21,4.5,7.93s7.2-1,7.93-4.5a12,12,0,0,0,.27-3.53C82.39,271.34,82.1,268.27,82.17,269.23Z"/><path class="cls-2" d="M362.4,335a4.37,4.37,0,0,0-7.42,0,4.3,4.3,0,0,0,.34,4.77s.05.06.07.1a4.66,4.66,0,0,1,.1,1.59c-.22,1.81,2.45,2.28,3.27.89a3.12,3.12,0,0,1,.7-.87s.11-.08.17-.14C362.4,341,363.84,337.25,362.4,335Z"/><path class="cls-2" d="M398.84,336a5.73,5.73,0,0,0-4.21,1.67c-.43.15-.86.28-1.28.44a5.56,5.56,0,0,0,.25-5.9,6.51,6.51,0,0,0-2-2,5.56,5.56,0,0,0-4.29-.57,9,9,0,0,0-3.15,1.7c-.37.35-.7.75-1,1.12l-1.95,2.13a4.87,4.87,0,0,0-.38,6.35,4.61,4.61,0,0,0,2.51,1.73,5.26,5.26,0,0,0,1.16.12c-2.25,2.92-.7,8.25,3.66,7.91A46,46,0,0,0,399,348.57a5.32,5.32,0,0,0,.5-.21C406.79,347.7,406.61,336,398.84,336Z"/><path class="cls-2" d="M430.15,337.91a5.83,5.83,0,0,0-5.51-4.19,8.06,8.06,0,0,0-2.15.35,5.4,5.4,0,0,0-7-7.93c-2.22,1.39-3.94,3.63-5.73,5.52a4.91,4.91,0,0,0,5.31,8,4.24,4.24,0,0,0,0,2.47,4.85,4.85,0,0,0,4.57,3.48c2.64-.09,5.55.16,7.89-1.24A5.79,5.79,0,0,0,430.15,337.91Z"/><path class="cls-2" d="M446.76,324.82a5.45,5.45,0,0,0-4.26-1.13,6,6,0,0,0-4.21,2.75l-2.72,3.66a5.61,5.61,0,0,0-.57,4.33,5.77,5.77,0,0,0,2,2.91c2.06,1.59,5.56,1.7,7.38-.43,1-1.17,2-2.33,2.95-3.49a6.43,6.43,0,0,0,1.69-4.07A5.56,5.56,0,0,0,446.76,324.82Z"/><path class="cls-2" d="M485.82,327.09a4.79,4.79,0,0,0-2.39-1.67l1-.77c2.29-1.82,2-6,0-7.87a5.66,5.66,0,0,0-7.87,0q-3.06,3-6.1,6.08a5.13,5.13,0,0,0,0,7.18,4.92,4.92,0,0,0,4.79,1.23,4.84,4.84,0,0,0,.95,3,4.65,4.65,0,0,0,5.92,1.18l2.33-1.12C487.11,333,487.48,329.25,485.82,327.09Z"/><path class="cls-2" d="M370.62,347a4.49,4.49,0,0,0-4-2.7c-5.82-.33-10,3.91-13.29,8.22-2.36,3.09,2.14,7,5.15,5.14a32.69,32.69,0,0,1,5-2.37,34.24,34.24,0,0,0,3.33-1.29,19.67,19.67,0,0,0,2.95-2.2C371.06,350.73,371.25,348.39,370.62,347Z"/><path class="cls-2" d="M461,333.29a4.63,4.63,0,0,0-5.41-2.66c-2.53.54-5.08,2.42-7.34,3.66-4.1,2.26-1.33,9.26,3.23,7.68l3.54-1.23a15.69,15.69,0,0,0,4.11-1.72A4.65,4.65,0,0,0,461,333.29Z"/><path class="cls-2" d="M95.59,322.67a11.17,11.17,0,0,0-4-5.83,10.62,10.62,0,0,0-5.31-2.21,5.62,5.62,0,0,0-3,0A8.38,8.38,0,0,0,79.1,316l-.23.11c-3.51,1.65-5.61,6.07-5.61,9.78A11.47,11.47,0,0,0,87.6,336.77a11.6,11.6,0,0,0,7.91-7.91l.08-.22c.13-1,.27-2,.4-3C95.86,324.66,95.72,323.66,95.59,322.67Z"/><path class="cls-3" d="M142.31,73.18c-25,0-39.27-9.77-39.27-26.79,0-14,13.12-22.57,20.27-22.57a12.26,12.26,0,0,1,3.54.52c7.15-10.65,21-20.17,32.25-20.17a13.36,13.36,0,0,1,7.56,2.26A33,33,0,0,1,185.37,0a33.7,33.7,0,0,1,21.2,8.1c5.08,4.34,11.13,12.21,11.13,25,0,19-10.3,32.13-28.26,36.13C174.63,72.94,142.62,73.18,142.31,73.18Zm-19-44c-4.43,0-14.91,6.68-14.91,17.21,0,18.64,21.24,21.43,33.91,21.43.31,0,31.67-.22,45.87-3.77,15.61-3.47,24.17-14.45,24.17-30.93,0-19.15-15.78-27.76-27-27.76a26.17,26.17,0,0,0-14.89,4.8,23.3,23.3,0,0,1,4.14,13.5c0,7.44-4.78,10.82-9.21,10.82-5.85,0-8.51-6-8.51-11.57,0-4.7,2.14-9.06,5.48-12.69a7.94,7.94,0,0,0-3.28-.7c-9.07,0-21.29,8.53-27.58,17.51a16.93,16.93,0,0,1,5.39,11.89,7.73,7.73,0,0,1-7.84,7.71c-4.6,0-7-4.54-7-9a20.66,20.66,0,0,1,2-8.39C123.84,29.2,123.58,29.18,123.31,29.18Zm5.47,2.64a14.79,14.79,0,0,0-1.36,5.79c0,1.24.49,3.67,1.65,3.67,0,0,2.49-.11,2.49-2.36A11.77,11.77,0,0,0,128.78,31.82Zm37.63-18.07c-2.61,2.89-4.15,6.15-4.15,9.16,0,.06.13,6.22,3.15,6.22,1.86,0,3.85-1.44,3.85-5.47A18,18,0,0,0,166.41,13.75Z"/><path class="cls-3" d="M511.76,128.38A2.68,2.68,0,0,1,509.1,126c-.9-8.41-7-14.53-14.71-14.87a2.68,2.68,0,0,1-.56-5.27c9.38-2.44,13.8-7.47,14.33-16.29a2.68,2.68,0,0,1,5.33-.2c1.2,8.77,5.69,14.21,12.32,14.92a2.68,2.68,0,0,1,0,5.32c-5.77.7-10.67,7.72-11.41,16.33A2.67,2.67,0,0,1,511.76,128.38ZM502.89,108a21.17,21.17,0,0,1,8.52,8.17,22,22,0,0,1,6.69-8.88,19,19,0,0,1-7.05-7.72A20.29,20.29,0,0,1,502.89,108Z"/><path class="cls-3" d="M333.82,80.22l-.64,0-.41,0a12.43,12.43,0,0,1-1.93-.15,9.37,9.37,0,0,1-7.39-8.8,10.48,10.48,0,0,1,7.65-10.37,7.84,7.84,0,0,1,2.06-.31,10.37,10.37,0,0,1,7.58,3,9.83,9.83,0,0,1,3,7,10.05,10.05,0,0,1-9.58,9.64ZM332.59,66a5.18,5.18,0,0,0-3.8,5,4.1,4.1,0,0,0,3,3.77,7.58,7.58,0,0,0,1.17.08l.48,0H334a4.65,4.65,0,0,0,4.4-4.35A4.49,4.49,0,0,0,337,67.34a5,5,0,0,0-3.68-1.44A3.11,3.11,0,0,0,332.59,66Z"/><path class="cls-3" d="M468.09,66.49c-9.66,0-16.77-.62-20.86-4.66-2.25-2.22-3.34-5.21-3.34-9.13,0-12,12.29-23.24,21.81-23.24a11.78,11.78,0,0,1,3.8.63c5.31-6.79,13.62-12.68,23.43-12.68,7.77,0,16,4.56,18,13.12,8.28,1.32,15.88,7.5,15.88,17.09a14.15,14.15,0,0,1-5.41,11.45c-6.25,4.74-13.31,5.44-20.14,6.13-.83.08-1.66.16-2.49.26a150.13,150.13,0,0,1-16.35.91c-2.76,0-5.39,0-7.9.06C472.29,66.46,470.13,66.49,468.09,66.49ZM465.7,34.82c-6.8,0-16.46,9.24-16.46,17.88,0,3.22,1,4.58,1.76,5.32,3.35,3.32,12.25,3.2,23.49,3.06,2.53,0,5.19-.07,8-.07a144.39,144.39,0,0,0,15.77-.88l2.54-.26c6.37-.64,12.39-1.24,17.44-5.07a9,9,0,0,0,3.29-7.18c0-6.56-5.09-10.26-10.06-11.51C511,42.6,507,50.82,498.79,50.82a7.31,7.31,0,0,1-7-7.61c0-7.57,6.59-12,13.49-12.81-2-5-7.2-7.64-12.39-7.64-8.06,0-14.57,4.87-18.83,10.21a13.58,13.58,0,0,1,4.16,9.47c0,5.32-3.29,9-8,9-3.5,0-7-2.29-7-6.68a21.75,21.75,0,0,1,3.11-9.94Q466,34.82,465.7,34.82ZM471,37.55a17,17,0,0,0-2.45,7.24c0,1.15,1.05,1.32,1.68,1.32,2.39,0,2.64-2.57,2.64-3.67A8,8,0,0,0,471,37.55Zm35.06-1.85c-4.6.5-8.9,3.23-8.9,7.51,0,1.86,1.28,2.26,1.6,2.26C503.92,45.47,505.84,39.35,506.09,35.7Z"/><path class="cls-3" d="M469.81,99.31q-.4,0-.81,0c-4.22-.37-7.82-4.42-7.87-8.86a9.2,9.2,0,0,1,6.31-8.8,9,9,0,0,1,2.49-.42,9.93,9.93,0,0,1,6.9,2.64,8.43,8.43,0,0,1,2.65,6,9.06,9.06,0,0,1-3,6.74A9.83,9.83,0,0,1,469.81,99.31Zm.37-12.76a3.79,3.79,0,0,0-1.1.17,3.84,3.84,0,0,0-2.59,3.65c0,1.5,1.34,3.43,3,3.57a4.43,4.43,0,0,0,3.4-1.22A3.76,3.76,0,0,0,474.12,90a3.06,3.06,0,0,0-1-2.28A4.6,4.6,0,0,0,470.18,86.55Z"/><path class="cls-3" d="M554.45,85.13a10.51,10.51,0,0,1-7.36-3.2,10.63,10.63,0,0,1-3.2-7.69,10.33,10.33,0,0,1,9.79-10,9,9,0,0,1,2.14.19l.38.06a7,7,0,0,1,1.61.38,10.82,10.82,0,0,1,6.81,9.59,10.16,10.16,0,0,1-10,10.64ZM554,69.62h-.12a5,5,0,0,0-4.61,4.76,5.56,5.56,0,0,0,5.29,5.39,4.86,4.86,0,0,0,4.72-5.22,5.57,5.57,0,0,0-3.35-4.65,4.48,4.48,0,0,0-.49-.09l-.69-.12A3.67,3.67,0,0,0,554,69.62Z"/><path class="cls-3" d="M561.08,246.74c-6.3,0-9.6-3.87-9.6-7.69,0-3.49,2.1-5.74,3.95-7.72s3-3.33,3-5.43c0-1.62-1.73-6.3-4.39-6.3-4.61.19-8.77,2.1-13.17,4.12-1.36.62-2.71,1.24-4.08,1.81a2.68,2.68,0,0,1-3.72-2.44c-.06-7.13-.61-14.38-1.24-21.36-.84.62-1.64,1.31-2.46,2-2.62,2.25-5.59,4.79-10.4,4.79-5.2,0-10.46-4-10.46-11.66,0-7.35,4-15,10.8-15a28.09,28.09,0,0,1,5.59,1c2,.46,4.24,1,6.4,1.28-.34-3.46-.58-6.68-.73-9.76a2.68,2.68,0,0,1,3.08-2.78l2.08.33a49.74,49.74,0,0,0,7.57.83c.32,0,7.79-.05,7.79-4.41a8.72,8.72,0,0,0-2.19-5.89,11.05,11.05,0,0,1-2.65-6.88c0-7.29,8.52-11.17,14.68-11.17,7.36,0,12.12,4.92,12.12,12.53,0,3.93-1.81,9.31-2.88,12.52-.16.48-.31.89-.41,1.21,1.08.95,5.45,2.12,9.14,2.12a49.88,49.88,0,0,0,10.64-1.49,2.68,2.68,0,0,1,3.26,2.82c-.09,1.25-.14,2.52-.14,3.89a109.05,109.05,0,0,0,1,13,2.7,2.7,0,0,1-.75,2.19,2.63,2.63,0,0,1-2.17.79c-.91-.09-1.68-.13-2.31-.13-7.22,0-10.47,3.48-10.47,6,0,3.14,4.77,3.83,6.61,3.83a16.31,16.31,0,0,0,5.85-1.2,2.67,2.67,0,0,1,3.66,2.58c0,.86,0,1.72,0,2.58a128.16,128.16,0,0,0,.83,13.66,2.68,2.68,0,0,1-3.24,2.9l-1.6-.36a38.79,38.79,0,0,0-8.35-1.28c-.29,0-7,0-7,3.27a11.17,11.17,0,0,0,.19,1.92,29,29,0,0,1,.51,5.12C575.42,241.42,569.93,246.74,561.08,246.74Zm-7-32.49c6.4,0,9.74,7.58,9.74,11.65,0,4.32-2.47,7-4.45,9.08-1.55,1.67-2.5,2.76-2.5,4.07,0,.9,1.15,2.33,4.24,2.33,4.1,0,9-1.48,9-8.53a24,24,0,0,0-.42-4.19,15.93,15.93,0,0,1-.28-2.85c0-5.24,4.84-8.62,12.33-8.62a36.25,36.25,0,0,1,7.51,1c-.32-3.6-.48-6.67-.5-9.58a19.53,19.53,0,0,1-4.12.45c-5.76,0-12-2.88-12-9.19,0-5.4,5.39-11.13,15.37-11.3a97.6,97.6,0,0,1-.67-10.48c0-.26,0-.51,0-.77a45.29,45.29,0,0,1-8.41.9c-.15,0-14.6-.2-14.6-7.39a9.92,9.92,0,0,1,.79-3c.91-2.71,2.6-7.75,2.6-10.81,0-5.93-3.68-7.17-6.76-7.17-4.23,0-9.33,2.59-9.33,5.81,0,1.42.53,2.22,1.64,3.75a14,14,0,0,1,3.21,9c0,6.75-6.6,9.77-13.15,9.77a45.85,45.85,0,0,1-7.19-.71c.2,2.93.48,6,.85,9.33a2.68,2.68,0,0,1-2.67,3,48.18,48.18,0,0,1-10.61-1.64,29.92,29.92,0,0,0-4.37-.84c-3.26,0-5.45,5-5.45,9.6,0,5,3.22,6.31,5.11,6.31,2.82,0,4.54-1.47,6.91-3.51a24.22,24.22,0,0,1,7.29-4.75,2.67,2.67,0,0,1,3.62,2.25c.66,7,1.32,14.42,1.55,21.81l.3-.13c4.68-2.15,9.52-4.36,15.07-4.59Z"/><path class="cls-3" d="M506.12,158.39l-2.16,0A2.68,2.68,0,0,1,504,153l2.08,0c27.35,0,29.6-9.49,32-19.54,2.13-9,4.54-19.19,25.2-19.19C574,114.3,579,124,579,130.55a26.34,26.34,0,0,1-1,7,15.16,15.16,0,0,0-.64,3.67c0,2.08,4.4,2.53,9.72,2.87,1.7.11,3.46.22,5,.44a2.68,2.68,0,1,1-.76,5.3c-1.35-.19-2.94-.29-4.62-.4-6.21-.39-14.73-.94-14.73-8.21a19.22,19.22,0,0,1,.81-5,21.54,21.54,0,0,0,.86-5.66c0-3.41-2.59-10.89-10.29-10.89-16.42,0-17.92,6.32-20,15.07C540.82,145.27,537.71,158.39,506.12,158.39Z"/><path class="cls-3" d="M546,379.46h-.34c-4-.14-8.48-3.9-8.58-8.73a9.31,9.31,0,0,1,2.62-6.64,8.88,8.88,0,0,1,6.33-2.73h.09a9.05,9.05,0,1,1-.12,18.1Zm.11-12.75a3.63,3.63,0,0,0-2.57,1.11,4,4,0,0,0-1.11,2.8,4.17,4.17,0,0,0,3.42,3.48,3.8,3.8,0,0,0,2.86-1.1,3.84,3.84,0,0,0,1.18-2.73,3.93,3.93,0,0,0-.24-1.45A3.86,3.86,0,0,0,546.09,366.71Z"/><path class="cls-3" d="M337.11,531.59a2.67,2.67,0,0,1-1.31-.34,2.71,2.71,0,0,1-1.37-2.33c0-14.13-.52-18.43-2.16-18.43-1.47,0-2.39,1.13-4.13,3.71-2,3-4.75,7-10.54,7-6.79,0-12.61-7-12.61-12.66,0-4.06,5-14.09,12.51-14.09a10.68,10.68,0,0,1,4.72,1,4.05,4.05,0,0,0,1.86.48c1.22,0,3-.49,3.23-1.84-.16-.54-.49-1.59-.9-3-.9-2.93-2.24-7.31-3.48-11.45a2.7,2.7,0,0,1,.33-2.23,2.67,2.67,0,0,1,1.9-1.19c14.52-1.87,20.07-4.2,21.17-5.32a14.15,14.15,0,0,0-3.1-.64c-4.3-.63-12.31-1.81-12.31-13.43,0-6.93,8-15.3,17.89-15.3,10.35,0,14,5.27,14,9.78,0,.26,0,.53,0,.79s0,.42,0,.63v.33c0,.15,0,.3,0,.54a24.18,24.18,0,0,1-1.83,8.17,18.92,18.92,0,0,0-1.44,6,3.51,3.51,0,0,0,0,.54c4.65-.35,9.2-2.09,14-3.94,2.08-.8,4.24-1.62,6.43-2.33a2.66,2.66,0,0,1,3.49,2.29A154.71,154.71,0,0,0,387,484.77a26.91,26.91,0,0,0,5.65-3.69c2.81-2.18,5.47-4.24,8.56-4.24,7.19,0,11.66,4.21,11.66,11,0,7.71-4.66,12.32-12.47,12.32a35.64,35.64,0,0,1-4.55-.39c-.49-.07-.88-.13-1.11-.14-3.07,0-4.64,2.13-4.64,6.32,0,3.42,1.54,7,2.91,10.22a2.67,2.67,0,0,1-.08,2.26,2.64,2.64,0,0,1-1.77,1.4c-1.35.32-2.7.62-4.06.93-4.27,1-8.69,2-12.91,3.31a2.65,2.65,0,0,1-3.09-1.16,7.76,7.76,0,0,1-1.21-4.08,8.27,8.27,0,0,1,.45-2.13c.61-2.24,1.87-6.89,1.87-9.7,0-3.78-1.84-7.84-5.89-7.84-3.68,0-9.77,3.76-9.89,7.8.19,1.05,1.7,5.93,4.22,13.19a2.68,2.68,0,0,1-1.93,3.49c-5.43,1.26-13.43,3.41-20.22,7.57A2.69,2.69,0,0,1,337.11,531.59Zm-4.84-26.46c6.74,0,7.42,6.44,7.51,19.27a76.78,76.78,0,0,1,14.86-5.29c-3.56-10.45-3.56-11.59-3.56-12,0-7.58,9.25-13.27,15.25-13.27,6.52,0,11.25,5.54,11.25,13.19,0,3.52-1.33,8.44-2.05,11.09,3.48-1,7-1.78,10.4-2.55l.94-.22a26,26,0,0,1-2.12-9.37c0-7.2,3.84-11.68,10-11.68a15.23,15.23,0,0,1,1.81.19,31.53,31.53,0,0,0,3.83.34c4.92,0,7.11-2.14,7.11-7,0-3.74-2.12-5.64-6.3-5.64-1.26,0-3.31,1.59-5.28,3.12-3,2.3-6.33,4.9-10.48,5.38a2.69,2.69,0,0,1-2.86-1.84c-1.59-5-3.18-13.76-4-20.57-1,.38-2.05.77-3.06,1.16-5.13,2-10.43,4-16.12,4.31h-.25c-2.46,0-5-2-5-5.93a23,23,0,0,1,1.75-7.74,19.73,19.73,0,0,0,1.52-6.39v-.35c0-.15,0-.3,0-.52s0-.52,0-.79,0-.42,0-.63c0-2.73-3.32-4.42-8.66-4.42-6.92,0-12.53,6-12.53,9.94,0,7,3.24,7.47,7.73,8.13,2.89.42,7.72,1.13,7.72,6.19,0,3.32-2.79,7.06-22.76,9.95.95,3.15,1.88,6.21,2.56,8.43,1.16,3.8,1.16,3.8,1.16,4.23,0,4.28-3.7,7.5-8.61,7.5a9.07,9.07,0,0,1-4-.93,5.4,5.4,0,0,0-2.58-.6c-3.94,0-7.15,7-7.15,8.74,0,2.75,3.39,7.3,7.25,7.3,2.8,0,4.15-1.77,6.1-4.67C325.53,508.49,327.8,505.13,332.27,505.13Z"/><path class="cls-3" d="M394,449.13a11.3,11.3,0,0,1-10-6.62,10.36,10.36,0,0,1-1.48-5.38,11.31,11.31,0,0,1,2.48-7.08,10.46,10.46,0,0,1,8.43-4.84c6.4,0,13.53,5,13.53,12.2a11.85,11.85,0,0,1-9.27,11.09A11.25,11.25,0,0,1,394,449.13ZM388.79,440a8.35,8.35,0,0,0,6.58,3.35,6.84,6.84,0,0,0,.91-.07,7.3,7.3,0,0,0,4.46-6.84c0-2.56-2.64-4.16-3.78-4.73A2.78,2.78,0,0,1,396,431a8.69,8.69,0,0,0-2.49-.43,2.65,2.65,0,0,1-1.31.83,5.93,5.93,0,0,0-3,2,7.32,7.32,0,0,0-1,3.75A6.9,6.9,0,0,0,388.79,440Z"/><path class="cls-3" d="M323.27,368.85H323c-5.37-.14-8.9-5.05-8.81-9.55.07-4.09,3-8.56,7.82-9a14.81,14.81,0,0,1,2.08-.06,8.63,8.63,0,0,1,8.56,8.72,9.82,9.82,0,0,1-2.87,7.09A9.16,9.16,0,0,1,323.27,368.85Zm-.76-13.19c-1.85.16-2.9,2.31-2.93,3.74s1.15,4,3.6,4.09a3.84,3.84,0,0,0,2.83-1.18,4.46,4.46,0,0,0,1.32-3.13,3.31,3.31,0,0,0-3.42-3.57A10.86,10.86,0,0,0,322.51,355.66Z"/><path class="cls-3" d="M353.89,351.34a2.68,2.68,0,0,1-2.56-1.89c-1.08-3.54-2.43-7.94-2.43-12.51,0-7.08,3.64-10.31,7-10.31a3.15,3.15,0,0,1,.53,0c8.77,1.09,9.13,12.87,9.34,19.91a2.69,2.69,0,0,1-2.05,2.69c-2,.46-3.94.88-5.91,1.29l-3.38.72A2.76,2.76,0,0,1,353.89,351.34ZM355.78,332c-.29,0-1.53,1.29-1.53,5a30.7,30.7,0,0,0,1.5,8.59l1-.21,3.63-.78C360.05,338,359.13,332.4,355.78,332Z"/><path class="cls-3" d="M380.67,346.87a2.68,2.68,0,0,1-2.61-2.09,44.47,44.47,0,0,1-1.4-9.69c0-8.89,4.83-12,9-12,7.69,0,8.28,10.89,8.67,18.1l0,.54a2.67,2.67,0,0,1-2,2.74c-3.56.87-7.31,1.67-11.12,2.39A2.12,2.12,0,0,1,380.67,346.87Zm5-18.47c-3.27,0-3.63,4.68-3.63,6.69a29.45,29.45,0,0,0,.73,6c2.07-.42,4.12-.86,6.12-1.32C388.59,335.38,387.93,328.4,385.64,328.4Z"/><path class="cls-3" d="M413.84,342.4a2.67,2.67,0,0,1-2.63-2.18,81.44,81.44,0,0,1-1.3-15c0-3.67,4.28-7.93,7.07-7.93,5.25,0,7.34,7.81,9,20.4a2.67,2.67,0,0,1-2.19,3c-1,.18-2.06.34-3.08.5-2.19.35-4.26.67-6.27,1.15A2.56,2.56,0,0,1,413.84,342.4ZM417,322.89a5.11,5.11,0,0,0-1.71,2.33,79.56,79.56,0,0,0,.77,11.31c1.29-.24,2.59-.44,3.86-.64l.44-.07C419,326.72,417.69,323.82,417,322.89Z"/><path class="cls-3" d="M440.65,338.67a2.67,2.67,0,0,1-2.57-1.93,37.35,37.35,0,0,1-1.7-10.51c0-9.17,5.11-13.34,9.86-13.34,8,0,9,13.15,9.52,20.21a2.68,2.68,0,0,1-2,2.8c-2.92.72-5.91,1.34-8.8,1.93l-3.72.78A2.74,2.74,0,0,1,440.65,338.67Zm5.59-20.42c-1.68,0-4.51,1.68-4.51,8a28.65,28.65,0,0,0,.86,6.62l1.26-.26c2.1-.44,4.26-.88,6.38-1.36C449.14,319.56,447.1,318.25,446.24,318.25Z"/><path class="cls-3" d="M474.87,333.33a2.75,2.75,0,0,1-1.67-.58,2.68,2.68,0,0,1-1-1.83c-.16-1.51-.5-3.16-.86-4.92a41.35,41.35,0,0,1-1.15-8.35c0-8.29,6-12.44,9.34-12.44,8,0,8.91,10.4,9.66,18.76.14,1.53.27,3,.44,4.35a2.68,2.68,0,0,1-2.14,3c-4.47.89-8.49,1.55-12.3,2Zm4.67-22.77c-.81.11-4,2.16-4,7.09a38.54,38.54,0,0,0,1,7.27c.19.9.38,1.81.54,2.72,2.2-.32,4.49-.7,6.92-1.15-.06-.66-.13-1.35-.19-2C483.37,318.92,482.62,310.56,479.54,310.56Z"/><path class="cls-3" d="M262,325.63H255.3c-1.2,0-2.4,0-3.6,0a2.69,2.69,0,0,1-2.6-2.21,57,57,0,0,1-1.1-9.86c0-3.81,1.53-14.7,8.34-14.7,7,0,7.52,10.28,8,19.36.09,1.63.17,3.18.28,4.52a2.62,2.62,0,0,1-.7,2A2.66,2.66,0,0,1,262,325.63ZM254,320.28h5.07c0-.58-.07-1.18-.1-1.79-.62-11.81-1.78-14.29-2.64-14.29-1.07,0-3,4.72-3,9.35A42.78,42.78,0,0,0,254,320.28Z"/><path class="cls-3" d="M284.47,313.11a2.67,2.67,0,0,1-2.62-2.14,105.6,105.6,0,0,1-1.9-15.34c0-1.84,1.14-11.16,6.52-11.16s6.87,9,8.59,19.45c.27,1.65.53,3.23.79,4.65a2.69,2.69,0,0,1-2.21,3.13l-.79.13c-2.65.43-5.31.86-8,1.25A2.56,2.56,0,0,1,284.47,313.11Zm2-22.58a14.63,14.63,0,0,0-1.21,5.1,101,101,0,0,0,1.32,11.77l3.48-.55c-.11-.67-.22-1.36-.34-2.06C289.08,300.59,287.87,293.23,286.52,290.53Z"/><path class="cls-3" d="M287.64,356.58a2.68,2.68,0,0,1-1.59-4.84l.9-.66c36-26.4,36-26.4,53.48-51.64a2.77,2.77,0,0,1,1.41-1.06,19.44,19.44,0,0,1,6-.86,50.45,50.45,0,0,1,5.46.39,44.27,44.27,0,0,0,4.89.37c3.9,0,12.7-2.18,13.7-4-.18-1.45-.47-2.89-.77-4.4-.24-1.18-.47-2.35-.66-3.53a2.69,2.69,0,0,1,.52-2,2.64,2.64,0,0,1,1.82-1c8.64-1,15.8-1.62,22.51-1.87a2.78,2.78,0,0,1,1.94.73,2.74,2.74,0,0,1,.84,1.9c.05,3.27.15,6.38.3,9.43,2.5-.54,5-1,7.43-1.47,1.95-.36,3.94-.74,5.91-1.14-.37-2.69-.72-5.58-1.1-8.92a2.67,2.67,0,0,1,2.25-2.94c5.72-.89,11.83-2.16,18.67-3.89a2.67,2.67,0,0,1,3.31,2.25c.49,3.69,1.16,8.45,1.75,12.1l1.09-.15a99.88,99.88,0,0,0,9.94-1.7c-.36-4.52-.56-9-.73-13.26a2.68,2.68,0,0,1,2.27-2.76c5.33-.82,10.55-1.63,15.77-2.57a2.68,2.68,0,0,1,3.1,2.09c.35,1.71.7,3.44,1,5.17.44,2.19.88,4.44,1.36,6.66,8.66-2.09,16.88-4.72,23.48-10.64a2.68,2.68,0,1,1,3.57,4c-8.21,7.36-18.57,10.21-28.48,12.49a2.66,2.66,0,0,1-2-.34,2.71,2.71,0,0,1-1.19-1.67c-.72-3.14-1.35-6.35-2-9.45-.17-.86-.34-1.72-.52-2.57-3.65.63-7.36,1.22-11,1.77.18,4.18.41,8.53.8,12.85a2.68,2.68,0,0,1-1.9,2.81,84.88,84.88,0,0,1-12.84,2.44c-1.2.16-2.41.33-3.61.51a2.68,2.68,0,0,1-3-2.18c-.58-3.18-1.28-7.93-1.83-11.93-4.88,1.18-9.4,2.12-13.71,2.85.38,3.23.75,6,1.14,8.7a2.68,2.68,0,0,1-2.07,3c-2.84.62-5.71,1.16-8.49,1.69-3.4.64-6.91,1.3-10.31,2.11a2.68,2.68,0,0,1-3.3-2.45c-.19-3.27-.33-6.58-.42-10.05-5,.26-10.4.71-16.53,1.39,0,.19.07.37.11.55.33,1.65.67,3.35.87,5.08,0,.1,0,.33,0,.43,0,8.16-18.88,9.3-19.07,9.3a50.61,50.61,0,0,1-5.47-.4,26.1,26.1,0,0,0-8.39,0c-17.46,25.22-17.83,25.49-54.18,52.15l-.9.66A2.67,2.67,0,0,1,287.64,356.58Z"/><path class="cls-3" d="M104,343.68h-.27a2.67,2.67,0,0,1-2.4-2.93c.41-4.21,1.5-10.42,2.76-17.6,2.64-15,6.25-35.57,6.25-52.92,0-.93,0-1.84,0-2.76s0-1.87,0-2.8c0-10.62,2.73-11.77,10.51-12.36a74.37,74.37,0,0,0,10.6-1.42,2.68,2.68,0,0,1,3.23,2.78c-.17,2.81-.29,5.64-.4,8.47l.55-.12a61,61,0,0,1,13.51-2c7.49,0,8.34,3.57,8.62,7.89a27.43,27.43,0,0,0,.37,3.43,2.69,2.69,0,0,1-2.16,3.12,2.66,2.66,0,0,1-3.11-2.16,32.21,32.21,0,0,1-.45-4,8.78,8.78,0,0,0-.34-2.47s-.49-.41-2.93-.41a56.64,56.64,0,0,0-12.33,1.87c-1.33.3-2.67.6-4,.88a2.67,2.67,0,0,1-3.21-2.73l.09-2.31c.08-2.1.17-4.21.27-6.31-3.24.53-5.85.72-7.9.88-5.55.42-5.55.42-5.55,7,0,.9,0,1.8,0,2.71s0,1.89,0,2.85c0,17.82-3.65,38.64-6.32,53.84-1.25,7.08-2.32,13.19-2.71,17.2A2.68,2.68,0,0,1,104,343.68Z"/><path class="cls-3" d="M163,268.49a2.68,2.68,0,0,1-2.67-2.49c-.16-2.31-.23-5.36-.23-9.34,0-10.75,1.06-21.59,2.09-32.07q.56-5.57,1.06-11.15a2.67,2.67,0,1,1,5.33.46c-.32,3.75-.69,7.49-1.06,11.22-1,10.35-2.07,21-2.07,31.54,0,2.54,0,4.67.1,6.46a39.86,39.86,0,0,0,5.14-.26c19.19-2.59,31.7-3.74,40-4.5,7.09-.65,12.2-1.13,13-1.87a14.58,14.58,0,0,0,.1-2.44v-.3c0-.25,0-.46,0-.62a3,3,0,0,1,3.56-3.41,7.26,7.26,0,0,0,1,.06,31,31,0,0,0,3.72-.32,34.36,34.36,0,0,1,4.39-.36c1.91,0,3.42,0,4.49,1.28a3.93,3.93,0,0,1,.58,3.51,13.7,13.7,0,0,0-.26,2.67c0,1.4.34,2.7,2.81,2.7a17,17,0,0,0,2.19-.15,2.68,2.68,0,1,1,.66,5.32,23.58,23.58,0,0,1-2.85.18c-5,0-8.17-3.16-8.17-8.05a17.67,17.67,0,0,1,.12-2.1c-1,0-2.14.17-3.29.31s-2.35.3-3.58.35c-.24,6.94-3.11,7.2-18,8.57-8.23.76-20.68,1.91-39.76,4.48a48.82,48.82,0,0,1-6.4.31Z"/><path class="cls-3" d="M221.63,260.11a2.69,2.69,0,0,1-2.52-1.76c-6.88-18.93-12.79-39.6-15-47.61a2.68,2.68,0,1,1,5.16-1.43c2.2,7.94,8.07,28.45,14.89,47.21a2.68,2.68,0,0,1-1.6,3.43A2.74,2.74,0,0,1,221.63,260.11Z"/><path class="cls-3" d="M156.65,217.28a2.68,2.68,0,0,1-2.63-2.19c-.82-4.43-1.66-9.15-2.12-14a2.69,2.69,0,0,1,2.3-2.91C177,195,196,192.51,215.83,192.51l2.55,0a2.68,2.68,0,0,1,2.64,2.4c.42,4.1,1,8.29,1.92,12.81a2.68,2.68,0,0,1-2.23,3.16c-14.42,2.2-29.22,3.29-42.28,4.26-4.07.3-8.23.74-12.26,1.17-3.09.33-6.19.66-9.28.94Zm.86-14.13c.36,2.9.84,5.77,1.33,8.56,2.26-.22,4.51-.46,6.77-.7,4.06-.44,8.27-.88,12.43-1.19,12.13-.9,25.77-1.91,39.13-3.81-.49-2.8-.9-5.5-1.22-8.14h-.12C197.08,197.87,179,200.13,157.51,203.15Z"/><path class="cls-3" d="M163.86,201.09l-.34,0a2.69,2.69,0,0,1-2.32-3c2.17-17.41,16.33-44.36,23.3-44.36,4.26,0,6.39,5,9.94,13.35,2.91,6.83,6.89,16.18,13.24,25.44a2.68,2.68,0,0,1-4.42,3c-6.65-9.7-10.75-19.34-13.75-26.37-1.67-3.92-3.71-8.72-5-9.92-3.84,2.81-15.93,22.63-18,39.49A2.67,2.67,0,0,1,163.86,201.09Z"/><path class="cls-3" d="M166.55,214a2.67,2.67,0,0,1-2.62-2.15c-.16-.77-.31-1.61-.46-2.45L163,207a2.68,2.68,0,1,1,5.25-1.05c.15.76.31,1.61.46,2.44s.29,1.62.44,2.36a2.68,2.68,0,0,1-2.1,3.15A3.27,3.27,0,0,1,166.55,214Z"/><path class="cls-3" d="M184.83,213.37a2.68,2.68,0,0,1-2.4-1.48,24,24,0,0,1-1.2-3,15.79,15.79,0,0,0-.9-2.34,2.68,2.68,0,1,1,4.79-2.4,22.44,22.44,0,0,1,1.2,3,17.12,17.12,0,0,0,.9,2.35,2.69,2.69,0,0,1-1.19,3.6A2.74,2.74,0,0,1,184.83,213.37Z"/><path class="cls-3" d="M203.7,212.77a2.68,2.68,0,0,1-2.6-2c-.13-.54-.29-1.08-.44-1.62a24,24,0,0,1-1.14-6.52,2.68,2.68,0,1,1,5.36,0,19.23,19.23,0,0,0,.94,5.08c.17.59.33,1.18.48,1.76a2.68,2.68,0,0,1-2,3.25A2.46,2.46,0,0,1,203.7,212.77Z"/><path class="cls-3" d="M181.54,249.6a2.68,2.68,0,0,1-2.64-2.28,57.75,57.75,0,0,1-.83-8.61c0-7.67,2.7-12.25,7.2-12.25,6.18,0,8.17,9.85,9.22,18.43a2.67,2.67,0,0,1-2.12,2.94c-3.05.64-6.7,1.34-10.53,1.75Zm3.68-17.79c-.72,0-1.79,2.63-1.79,6.9a40.69,40.69,0,0,0,.4,5.22c1.74-.25,3.43-.55,5-.85C187.31,232.75,185.24,231.82,185.22,231.81Z"/><path class="cls-3" d="M314.09,295.92a2.64,2.64,0,0,1-1.34-.36,2.73,2.73,0,0,1-1.26-1.64,58.28,58.28,0,0,1-2.24-14.47v-.24c0-3.55.17-7.19,2.25-9.27a4.68,4.68,0,0,1,3.39-1.41c3.07,0,7.07,2.47,10.78,21.67a2.67,2.67,0,0,1-1.91,3.08l-4,1.15c-1.64.47-3.28.94-4.93,1.39A3,3,0,0,1,314.09,295.92Zm.94-21.67a17.91,17.91,0,0,0-.42,4.95v.25A45.72,45.72,0,0,0,316,289.92l2.24-.64,1.66-.48C318,279.64,316.09,275.54,315,274.25Z"/><path class="cls-3" d="M362,276.7a2.8,2.8,0,0,1-.85-.14,2.68,2.68,0,0,1-1.69-3.39c1.1-3.3,1.93-6.12,2.67-8.61,3-10.27,4.56-15.43,15.15-15.43a58.94,58.94,0,0,1,6.32.44,54.4,54.4,0,0,0,5.72.41h.78a8.42,8.42,0,0,0,2.3-.14c.18-.18.82-1.3.82-7.38l0-3.25v-.44a2.68,2.68,0,0,1,2.3-2.62,119,119,0,0,0,12.9-2.46,2.67,2.67,0,0,1,3.29,2l.5,2.35c.58,2.69,1.16,5.45,1.84,8.19,1.24-.4,2.48-.83,3.69-1.26l1.64-.57c0-.9,0-1.81,0-2.71,0-4.46-3.05-57.57-4.7-73a2.68,2.68,0,1,1,5.33-.57c1.73,16.18,4.73,69,4.73,73.61,0,1.55,0,3.11,0,4.67a2.68,2.68,0,0,1-1.84,2.52c-1.13.37-2.25.76-3.37,1.15-2.15.75-4.37,1.52-6.65,2.14a2.67,2.67,0,0,1-3.28-1.87c-1-3.62-1.78-7.27-2.54-10.8-2.57.58-5.34,1.1-8.46,1.58v1.35c0,6.5-.63,9.43-2.42,11.2s-3.94,1.69-6.09,1.68h-.74a61.09,61.09,0,0,1-6.29-.43,55,55,0,0,0-5.75-.41c-6.37,0-6.92,1.14-10,11.59-.75,2.53-1.6,5.4-2.73,8.78A2.67,2.67,0,0,1,362,276.7Zm60-30.34h0Z"/><path class="cls-3" d="M408.88,172.19c-7.47,0-7.47-8.11-7.47-11.57,0-1.37.08-2.69.16-4.15A2.68,2.68,0,0,1,404,154c10.1-1.1,19.71-2.83,29.9-4.66,4.33-.77,8.69-1.56,13.11-2.3,4.24-.7,10.17-1.12,16.45-1.57,4.47-.32,9.09-.65,13-1.08a2.66,2.66,0,0,1,3,2.63v4.5c0,3.15,0,6.83.29,10.43a2.67,2.67,0,0,1-2.48,2.87c-30.19,2.14-67.6,7.32-68,7.38ZM406.8,159c0,.52,0,1.05,0,1.58,0,5.84,1,6.19,1.93,6.21,2.89-.39,36.78-5,65.5-7.19-.13-2.87-.15-5.67-.15-8.15V150c-3.28.31-6.82.56-10.27.8-6.15.44-12,.85-15.94,1.52-4.41.73-8.75,1.51-13.06,2.29C425.28,156.3,416.25,157.92,406.8,159Z"/><path class="cls-3" d="M553.62,310.05a2.71,2.71,0,0,1-1.67-.58c-9.71-7.77-18.21-27.68-21.77-43.57-2.62.42-5.25.75-7.81,1.08-1.91.25-3.83.49-5.75.77a2.67,2.67,0,0,1-3-2.42l-.25-2.89c-.27-3.13-.55-6.34-.74-9.55-3.57.45-7.47.74-11.94.88,0,.26,0,.52,0,.77,0,8-6,10.89-10.11,10.89h-2.3c-13.49,0-15.31-5.23-21-101.59a2.67,2.67,0,0,1,2.52-2.83,2.71,2.71,0,0,1,2.83,2.51c2.64,44.91,4.71,73.44,7.5,86.4,2.19,10.24,3.9,10.21,9,10.15l1.45,0c.48,0,4.76-.15,4.76-5.53,0-.87-.06-1.77-.12-2.67l0-.55a2.67,2.67,0,0,1,2.63-2.84,116.29,116.29,0,0,0,16.89-1.31,2.62,2.62,0,0,1,2.12.57,2.65,2.65,0,0,1,1,2c.17,4.07.53,8.24.88,12.28,1-.05,2-.18,3-.31,3.33-.43,6.78-.87,10.1-1.48a2.68,2.68,0,0,1,3.12,2.12c3,15.53,11.48,35.84,20.39,43a2.68,2.68,0,0,1-1.68,4.77Z"/><path class="cls-3" d="M442.22,211.78a2.64,2.64,0,0,1-1.63-.56,2.69,2.69,0,0,1-1-1.84c-.3-2.9-.74-7.62-.74-8.77,0-.12.35-12.13,5.88-12.64,4.05-.39,6.54,4.78,9.22,19a2.68,2.68,0,0,1-2.06,3.12c-2.89.62-5.78,1.1-9.22,1.64A3,3,0,0,1,442.22,211.78Zm2.95-17.09a21.9,21.9,0,0,0-1,5.92c0,.46.17,2.65.43,5.4,1.23-.2,2.4-.41,3.54-.62A55.38,55.38,0,0,0,445.17,194.69Z"/><path class="cls-3" d="M410.25,158.19a2.6,2.6,0,0,1-.4,0,2.69,2.69,0,0,1-2.26-3c1.12-7.46,4.89-21.38,9.4-34.64,8.37-24.6,11.33-24.6,13.29-24.6a3.2,3.2,0,0,1,2,.75c22.19,20.34,29,33.31,34.05,42.79,1.14,2.14,2.21,4.17,3.33,6a2.68,2.68,0,0,1-4.6,2.75c-1.19-2-2.29-4.08-3.46-6.29-5-9.38-11.11-21-31.26-39.79-4.56,7.09-15.35,39.95-17.41,53.78A2.68,2.68,0,0,1,410.25,158.19Z"/><path class="cls-3" d="M417.56,168.72a2.69,2.69,0,0,1-2.23-1.19,8.55,8.55,0,0,1-1.33-4.71,2.68,2.68,0,0,1,5.36,0,3.25,3.25,0,0,0,.43,1.73,2.69,2.69,0,0,1-.74,3.72A2.73,2.73,0,0,1,417.56,168.72Z"/><path class="cls-3" d="M437.46,166.09A2.68,2.68,0,0,1,435,164.4c-.12-.29-.25-.59-.39-.89a11.54,11.54,0,0,1-1.27-4.78,2.68,2.68,0,0,1,5.36,0,6.77,6.77,0,0,0,.81,2.6c.16.36.32.72.46,1.08a2.67,2.67,0,0,1-1.49,3.48A2.47,2.47,0,0,1,437.46,166.09Z"/><path class="cls-3" d="M460,165.21a2.68,2.68,0,0,1-2.4-1.48,21,21,0,0,1-1.71-6.66,2.68,2.68,0,1,1,5.3-.77,17.12,17.12,0,0,0,1.2,5,2.68,2.68,0,0,1-1.19,3.59A2.62,2.62,0,0,1,460,165.21Z"/><path class="cls-3" d="M334.47,253.1c-3.22,0-7.63,0-18.28-55.78-5.55-29-10.54-61.66-12.43-74.34a2.68,2.68,0,0,1,5.3-.79c13.72,92.17,22.63,122.08,25.92,125.56,1.6,0,3.22,0,4.82-.06.23-3.41.58-6.73.95-10.2a190.75,190.75,0,0,0,1.4-21.2c0-7.69-.83-20.29-1.63-32.48-.68-10.46-1.33-20.35-1.33-25.59,0-2.76.1-5.27.31-7.69a2.67,2.67,0,0,1,5.33.45c-.19,2.27-.28,4.63-.28,7.24,0,5.07.64,14.87,1.32,25.24.8,12.27,1.63,25,1.63,32.83a196.22,196.22,0,0,1-1.42,21.76c-.45,4.22-.87,8.19-1.08,12.34a2.67,2.67,0,0,1-2.5,2.53C339.82,253.1,337.1,253.1,334.47,253.1Z"/><path class="cls-3" d="M332.44,153.59a2.67,2.67,0,0,1-2.67-2.47c-.13-1.67-.25-3.34-.37-5-.2-2.78-.4-5.57-.64-8.35a2.7,2.7,0,0,1,.64-2,2.74,2.74,0,0,1,1.87-.92c7.84-.47,15.83-.82,23.56-1.16,9.31-.4,18.94-.83,28.36-1.46a2.66,2.66,0,0,1,2.85,2.43c.45,5,.95,9,1.57,12.79a2.67,2.67,0,0,1-2.33,3.09c-27.35,3.17-30.23,3.11-37.19,3C344.79,153.44,340.67,153.36,332.44,153.59Zm9.61-5.51c2.54,0,4.45,0,6.15.07,6.46.13,9.26.2,33.7-2.61-.35-2.41-.66-5-.95-7.79-8.64.54-17.39.92-25.88,1.3-6.82.3-13.83.6-20.75,1,.15,1.89.28,3.78.42,5.68l.18,2.45C337.79,148.1,340.11,148.08,342.05,148.08Z"/><path class="cls-3" d="M398.67,238.79a2.69,2.69,0,0,1-2.49-1.69c-7.27-18.19-15.48-50.3-17.37-59.43-.9-4.32-1.59-8.48-2.26-12.5-.9-5.38-1.74-10.45-3-15.65a2.68,2.68,0,0,1,5.21-1.27c1.31,5.39,2.17,10.56,3.08,16,.66,4,1.35,8.09,2.22,12.3,1.87,9,9.95,40.64,17.11,58.53a2.67,2.67,0,0,1-1.49,3.48A2.74,2.74,0,0,1,398.67,238.79Z"/><path class="cls-3" d="M358.17,214.22a2.69,2.69,0,0,1-2.64-2.2l-.29-1.58a48.42,48.42,0,0,1-1.15-9.11c0-5.06,1.58-10.47,6-10.47,6.22,0,7.14,7.43,8,14.61.18,1.5.37,3,.61,4.53a2.67,2.67,0,0,1-2.34,3.08c-1.85.21-3.68.49-5.53.76l-2.33.35Zm2.21-17.93a11.84,11.84,0,0,0-.93,5,40.51,40.51,0,0,0,.87,7.18l2.75-.4c-.09-.66-.17-1.33-.25-2C362.42,202.88,361.7,197,360.38,196.29Z"/><path class="cls-3" d="M338.51,138.78a3.73,3.73,0,0,1-.47,0,2.68,2.68,0,0,1-2.17-3.11c1.32-7.52,4.68-18.26,9-28.74,7.2-17.6,9.72-17.6,11.23-17.6,7.52,0,10.1,9.94,13.1,21.45,2.13,8.16,4.54,17.42,8.81,23.48a2.68,2.68,0,1,1-4.37,3.09c-4.84-6.86-7.38-16.61-9.62-25.22-2-7.61-4.21-16.17-7.23-17.31-3.36,4.14-13,27.13-15.63,41.78A2.68,2.68,0,0,1,338.51,138.78Z"/><path class="cls-3" d="M344.2,151.36a2.68,2.68,0,0,1-2.4-1.48,8.17,8.17,0,0,1-.72-2.85,4.2,4.2,0,0,0-.18-1,2.68,2.68,0,1,1,4.79-2.4,7.9,7.9,0,0,1,.72,2.85,4.73,4.73,0,0,0,.18,1,2.69,2.69,0,0,1-1.19,3.6A2.74,2.74,0,0,1,344.2,151.36Z"/><path class="cls-3" d="M359.2,151.67a2.73,2.73,0,0,1-2.17-1.08,6.36,6.36,0,0,1-1.11-3,3.06,3.06,0,0,0-.14-.66,2.68,2.68,0,1,1,3.79-3.79,6,6,0,0,1,1.64,3.59,4.76,4.76,0,0,0,.13.63,2.65,2.65,0,0,1-.55,3.73A2.6,2.6,0,0,1,359.2,151.67Z"/><path class="cls-3" d="M370.86,150.16a2.68,2.68,0,0,1-2.6-2,17.42,17.42,0,0,1-.36-2.12,13,13,0,0,0-.24-1.48,2.68,2.68,0,0,1,5.2-1.29,17,17,0,0,1,.36,2.11,10.86,10.86,0,0,0,.24,1.48,2.69,2.69,0,0,1-1.95,3.25A2.46,2.46,0,0,1,370.86,150.16Z"/><path class="cls-3" d="M275.48,174.69a2.66,2.66,0,0,1-2.59-2,43.4,43.4,0,0,1-1.41-10.37c0-2.66,2.22-15.3,8.51-15.93,5.08-.53,8.64,6.17,11.89,22.31a2.68,2.68,0,0,1-2.18,3.17l-2.61.42a69.59,69.59,0,0,0-10.77,2.29A2.72,2.72,0,0,1,275.48,174.69Zm5-22.91c-1.46,1.07-3.62,7.24-3.62,10.52a35.12,35.12,0,0,0,.64,6.35c2.86-.73,5.75-1.19,8.58-1.64C283.36,154.79,281.08,152.27,280.46,151.78Z"/><path class="cls-3" d="M244.74,282.27a2.68,2.68,0,0,1-2.68-2.56q-.09-2.18-.09-4.35a2.28,2.28,0,0,1,0-.45c.08-.5,8.47-50.45,8.47-127.66,0-6.59-.12-12.09-.38-17.3a2.68,2.68,0,0,1,5.35-.26c.26,5.3.39,10.88.39,17.56,0,75-7.89,124.53-8.51,128.33,0,1.3,0,2.59.09,3.9a2.69,2.69,0,0,1-2.57,2.79Z"/><path class="cls-3" d="M246.25,133.06a2.67,2.67,0,0,1-2.62-2.17l-.46-2.33c-.89-4.5-1.81-9.15-2.44-13.77a2.68,2.68,0,0,1,2.14-3c22.54-4.41,46.45-7,65.6-7,2.79,0,6.55.09,8.27.12h.47a2.68,2.68,0,0,1,2.6,2.41c.44,4.26,1,8.43,1.63,12.42a2.67,2.67,0,0,1-2,3c-11.23,2.6-51.52,8.62-72.95,10.2Zm.16-16.49c.57,3.66,1.3,7.35,2,11,20.27-1.68,54.25-6.7,67.34-9.36-.38-2.57-.72-5.2-1-7.87-1.86,0-4.31-.08-6.27-.08C290.36,110.21,267.88,112.52,246.41,116.57Z"/><path class="cls-3" d="M253.73,130.09a2.56,2.56,0,0,1-.39,0,2.67,2.67,0,0,1-2.26-3,4.64,4.64,0,0,0,0-.65c0-.38,0-.78-.05-1.17s-.06-1-.06-1.54a8.26,8.26,0,0,1,1-4.18,2.68,2.68,0,0,1,4.65,2.66,3,3,0,0,0-.29,1.52c0,.4,0,.81.05,1.21s.06,1,.06,1.5a11.16,11.16,0,0,1-.09,1.42A2.69,2.69,0,0,1,253.73,130.09Z"/><path class="cls-3" d="M273.5,126.79a2.67,2.67,0,0,1-2.68-2.67,47.11,47.11,0,0,0-.27-6.22,2.68,2.68,0,1,1,5.3-.75,49.86,49.86,0,0,1,.33,7A2.67,2.67,0,0,1,273.5,126.79Z"/><path class="cls-3" d="M288.47,126.5a2.69,2.69,0,0,1-2.57-2l-.33-1.13a35.88,35.88,0,0,1-1.24-5.22,2.68,2.68,0,1,1,5.3-.75,32.41,32.41,0,0,0,1.08,4.46l.34,1.17a2.7,2.7,0,0,1-2.58,3.42Z"/><path class="cls-3" d="M306.15,123.5a2.69,2.69,0,0,1-2.23-1.19,12.65,12.65,0,0,1-1.62-4,10.75,10.75,0,0,0-.64-1.94,2.68,2.68,0,1,1,4.79-2.4,16,16,0,0,1,1,3,8,8,0,0,0,.9,2.43,2.69,2.69,0,0,1-.74,3.72A2.73,2.73,0,0,1,306.15,123.5Z"/><path class="cls-3" d="M255.23,114.24H255a2.7,2.7,0,0,1-2.48-2.89c.21-2.87,6-16.75,11.4-27.5,11.37-22.47,17.29-25.07,20.75-25.07,4.5,0,5.77,3.51,10,15.15,2.33,6.43,5.85,16.14,11.47,29.88a2.68,2.68,0,1,1-5,2C295.54,92,292,82.21,289.65,75.74c-2.24-6.17-4-11-4.94-11.64-6.74,0-25.94,41.49-26.82,47.68A2.66,2.66,0,0,1,255.23,114.24Z"/><path class="cls-3" d="M290.62,281a2.7,2.7,0,0,1-1.2-.28,13.9,13.9,0,0,0-6.45-1.13c-2.61,0-7.47-.07-7.47-5.75,0-4.26,2.76-6.79,4.77-8.64.29-.26.64-.58,1-.89h-.51c-5.62,0-11.34,2.15-17,6.39a2.68,2.68,0,1,1-3.21-4.28c6.6-4.95,13.39-7.46,20.2-7.46,4.4,0,6.63,1.52,6.63,4.52,0,2.51-1.83,4.19-3.44,5.67-1.9,1.74-3,2.92-3,4.7a2.19,2.19,0,0,0,0,.29,19.05,19.05,0,0,0,2.15.1,19.09,19.09,0,0,1,8.8,1.69,2.68,2.68,0,0,1-1.2,5.08Z"/><path class="cls-3" d="M19.16,368a2.68,2.68,0,0,1-2.08-4.36C22.16,357.3,49.47,336,55.64,336c5,0,8.89,5.3,13,10.91a65.92,65.92,0,0,0,5,6.37c12.89-12.06,17.39-14.12,20.65-13.49,2.61.51,3.62,2.7,4.28,4.15.75,1.63.88,1.63,1.35,1.63,2.46-.08,6.15-3.12,9.12-5.56,3.42-2.82,6.38-5.25,9.25-5.25a15.72,15.72,0,0,1,2.59.42,97,97,0,0,0,10.69,1.6,12.32,12.32,0,0,0,4.12-.65,2.68,2.68,0,0,1,1.77,5.05,17.41,17.41,0,0,1-5.89,1c-2.34,0-7.25-.88-11.67-1.7l-1.7-.31c-1.1.18-3.89,2.48-5.76,4-3.78,3.11-8.06,6.64-12.32,6.78h-.2c-4,0-5.45-3.08-6.21-4.74a10.52,10.52,0,0,0-.57-1.12c-1,.08-4.71,1.54-17.63,13.81a2.67,2.67,0,0,1-3.48.18c-2.75-2.12-5.29-5.61-7.75-9-2.83-3.88-6.35-8.71-8.66-8.71-3.73.57-28.82,18.74-34.39,25.64A2.68,2.68,0,0,1,19.16,368Z"/><path class="cls-3" d="M80.19,324.39a9,9,0,0,1-6.44-2.79,9.89,9.89,0,0,1-2.92-6.89,9.31,9.31,0,0,1,17.84-3.79,8.48,8.48,0,0,1,.9,4A9.25,9.25,0,0,1,80.19,324.39Zm0-13.69a4.18,4.18,0,0,0-4,4.07,4.6,4.6,0,0,0,1.37,3.07,3.83,3.83,0,0,0,2.63,1.2,3.92,3.92,0,0,0,4-4.15,3.18,3.18,0,0,0-.37-1.65A4.26,4.26,0,0,0,80.19,310.7Z"/><path class="cls-3" d="M133.67,380.83a9,9,0,0,1-6.44-2.79,9.91,9.91,0,0,1-2.92-6.89,9.31,9.31,0,0,1,17.84-3.79,8.48,8.48,0,0,1,.9,4A9.25,9.25,0,0,1,133.67,380.83Zm0-13.69a4.18,4.18,0,0,0-4,4.06,4.58,4.58,0,0,0,1.37,3.07,3.78,3.78,0,0,0,2.63,1.2,3.91,3.91,0,0,0,4-4.14,3.21,3.21,0,0,0-.37-1.65A4.26,4.26,0,0,0,133.67,367.14Z"/><path class="cls-3" d="M174,500.66a2.68,2.68,0,0,1-1.3-5c1.47-.82,3-1.74,4.49-2.67,5.63-3.45,12-7.36,18.91-7.36s9.74,3.47,11.79,6c1.61,2,2.41,2.88,4.43,2.88,2.5,0,11.36-5.06,17.23-8.41,8.51-4.86,12.21-6.84,14.46-6.84,4,0,6.08,3.32,7.59,5.75,1.2,1.92,2.05,3.17,2.94,3.17a13.35,13.35,0,0,0,2.24-1.12c2.24-1.25,5.3-3,9-3a11,11,0,0,1,7.85,3.31c1.39,1.22,2.13,1.81,3.68,1.81a16.32,16.32,0,0,0,5.62-1.58c1-.42,2.12-.85,3.21-1.19a2.68,2.68,0,0,1,1.58,5.12c-.87.27-1.8.64-2.79,1a20.65,20.65,0,0,1-7.62,2c-3.63,0-5.61-1.73-7.21-3.12-1.37-1.2-2.28-2-4.32-2-2.31,0-4.48,1.22-6.39,2.29-1.73,1-3.22,1.81-4.86,1.81-3.92,0-6-3.29-7.48-5.69-1.22-2-2.09-3.24-3-3.24-1.39.19-7.41,3.63-11.81,6.14-9.63,5.51-16.23,9.11-19.88,9.11-4.67,0-6.85-2.7-8.6-4.87s-3.25-4-7.62-4c-5.38,0-10.84,3.35-16.11,6.58-1.6,1-3.16,1.93-4.69,2.78A2.66,2.66,0,0,1,174,500.66Z"/><path class="cls-3" d="M517.67,453.05a2.69,2.69,0,0,1-2.67-2.52c-.09-1.46-.14-3-.14-4.62,0-4.73.4-9.49.78-14.09s.75-9.09.75-13.54c0-11.65-.77-11.65-5.75-11.65-1.3,0-2.71.1-4.07.19a2.83,2.83,0,0,1-2.1-.73,2.74,2.74,0,0,1-.88-2,80.6,80.6,0,0,1,1.26-11.33,60.12,60.12,0,0,0,1.08-10.05c0-11.56-9.12-24-23.86-24-25.23,0-39.54,23.22-48.09,37.09L433.2,397a2.66,2.66,0,0,1-3.74.83,138.63,138.63,0,0,1-13.14-9.77,59.07,59.07,0,0,0-6.35-4.79,2.68,2.68,0,0,1-1.24-2.57,49.73,49.73,0,0,0,.3-5.41,39.82,39.82,0,0,0-.7-7.64c-7,7.22-13.91,15.06-20.69,23.39a25.5,25.5,0,0,0,10.71-1.67,2.69,2.69,0,0,1,2.61.35,83.12,83.12,0,0,0,17,9.6c9.26,4.18,16.57,7.48,16.57,22.29,0,2.3-.19,4.54-.37,6.7s-.35,4.11-.35,6.11a26.13,26.13,0,0,0,.3,4.12,2.68,2.68,0,0,1-5.29.84,30.71,30.71,0,0,1-.37-5c0-2.23.19-4.43.37-6.56s.35-4.18.35-6.25c0-11.36-4.2-13.25-13.41-17.41a91.24,91.24,0,0,1-16.87-9.33,33.2,33.2,0,0,1-16.89.86,2.67,2.67,0,0,1-1.58-4.29,373.24,373.24,0,0,1,27.36-30.91,2.68,2.68,0,0,1,4.43,1,42.39,42.39,0,0,1,2.15,13.74c0,1.43-.06,2.89-.18,4.35,1.87,1.29,3.59,2.7,5.52,4.29,2.59,2.13,5.74,4.72,10.38,7.89,9.2-14.92,24.43-38.52,52-38.52,18,0,29.21,15.25,29.21,29.39a66.15,66.15,0,0,1-1.14,10.91c-.4,2.45-.81,5-1,7.69l1.54,0c10.1,0,11.1,4.92,11.1,17,0,4.67-.39,9.4-.77,14s-.75,9.14-.75,13.65c0,1.49,0,2.93.12,4.29a2.67,2.67,0,0,1-2.5,2.84Z"/><path class="cls-3" d="M491.62,402.47h-.2c-6.11-.44-12.24-1.09-18.17-1.72-8.25-.87-16.77-1.78-25.23-2.1a2.67,2.67,0,0,1-2.33-3.79c9.48-20.68,26.24-28,37.71-28,5.52,0,12,4.61,12,17.6,0,2-.32,8.69-1.08,15.65A2.68,2.68,0,0,1,491.62,402.47Zm-39.26-9c7.25.42,14.45,1.19,21.46,1.94,5,.53,10.22,1.08,15.4,1.5.54-5.71.78-10.87.78-12.49,0-9-3.56-12.24-6.6-12.24C474.19,372.19,460.94,377.85,452.36,393.48Z"/><path class="cls-3" d="M479.51,465.77c-5.61,0-6.95-5.26-7.92-9.1-1.23-4.86-2-6.38-4.5-6.38-2.28,0-5.32,2-7.77,3.53s-4.62,3-6.67,3c-4.15,0-7.89-4.72-11.41-14.42-5.17.75-9.9,4.49-14.5,8.13-.9.71-1.79,1.41-2.67,2.08a2.68,2.68,0,1,1-3.24-4.26c.85-.65,1.71-1.33,2.59-2,5.58-4.41,11.91-9.41,19.66-9.41a2.87,2.87,0,0,1,2.7,2.25c4,11.56,6.84,12.3,6.87,12.3a19.62,19.62,0,0,0,3.78-2.11c3-1.95,6.81-4.37,10.66-4.37,7.05,0,8.64,6.27,9.69,10.41s1.57,5.06,2.73,5.06c1.13-.34,4.45-4.37,6.65-7,4.69-5.71,9.12-11.09,13.74-11.09,4.24,0,5.43,3.39,6.06,5.2a6.57,6.57,0,0,0,.66,1.52h.2a3.86,3.86,0,0,0,1.49-.55,10.49,10.49,0,0,1,5-1.36,22.74,22.74,0,0,1,4.58.59,19.27,19.27,0,0,0,3.54.47c2.06,0,5.83-1.63,11.19-4.84a2.68,2.68,0,1,1,2.75,4.59c-4.35,2.61-9.87,5.61-13.94,5.61a22.85,22.85,0,0,1-4.58-.58,18.39,18.39,0,0,0-3.54-.48,5.35,5.35,0,0,0-2.63.79,8.32,8.32,0,0,1-3.88,1.12c-4.12,0-5.28-3.33-5.91-5.11a5.75,5.75,0,0,0-.71-1.59.82.82,0,0,0-.3,0c-2.09,0-6.79,5.72-9.6,9.14C485.57,462.52,482.73,465.77,479.51,465.77Z"/><path class="cls-3" d="M164.28,318.15a11.76,11.76,0,0,1-11.59-11.56,11.34,11.34,0,0,1,4.13-8.76,11.5,11.5,0,0,1,4.33-2.33,12.51,12.51,0,0,1,3.23-.43c6.25,0,11.22,4.45,11.59,10.31a12.47,12.47,0,0,1-3.4,9.14A11.35,11.35,0,0,1,164.28,318.15Zm.09-17.72a6.94,6.94,0,0,0-1.82.24,6.33,6.33,0,0,0-2.32,1.29,6,6,0,0,0-2.18,4.64,6.38,6.38,0,0,0,6.18,6.19,6.05,6.05,0,0,0,4.45-2,6.93,6.93,0,0,0,1.94-5.11C170.44,302.71,167.75,300.44,164.37,300.43Z"/><path class="cls-3" d="M198.46,398.65a2.67,2.67,0,0,1-.88-.15c-17.92-6.22-21.36-19.11-30.54-53.57-1.24-4.66-2.59-9.74-4.11-15.29-13-.5-22.06-9.94-22.19-23.19a24,24,0,0,1,21.82-24,22.59,22.59,0,0,1,2.6-.09c12.68.26,22.39,10.14,22.58,23a24,24,0,0,1-7,17.42c4.57,9.62,23.61,50.6,23.61,64.39,0,3.88-1.87,7.19-3.52,10.11A2.68,2.68,0,0,1,198.46,398.65ZM165,324.28a2.69,2.69,0,0,1,2.58,2c1.74,6.33,3.27,12.08,4.66,17.3,8.69,32.63,11.6,43.56,25,49.1a12.22,12.22,0,0,0,1.73-5.47c0-11.67-17.2-49.89-23.94-63.87l-.08-.16a2.68,2.68,0,0,1,1.24-3.58l.24-.1a18.57,18.57,0,0,0,6-14,17.57,17.57,0,0,0-17.33-17.7,19.29,19.29,0,0,0-2,.07,18.87,18.87,0,0,0-16.94,18.57c.1,10.59,7.19,17.79,17.64,17.92l1.12,0Z"/><path class="cls-3" d="M170.71,413.28a2.68,2.68,0,0,1-2.38-1.45c-3.29-6.36-6.39-12.69-9.19-18.8a2.69,2.69,0,0,1,.62-3.1,81.1,81.1,0,0,1,19.58-13.09,2.67,2.67,0,1,1,2.32,4.82,76.08,76.08,0,0,0-16.82,10.93c2.54,5.48,5.31,11.11,8.25,16.78a2.68,2.68,0,0,1-1.15,3.61A2.75,2.75,0,0,1,170.71,413.28Z"/><path class="cls-3" d="M228,396.35a2.68,2.68,0,0,1-2.19-1.14c-4.27-6.08-7.12-13.79-8.47-22.94a116.93,116.93,0,0,0-18.17,3.1,2.68,2.68,0,0,1-1.32-5.19,123.4,123.4,0,0,1,21.62-3.46,2.67,2.67,0,0,1,2.86,2.37c1.07,9.38,3.72,17.14,7.86,23a2.68,2.68,0,0,1-2.19,4.22Z"/><path class="cls-3" d="M155.32,414.83c-8.75,0-10.59-3.24-10.59-6,0-3.44,8.16-11.44,16.8-16.46a2.68,2.68,0,0,1,2.69,4.63c-7.47,4.34-12.47,9.72-13.87,11.78a12.91,12.91,0,0,0,5,.65c19.07,0,78.32-13.65,78.32-25.69,0-2.84-6.55-4.63-12.89-4.71a2.68,2.68,0,1,1,.08-5.36c8.78.12,18.17,2.83,18.17,10.07C239,403.25,168,414.83,155.32,414.83Z"/><path class="cls-3" d="M162.29,425.54c-11.61,0-17.07-12.41-17.3-12.94a2.68,2.68,0,0,1,4.92-2.12c.06.13,4.33,9.7,12.38,9.7,8.93,0,29-4.11,45.7-9.36,23.72-7.46,30.74-13.7,31.26-16.46a93.72,93.72,0,0,1-3.15-12.72,2.68,2.68,0,0,1,5.3-.82,91.23,91.23,0,0,0,3.1,12.37,2.69,2.69,0,0,1,.14.84C244.64,410.61,177.45,425.54,162.29,425.54Z"/><path class="cls-3" d="M183.58,492.88a2.66,2.66,0,0,1-2.34-1.38c-1.7-3.05-4.33-11.8-8.49-25.83-4.6-15.53-10.9-36.81-14-40.28a2.68,2.68,0,0,1,4-3.58c3.65,4.05,8.59,20.11,15.18,42.34,3.21,10.84,6.53,22.06,8,24.75a2.68,2.68,0,0,1-2.34,4Z"/><path class="cls-3" d="M261.38,489.77a2.68,2.68,0,0,1-2.55-1.87c-13.79-43.33-21.07-72-21.07-83a54.81,54.81,0,0,1,.4-5.82l.1-1a2.68,2.68,0,0,1,5.33.53l-.1,1a49.89,49.89,0,0,0-.38,5.27c0,6,2.71,24.49,20.83,81.43a2.67,2.67,0,0,1-1.74,3.36A2.6,2.6,0,0,1,261.38,489.77Z"/><path class="cls-3" d="M145,427.19c-5.76,0-9.34-2.9-9.34-7.57,0-4.16,3.22-8.41,6.39-8.41.24,0,.52,0,.76.05a2.72,2.72,0,0,1,2.72,2.69,2.65,2.65,0,0,1-2.64,2.68l-.48,0a4.35,4.35,0,0,0-1.39,3c0,1.47,1.34,2.22,4,2.22h1.21c.31,0,1.24-.81,1.24-3.05a2.68,2.68,0,1,1,5.35,0c0,5.46-3.4,8.4-6.59,8.4Z"/><path class="cls-3" d="M246.88,398.15a2.68,2.68,0,0,1,0-5.35c1.75,0,2.28-.52,2.28-2.21,0-.84-2.48-2.31-3.9-2.31a2.71,2.71,0,0,0-2.34,1.12,2.68,2.68,0,1,1-4.59-2.76,7.93,7.93,0,0,1,6.93-3.71c3.68,0,9.25,3.05,9.25,7.66S251.59,398.15,246.88,398.15Z"/><path class="cls-3" d="M186,475.32c-25.46,0-31.56-18.85-36.94-35.49-1.4-4.33-2.73-8.42-4.35-12.14a2.68,2.68,0,0,1,4.92-2.14c1.72,4,3.15,8.37,4.52,12.63C159.42,454.53,164.41,470,186,470c48.23,0,68.24-38,68.24-58.35a50.92,50.92,0,0,0-1.56-10.73c-.55-2.5-1.11-5.09-1.43-7.72a2.68,2.68,0,0,1,5.32-.64c.29,2.38.8,4.73,1.34,7.22a55.34,55.34,0,0,1,1.69,11.87C259.58,433.83,238,475.32,186,475.32Z"/><path class="cls-3" d="M35,314.62a19.28,19.28,0,0,1-6.07-1,9.62,9.62,0,0,1-6.35-6.25,11.2,11.2,0,0,1,.23-7c1.1-3.09,3.48-5.53,5.58-7.68a19.83,19.83,0,0,0,3.47-4.2c-2-.28-4-.64-6-1-2.13-.38-4.34-.77-6.49-1a2.68,2.68,0,0,1-2.23-3.4q.81-2.81,1.6-5.61c.74-2.64,1.49-5.29,2.27-7.93a2.68,2.68,0,0,1,4.3-1.28,22.87,22.87,0,0,0,5.91,3.86c6.1,2.18,10.92-2.66,11.46-4.17a10.62,10.62,0,0,0,.53-5.41c-.45-2.2-1.69-2.64-2.09-2.78s-.4-.07-.56.09c-4.22,4.36-8.82,3.2-13.54,1.51l-1.71-.65a2.69,2.69,0,0,1-1.63-3.09c1.56-6.74,2.87-12.2,4.12-17.19a2.67,2.67,0,0,1,3.75-1.77c.95.46,1.9.94,2.85,1.43a45.17,45.17,0,0,0,5.36,2.49,11.23,11.23,0,0,0,6.1.54c0-.32-.08-.68-.12-1-.31-2.54-.74-6,.15-8.53a8.41,8.41,0,0,1,6.2-5.24,13.86,13.86,0,0,1,7.77.44c6.26,2.25,9,6.87,7.14,12.07a14,14,0,0,1-2.79,4.38,7.09,7.09,0,0,0-1.27,1.76,1.81,1.81,0,0,0,.51,1.32,7.28,7.28,0,0,0,3.48,2.34,34.93,34.93,0,0,0,8.16,1.61,2.65,2.65,0,0,1,2.07,1.31,2.72,2.72,0,0,1,.13,2.45c-.7,1.57-1.48,3.12-2.25,4.69a70,70,0,0,0-3.42,7.58A29,29,0,0,0,70.23,274c.22.09.45.19.68.27.85.3,1.92-.15,3.74-1,2.75-1.28,6.53-3,11.57-1.22A8.57,8.57,0,0,1,92,277.57a12.19,12.19,0,0,1-.56,7.72,15.22,15.22,0,0,1-6.3,7.69,11.38,11.38,0,0,1-9.92,1.32A12.28,12.28,0,0,1,70,290.4a6.14,6.14,0,0,0-2-1.74,1,1,0,0,0-.42-.05c-.29,1-.85,3.62-1.9,10.12a2.66,2.66,0,0,1-1.23,1.85,2.62,2.62,0,0,1-2.2.28c-3.21-1-6.51-1.9-9.7-2.78-2.51-.69-5.09-1.4-7.66-2.15a22.88,22.88,0,0,0,0,4.76c.16,2.68.35,5.71-.72,8.69s-3.89,4.87-7.92,5.19C35.85,314.61,35.4,314.62,35,314.62ZM23.1,281.68c1.24.2,2.46.42,3.66.64,2.93.52,5.69,1,8.5,1.28a2.68,2.68,0,0,1,2.43,2.67,11.06,11.06,0,0,1-.63,3.65c-.9,2.52-2.92,4.59-4.88,6.6-1.8,1.85-3.65,3.75-4.37,5.74a5.8,5.8,0,0,0-.15,3.55,4.42,4.42,0,0,0,3,2.81,14.51,14.51,0,0,0,5.16.61c1.86-.15,3-.7,3.31-1.66.7-1.94.56-4.17.41-6.54-.17-2.71-.34-5.51.66-8.31a11.64,11.64,0,0,1,.56-1.32A2.67,2.67,0,0,1,44,290c3.32,1,6.73,2,10,2.88,2.27.63,4.6,1.27,6.92,1.94a61.64,61.64,0,0,1,1.74-8.34,4.92,4.92,0,0,1,3.41-3.06,6.43,6.43,0,0,1,3.76.16A10.18,10.18,0,0,1,74,286.84a7.47,7.47,0,0,0,3,2.41,6.31,6.31,0,0,0,5.32-.83,10,10,0,0,0,4.06-4.94,7.27,7.27,0,0,0,.49-4.32c-.19-.59-.64-1.46-2.43-2.1-3-1.06-5.07-.09-7.51,1-2.27,1-4.84,2.23-7.8,1.18-.38-.14-.76-.31-1.14-.47s-.53-.23-.8-.33c-3.11-1.11-2.28-5.34-2-6.93a38.52,38.52,0,0,1,1.36-5,75.24,75.24,0,0,1,3.66-8.16l.6-1.22a34.12,34.12,0,0,1-5.72-1.41,12.76,12.76,0,0,1-6-4.18,6.75,6.75,0,0,1-1.27-6.32,11.27,11.27,0,0,1,2.25-3.45,8.83,8.83,0,0,0,1.81-2.7c.33-.93,1.22-3.38-3.89-5.21a8.42,8.42,0,0,0-4.67-.29,3.25,3.25,0,0,0-2.45,1.85c-.47,1.3-.1,4.28.12,6.06s.35,2.87,0,3.8c-1.34,3.74-7.87,4.24-13.13,2.36A47.66,47.66,0,0,1,32.16,245c-.86,3.48-1.76,7.25-2.76,11.55,4.18,1.44,5.6,1.33,7.29-.41a5.68,5.68,0,0,1,6.2-1.41,8.64,8.64,0,0,1,5.54,6.75,16,16,0,0,1-.73,8.3c-1.51,4.2-9.34,10.61-18.32,7.4A19.69,19.69,0,0,1,25,274.89c-.39,1.36-.77,2.73-1.16,4.1C23.61,279.89,23.36,280.78,23.1,281.68ZM69,273.44Z"/><path class="cls-3" d="M112.47,239.63a2.67,2.67,0,0,1-2.06-4.38,73.07,73.07,0,0,1,7.35-7.37,67.38,67.38,0,0,0,6.82-6.8,2.67,2.67,0,1,1,4.13,3.4,73,73,0,0,1-7.34,7.37,66.56,66.56,0,0,0-6.83,6.81A2.67,2.67,0,0,1,112.47,239.63Z"/><path class="cls-3" d="M127.85,238.73a2.66,2.66,0,0,1-1.64-.57A111.54,111.54,0,0,1,110.77,224a2.67,2.67,0,1,1,4-3.54,107,107,0,0,0,14.72,13.52,2.68,2.68,0,0,1-1.65,4.8Z"/><path class="cls-1" d="M97.53,188.52c-4.91.79-9.79,1.77-14.71,2.55-4.77.76-10.09.94-14.59,2.66-3.81,1.46-5,8.08,0,9,10,1.78,22.51-.85,32.47-2.67C108.31,198.65,105,187.32,97.53,188.52Z"/><path class="cls-2" d="M135.23,140.11c-1.11,1.44-2.28,2.82-3.49,4.17-1.34-3.24-4.59-5.54-8.62-4.26-6.14,1.95-10.58,6.66-16.28,9.61a59.52,59.52,0,0,1-20.46,6c-13.44,1.47-26.91-2.59-39.2-7.6-2.17-.88-3.18,2.1-2,3.51A49.71,49.71,0,0,0,71,168.06c-1.58.15-3.18.33-4.78.56-3.47.5-3.39,5.38-.91,7,12,7.65,30.47,5.46,43.45,1.84a80.63,80.63,0,0,0,38.94-24.81C155.3,143.91,142.07,131.29,135.23,140.11Z"/><path class="cls-2" d="M112.07,188.65c-3.6-4.73-13.4-2.27-10.71,4.51.6,1.52,2.94,4.88,2.23,6.41-.86,1.85-6.13,2.5-8.13,3-6.26,1.59-12.89,2.32-19,4.45-2.51.88-3,5,0,5.65,5.22,1.06,10.74.76,16,.15s11.12-.85,15.86-3C116.51,206.17,117.09,195.24,112.07,188.65Z"/><path class="cls-3" d="M82.5,172.58c-1.19,0-2.38,0-3.58-.09C46.36,170.93,29.44,155.11,21,142.12a2.69,2.69,0,0,1,.21-3.2c19-22.37,44.45-34.51,70-33.27,33.93,1.63,46,20.72,53.27,32.12a2.66,2.66,0,0,1-.17,3.11C127.8,161.42,106,172.58,82.5,172.58ZM26.58,140.86c8.13,11.59,23.69,24.89,52.6,26.28,22.48,1.06,43.64-8.89,59.67-28.13-7.13-11.15-18.29-26.59-48-28C67.69,109.89,44.32,120.74,26.58,140.86Z"/><path class="cls-3" d="M64.06,208.52a2.67,2.67,0,0,1-2.64-2.27c-.83-5.37-1.37-10.77-1.82-15.42a2.69,2.69,0,0,1,2.27-2.9c11.62-1.73,24.29-2.91,39.88-3.72a2.68,2.68,0,0,1,2,.75,2.73,2.73,0,0,1,.81,2,126.42,126.42,0,0,0,.48,15.23,2.69,2.69,0,0,1-2.47,2.93c-12.23.88-28.78,2.2-38.17,3.4Zm1.12-15.65c.31,3.15.68,6.56,1.16,10,9-1,22.32-2.12,33.15-2.92-.24-3.28-.34-6.66-.32-10.24C86.15,190.45,75.21,191.46,65.18,192.87Z"/><path class="cls-3" d="M70.14,191.16a2.67,2.67,0,0,1-2.12-1c-.14-.19-14.87-19.09-18-22.56a2.68,2.68,0,0,1,4-3.6c3.33,3.67,18.13,22.68,18.28,22.87a2.68,2.68,0,0,1-.47,3.76A2.65,2.65,0,0,1,70.14,191.16Z"/><path class="cls-3" d="M83,188.07a2.67,2.67,0,0,1-2.62-2.16,59.39,59.39,0,0,1-1-15.4,2.68,2.68,0,0,1,5.35.25,54.26,54.26,0,0,0,.87,14.1,2.69,2.69,0,0,1-2.1,3.16A3.27,3.27,0,0,1,83,188.07Z"/><path class="cls-3" d="M97.16,189a2.76,2.76,0,0,1-1.21-.29,2.68,2.68,0,0,1-1.17-3.6c2.57-5.06,6.23-9.41,9.76-13.63a93,93,0,0,0,7.19-9.31,2.68,2.68,0,0,1,4.51,2.9,100.26,100.26,0,0,1-7.59,9.86c-3.5,4.16-6.8,8.1-9.1,12.6A2.68,2.68,0,0,1,97.16,189Z"/><path class="cls-3" d="M50.09,162.2a2.68,2.68,0,0,1-2.61-2.09,87.15,87.15,0,0,1-1.65-15.27c-.15-2.91-.29-5.93-.62-8.9a2.68,2.68,0,0,1,5.33-.58c.34,3.13.49,6.23.64,9.22a82.43,82.43,0,0,0,1.52,14.34,2.68,2.68,0,0,1-2,3.21A3.06,3.06,0,0,1,50.09,162.2Z"/><path class="cls-3" d="M82.81,167.36a2.67,2.67,0,0,1-2.67-2.47,189.91,189.91,0,0,0-4.43-30.57,2.68,2.68,0,1,1,5.21-1.25,195.73,195.73,0,0,1,4.57,31.41A2.69,2.69,0,0,1,83,167.36Z"/><path class="cls-3" d="M108.74,158c-1.38-7-2.82-14.14-2.45-21.71a2.68,2.68,0,1,1,5.35.26c-.33,6.91,1,13.45,2.35,20.38Z"/><path class="cls-3" d="M36.33,147.18a2.68,2.68,0,0,1-.31-5.34c10.51-1.24,23-2.42,35.71-1.81,1.41.07,2.81.16,4.22.27a2.68,2.68,0,0,1-.43,5.34c-1.35-.1-2.7-.19-4-.26-12.35-.59-24.53.57-34.82,1.78Z"/><path class="cls-3" d="M116,144.09c-1,0-2.08,0-3.13-.07a2.68,2.68,0,0,1,.26-5.35,107.91,107.91,0,0,0,15.63-.77c2.51-.25,5.1-.5,7.65-.66a2.68,2.68,0,0,1,.34,5.34c-2.46.16-4.89.4-7.46.65C125,143.65,120.55,144.09,116,144.09Z"/><path class="cls-3" d="M10,152.19H9.76C4.85,152,1.17,148.63,1,144.06a9.29,9.29,0,0,1,8.09-9.66,9.74,9.74,0,0,1,1.32,0,8.8,8.8,0,0,1,8.34,9.25A8.9,8.9,0,0,1,10,152.19Zm-.44-12.46a4,4,0,0,0-3.23,4.13c.06,1.74,1.46,2.91,3.57,3H10a3.54,3.54,0,0,0,3.37-3.44,3.42,3.42,0,0,0-3.29-3.67A3,3,0,0,0,9.58,139.73Z"/><path class="cls-3" d="M6.35,139.54A2.68,2.68,0,0,1,4,138.2c-2.72-4.69-4.22-10.1-4-14.47.34-7.09,5.68-11.6,9.2-11.6H9.4a4.29,4.29,0,0,1,1,.19c3.07.14,5.2,2.87,6.32,8.11a38.52,38.52,0,0,1,.82,8.77,40.92,40.92,0,0,1-1.26,7.71,2.68,2.68,0,0,1-5.08-1.71,36.67,36.67,0,0,0,1-6.26c.18-3.77-.94-10.23-2.2-11.28a5,5,0,0,1-.84-.14c-1,.35-3.6,2.37-3.8,6.47s1.58,8.56,3.3,11.53a2.68,2.68,0,0,1-2.32,4Z"/><path class="cls-3" d="M12.15,172.26h-.24c-6.57-.31-9.71-6.67-9.41-12.79a33,33,0,0,1,.82-5.37A32.75,32.75,0,0,0,4,150.2a2.68,2.68,0,0,1,5.33.51,37.63,37.63,0,0,1-.77,4.5,28.46,28.46,0,0,0-.71,4.51c-.14,2.8.91,7,4.32,7.18.44-.06,1.81-1.29,2-4.71.24-5-.65-6.8-3-11.61l-.18-.36a2.68,2.68,0,1,1,4.8-2.37l.18.36c2.51,5.06,3.89,7.85,3.58,14.24a12.27,12.27,0,0,1-2.41,7.22A6.54,6.54,0,0,1,12.15,172.26Z"/><path class="cls-3" d="M17.37,144.34a2.68,2.68,0,0,1-.16-5.35,10,10,0,0,0,2.71-.73c.45-.16.89-.33,1.35-.48a2.68,2.68,0,0,1,1.64,5.1c-.39.13-.76.27-1.14.41a14.32,14.32,0,0,1-4.23,1Z"/><path class="cls-3" d="M49.22,195.4a2.68,2.68,0,0,1-1.94-.83c-3.46-3.61-7.79-6.24-12-8.78-6.78-4.11-13.18-8-13.35-15.22a2.68,2.68,0,0,1,2.62-2.74,2.64,2.64,0,0,1,2.74,2.61c.09,4.09,4.15,6.76,10.77,10.77,4.27,2.6,9.11,5.54,13.06,9.66a2.68,2.68,0,0,1-1.93,4.53Z"/><path class="cls-3" d="M196.24,136.55c-5.16,0-5.71-3.5-5.71-5,0-4.63,4-9.53,8.65-15.19s10-12.14,11.21-18.56a32.82,32.82,0,0,0-15.24,5.94c-1.84,1.35-3.75,2.92-5.6,4.43-6.06,5-11.79,9.66-17.43,9.66-4.73,0-8.29-3.26-8.29-7.58,0-6.38,3.66-10.85,8.9-10.85a8.43,8.43,0,0,1,7.36,4.15,2.68,2.68,0,1,1-4.65,2.66,3.1,3.1,0,0,0-2.71-1.45c-3.51,0-3.55,5.27-3.55,5.49,0,1.33,1.18,2.22,2.94,2.22,3.73,0,9-4.29,14-8.44,1.9-1.56,3.86-3.17,5.81-4.6,5.72-4.23,12.23-6.5,21.11-7.36A2.69,2.69,0,0,1,216,94.68V95c0,9.24-6.75,17.46-12.7,24.72-3.5,4.27-7.11,8.68-7.42,11.44h.34c2.35,0,4.2-2.8,5.09-4.47a2.68,2.68,0,1,1,4.73,2.52C203.5,134,200.11,136.55,196.24,136.55Z"/><path class="cls-3" d="M191.41,118.82c-2.48,0-5.17-1.76-5.17-4.59a4.91,4.91,0,0,1,2.16-4,4.72,4.72,0,0,0,.43-.37,2.67,2.67,0,0,1,3.79,0,2.58,2.58,0,0,1,.63,1,2.78,2.78,0,0,1,1.12-.08,2.69,2.69,0,0,1,2.28,3C196.22,116.73,194.07,118.82,191.41,118.82Z"/><path class="cls-3" d="M190.49,132.78a3.07,3.07,0,0,1-.6-.07c-4.87-1.13-8.26-4.44-11.54-7.65a49.48,49.48,0,0,0-4.33-3.91,2.68,2.68,0,1,1,3.24-4.26,50.35,50.35,0,0,1,4.83,4.34c2.88,2.82,5.6,5.47,9,6.26a2.68,2.68,0,0,1-.61,5.29Z"/><path class="cls-3" d="M177.54,133.28c-3.41,0-6-2.24-6-5.23,0-2.1,1.25-4.09,2.16-5.54l.12-.2a2.68,2.68,0,1,1,4.54,2.84l-.12.2a12.26,12.26,0,0,0-1.31,2.47,1.55,1.55,0,0,0,.59.11c.6,0,2-.25,4.34-1.91A2.68,2.68,0,1,1,185,130.4C182.23,132.32,179.73,133.28,177.54,133.28Z"/><path class="cls-3" d="M127.07,91.63c-8.59,0-28.77-1.24-30.68-12.72a2.68,2.68,0,1,1,5.28-.88c1,5.7,13.44,8.25,25.4,8.25,4.4,0,5.17-.21,7.48-.81.45-.12,1-.26,1.54-.4a2.68,2.68,0,0,1,1.31,5.19l-1.49.39C133.12,91.38,131.91,91.63,127.07,91.63Z"/><path class="cls-3" d="M237.17,182.52h-.1a2.68,2.68,0,0,1-2.58-2.78c.19-4.85.63-9.7,1.06-14.4.56-6,1.13-12.28,1.13-18.4,0-1.17,0-2.35-.07-3.53a2.68,2.68,0,0,1,5.36-.21c0,1.25.07,2.5.07,3.74,0,6.37-.59,12.73-1.15,18.89-.43,4.63-.86,9.41-1,14.12A2.68,2.68,0,0,1,237.17,182.52Z"/><path class="cls-3" d="M161.34,184.79a2.68,2.68,0,0,1-2.17-1.11,28.81,28.81,0,0,1-3.69-6.93,2.68,2.68,0,1,1,5-1.85,23.31,23.31,0,0,0,3,5.64,2.68,2.68,0,0,1-2.17,4.25Zm-4.91-20.36h-.27a2.67,2.67,0,0,1-2.39-2.94A44.62,44.62,0,0,1,155.2,154a2.68,2.68,0,0,1,5.16,1.44A39.24,39.24,0,0,0,159.1,162,2.69,2.69,0,0,1,156.43,164.43Zm7.13-20a2.67,2.67,0,0,1-2.27-4.09,52.61,52.61,0,0,1,4.41-6.09,2.68,2.68,0,0,1,4.1,3.45,46.86,46.86,0,0,0-4,5.47A2.69,2.69,0,0,1,163.56,144.41Z"/><path class="cls-3" d="M218.17,228.37a14,14,0,0,1-8.34-2.53,2.68,2.68,0,0,1,3.22-4.29,8.58,8.58,0,0,0,5.18,1.46,2.68,2.68,0,0,1-.06,5.36Zm14.22-1a2.68,2.68,0,0,1-.43-5.32,35.83,35.83,0,0,0,6.44-1.62,2.68,2.68,0,0,1,1.8,5.05,42.65,42.65,0,0,1-7.37,1.86A3.25,3.25,0,0,1,232.39,227.42Z"/><path class="cls-3" d="M320,203.1a2.68,2.68,0,0,1-1.15-5.1,69.64,69.64,0,0,1,6.86-2.83,2.68,2.68,0,1,1,1.77,5.05,67.62,67.62,0,0,0-6.34,2.62A2.74,2.74,0,0,1,320,203.1Zm20.52-5.68a2.68,2.68,0,0,1-.18-5.35l1-.06a2.68,2.68,0,0,1,.27,5.35l-.91.06Z"/><path class="cls-3" d="M413.94,201.6a2.64,2.64,0,0,1-.78-.12c-1.82-.55-3.63-1.15-5.44-1.74l-1.42-.47a2.68,2.68,0,0,1,1.67-5.09l1.43.47c1.77.58,3.54,1.17,5.31,1.71a2.68,2.68,0,0,1-.77,5.24Zm-20.61-5.73a2.19,2.19,0,0,1-.36,0,33.66,33.66,0,0,0-6.61-.27,2.68,2.68,0,0,1-.32-5.35,39.48,39.48,0,0,1,7.64.31,2.68,2.68,0,0,1-.35,5.34Z"/><path class="cls-3" d="M508.36,240.84a2.68,2.68,0,0,1-2.63-2.2,38.71,38.71,0,0,0-1.77-6.42,2.68,2.68,0,0,1,5-1.88,44.54,44.54,0,0,1,2,7.33,2.69,2.69,0,0,1-2.15,3.12A2.81,2.81,0,0,1,508.36,240.84Zm-9.34-19a2.66,2.66,0,0,1-1.93-.83,29,29,0,0,0-5-4.17,2.68,2.68,0,0,1,2.95-4.48,34.63,34.63,0,0,1,5.93,5,2.68,2.68,0,0,1-.09,3.79A2.62,2.62,0,0,1,499,221.89Zm-18.69-9.63a2.12,2.12,0,0,1-.44,0,41.15,41.15,0,0,0-6.67-.53,2.68,2.68,0,0,1,0-5.36,46.26,46.26,0,0,1,7.55.61,2.68,2.68,0,0,1-.44,5.32Z"/></g></g></svg>