<svg xmlns="http://www.w3.org/2000/svg" viewBox="0 0 137.51 137.51"><defs><style>.cls-1{fill:#0098fe;}.cls-2{fill:#f3f3f3;}</style></defs><title>icon_6Asset 32</title><g id="Layer_2" data-name="Layer 2"><g id="Layer_1-2" data-name="Layer 1"><circle class="cls-1" cx="68.75" cy="68.75" r="68.75"/><path class="cls-2" d="M116.09,34.78A8,8,0,0,0,110.6,30a9.91,9.91,0,0,0-5.71.54,14.83,14.83,0,0,0-4.4,2.63c-2.78,2.47-4.4,5.63-5.95,8.41-.23.47-.46.93-.69,1.32-.93,1.77-1.85,3.63-2.78,5.32-2.86,5.72-5.64,11.12-9.88,15.29C75.55,69,68.83,71.92,62.11,71.77a28.88,28.88,0,0,1-18.45-7.49c-3.09-2.78-6.72-5.72-11.66-6a10.57,10.57,0,0,0-7.64,2.86,10.31,10.31,0,0,0-3.17,7.25A5.93,5.93,0,0,0,23.27,73a5.49,5.49,0,0,0,4.48,1.16,3.85,3.85,0,0,0,3.09-4.63,3.75,3.75,0,0,0-1.39-2.32.67.67,0,0,1,.31-.31,2.7,2.7,0,0,1,1.93-.69c2.32.07,4.48,1.93,6.72,3.93a8.6,8.6,0,0,1,.85.78,9.46,9.46,0,0,1,3.32,7.18,16.56,16.56,0,0,1-.85,5.48c-.93,2.7-2.78,10.35-4.79,11.74-2-.93-4.09-2-6.1-3.17a3.16,3.16,0,1,0-3.16,5.48q4,2.33,8.1,4.17c.08,0,.08.08.16.08a60.26,60.26,0,0,0,6.64,2.55,67.71,67.71,0,0,0,15.36,3.16c1.7.16,3.4.23,5.18.23A69.5,69.5,0,0,0,73.77,107a75.11,75.11,0,0,0,16.14-4.55,3.16,3.16,0,1,0-2.32-5.87A64.89,64.89,0,0,1,80.41,99c-1.7-1.7-2.54-9.57-2.93-12.51A17.21,17.21,0,0,1,79,76.71c1.62-3.25,5.09-4.94,7.64-7.42C91.84,64.12,95,57.87,98.1,51.84c.84-1.69,1.77-3.47,2.62-5.17.23-.46.54-.93.77-1.39A22.83,22.83,0,0,1,105.74,39a4.9,4.9,0,0,1,3-1.32.08.08,0,0,0,.08.08A4,4,0,0,0,114,40,4,4,0,0,0,116.09,34.78ZM46.52,98.64a4.18,4.18,0,0,1-1.24-3.79c.62-6.33,3.63-11.27,10.35-12.12,4.63-.62,13.59-1.08,15.59,4.48a38.07,38.07,0,0,1,1.47,6.72c.7,4.24-.77,7.1-5.33,7.41-6.33.38-12.89.15-18.91-1.7A5.64,5.64,0,0,1,46.52,98.64Z"/></g></g></svg>