<svg xmlns="http://www.w3.org/2000/svg" viewBox="0 0 75.72 69.08"><defs><style>.cls-1{fill:#1a9afb;}</style></defs><title>ICON 3Asset 24</title><g id="Layer_2" data-name="Layer 2"><g id="Layer_2-2" data-name="Layer 2"><path class="cls-1" d="M62.44,6.64V0H13.29V6.64H0V16.81A22.29,22.29,0,0,0,4.86,30.44a33.53,33.53,0,0,0,9.84,8.42A24.82,24.82,0,0,0,34.54,54v8.44h-12v6.64H53.14V62.44h-12V54A24.85,24.85,0,0,0,61,38.86a33.66,33.66,0,0,0,9.84-8.42,22.28,22.28,0,0,0,4.85-13.63V6.64ZM13.29,30a23.7,23.7,0,0,1-3-3.13,15.71,15.71,0,0,1-3.65-9.77V13.29h6.65Zm32.82,4.36L38.38,30.9l-7.72,3.42L31.57,26l-5.68-6.2,8.28-1.71,4.21-7.25L42.6,18.1l8.28,1.71L45.2,26Zm23-17.26a15.7,15.7,0,0,1-3.64,9.77,24.37,24.37,0,0,1-3,3.13V13.29h6.64Z"/></g></g></svg>