<svg xmlns="http://www.w3.org/2000/svg" viewBox="0 0 138.61 138.61"><defs><style>.cls-1{fill:#0098fe;}.cls-2{fill:#f3f3f3;}</style></defs><title>icon_2Asset 28</title><g id="Layer_2" data-name="Layer 2"><g id="Layer_1-2" data-name="Layer 1"><circle class="cls-1" cx="69.3" cy="69.3" r="69.3"/><path class="cls-2" d="M103.05,27.89a6.75,6.75,0,0,1,6.74,6.74V39H52.29V34.63A6.74,6.74,0,0,1,59,27.89Zm0,45.45a6.75,6.75,0,0,0,6.74-6.74V47H57.22l21,26.36ZM28.93,95.84A13.24,13.24,0,0,1,40,84.45,14.31,14.31,0,0,1,42,84.3a13.18,13.18,0,0,1,3.36.43l7.07-8.85L42.2,65.72a21.14,21.14,0,0,1-6-11.52A14.85,14.85,0,0,1,41.76,40a.64.64,0,0,1,.42-.15.75.75,0,0,1,.57.28L78.44,84.72a13.58,13.58,0,0,1,3.36-.43,12.91,12.91,0,0,1,2.06.16,13.21,13.21,0,0,1-2.06,26.27H81a13.19,13.19,0,0,1-11.52-18l-7.58-7.49L54.33,92.7a13.2,13.2,0,0,1-11.51,18H42A13.23,13.23,0,0,1,28.82,97.49,13.06,13.06,0,0,1,28.93,95.84Zm47.65,1.67a5.18,5.18,0,1,0,5.17-5.18A5.18,5.18,0,0,0,76.58,97.51Zm-39.77,0A5.18,5.18,0,1,0,42,92.33,5.18,5.18,0,0,0,36.81,97.51Z"/></g></g></svg>