<svg xmlns="http://www.w3.org/2000/svg" viewBox="0 0 278.78 168.34"><defs><style>.cls-1{fill:#cc9906;}.cls-2{fill-rule:evenodd;}</style></defs><title>CASTLEAsset 6</title><g id="Layer_2" data-name="Layer 2"><g id="Layer_1-2" data-name="Layer 1"><path d="M0,149.73h8.4v1.43H1.49v4.59H8.36v1.44H1.49v5.75H8.36v1.43H0Z"/><path d="M10.71,153.54H12.1v1.87a5.35,5.35,0,0,1,1.49-1.51,4.32,4.32,0,0,1,2.23-.64,3.79,3.79,0,0,1,1.49.31,3.33,3.33,0,0,1,1.16.82,4.46,4.46,0,0,1,.78,1.47A5.11,5.11,0,0,1,21,153.93a4.08,4.08,0,0,1,2.25-.67,3.41,3.41,0,0,1,3.26,2.15,8.71,8.71,0,0,1,.41,3.05v5.91H25.48v-5.91a7.52,7.52,0,0,0-.25-2.39,2.09,2.09,0,0,0-.85-1,2.48,2.48,0,0,0-1.43-.4,3.16,3.16,0,0,0-1.85.59,3.45,3.45,0,0,0-1.23,1.6,10.33,10.33,0,0,0-.38,3.32v4.24h-1.4v-5.54a9.58,9.58,0,0,0-.24-2.66A2.24,2.24,0,0,0,17,155a2.5,2.5,0,0,0-1.45-.42,3.09,3.09,0,0,0-1.8.58,3.47,3.47,0,0,0-1.25,1.57,8.41,8.41,0,0,0-.4,3v4.58H10.71Z"/><path d="M29.86,153.54h1.4v2a5.63,5.63,0,0,1,1.9-1.7,5,5,0,0,1,2.39-.57,5.34,5.34,0,0,1,4,1.67,5.45,5.45,0,0,1,1.64,4A5.63,5.63,0,0,1,39.52,163a5.51,5.51,0,0,1-6.3,1.13,5.93,5.93,0,0,1-2-1.61v5.83h-1.4Zm5.58,1.07a4.11,4.11,0,0,0-3,1.26A4.32,4.32,0,0,0,31.16,159a4.43,4.43,0,0,0,.55,2.22,4,4,0,0,0,1.58,1.56,4.31,4.31,0,0,0,2.17.58,4.07,4.07,0,0,0,2.11-.58,4.25,4.25,0,0,0,1.57-1.63,4.39,4.39,0,0,0,.59-2.19,4.34,4.34,0,0,0-.58-2.18,4.2,4.2,0,0,0-3.71-2.18Z"/><path d="M43.54,149.36h1.4v15h-1.4Z"/><path d="M53,153.26a5.37,5.37,0,0,1,4.15,1.82,5.61,5.61,0,0,1,1.5,3.91A5.68,5.68,0,0,1,57,163a5.75,5.75,0,0,1-8.14,0,5.83,5.83,0,0,1-.09-7.88A5.39,5.39,0,0,1,53,153.26Zm0,1.37a4,4,0,0,0-3,1.28A4.31,4.31,0,0,0,48.72,159a4.42,4.42,0,0,0,.57,2.19,4,4,0,0,0,1.54,1.57,4.38,4.38,0,0,0,4.25,0,4,4,0,0,0,1.54-1.57,4.42,4.42,0,0,0,.57-2.19,4.27,4.27,0,0,0-1.25-3.11A4,4,0,0,0,53,154.63Z"/><path d="M60,153.54h1.47l3.73,8.34,3.61-8.34h1.49l-6.46,14.8H62.38l2.09-4.79Z"/><path d="M81.24,160.78l1.17.62a6.27,6.27,0,0,1-1.33,1.83,5.39,5.39,0,0,1-1.7,1.06,6.06,6.06,0,0,1-2.15.36,5.17,5.17,0,0,1-4.14-1.73,5.86,5.86,0,0,1-1.5-3.93,5.77,5.77,0,0,1,1.27-3.68,5.19,5.19,0,0,1,4.29-2.05,5.36,5.36,0,0,1,4.43,2.1,5.89,5.89,0,0,1,1.19,3.71H73a4.4,4.4,0,0,0,1.21,3.09,3.84,3.84,0,0,0,2.88,1.21,4.67,4.67,0,0,0,1.61-.29,4.29,4.29,0,0,0,1.33-.76A6.53,6.53,0,0,0,81.24,160.78Zm0-2.92a4.82,4.82,0,0,0-.81-1.78A3.94,3.94,0,0,0,79,155a4.23,4.23,0,0,0-1.85-.41,4,4,0,0,0-2.74,1,4.69,4.69,0,0,0-1.27,2.24Z"/><path d="M94.49,160.78l1.18.62a6.29,6.29,0,0,1-1.34,1.83,5.28,5.28,0,0,1-1.7,1.06,6,6,0,0,1-2.15.36,5.19,5.19,0,0,1-4.14-1.73,5.93,5.93,0,0,1-.23-7.61,5.19,5.19,0,0,1,4.29-2.05,5.35,5.35,0,0,1,4.43,2.1A5.89,5.89,0,0,1,96,159.07H86.28a4.39,4.39,0,0,0,1.2,3.09,3.84,3.84,0,0,0,2.88,1.21,4.67,4.67,0,0,0,1.61-.29,4.18,4.18,0,0,0,1.33-.76A6.28,6.28,0,0,0,94.49,160.78Zm0-2.92a4.66,4.66,0,0,0-.81-1.78A3.94,3.94,0,0,0,92.27,155a4.23,4.23,0,0,0-1.85-.41,4,4,0,0,0-2.74,1,4.61,4.61,0,0,0-1.26,2.24Z"/><path d="M104.54,149.73h2.89a6.91,6.91,0,0,1,2.67.41,3.28,3.28,0,0,1,1.48,1.27,3.5,3.5,0,0,1,.54,1.9,3.39,3.39,0,0,1-.47,1.78,3.53,3.53,0,0,1-1.4,1.3,5.43,5.43,0,0,1,1.76.91,3.65,3.65,0,0,1,1,1.27,3.74,3.74,0,0,1,.34,1.6,4,4,0,0,1-1.29,3,4.83,4.83,0,0,1-3.46,1.21h-4Zm1.43,1.43v4.69h.84a6.57,6.57,0,0,0,2.25-.28,2.45,2.45,0,0,0,1.13-.9,2.35,2.35,0,0,0,.42-1.36,1.93,1.93,0,0,0-.7-1.58,3.56,3.56,0,0,0-2.24-.57Zm0,6.17v5.61h1.82a6.49,6.49,0,0,0,2.35-.31,2.68,2.68,0,0,0,1.2-1,2.57,2.57,0,0,0,.46-1.45,2.51,2.51,0,0,0-.64-1.7,3.33,3.33,0,0,0-1.76-1,13.72,13.72,0,0,0-2.6-.17Z"/><path d="M125.1,160.78l1.17.62a6.27,6.27,0,0,1-1.33,1.83,5.44,5.44,0,0,1-1.71,1.06,6,6,0,0,1-2.14.36,5.21,5.21,0,0,1-4.15-1.73,5.9,5.9,0,0,1-1.49-3.93,5.77,5.77,0,0,1,1.27-3.68,5.19,5.19,0,0,1,4.29-2.05,5.36,5.36,0,0,1,4.43,2.1,5.89,5.89,0,0,1,1.19,3.71h-9.75a4.4,4.4,0,0,0,1.21,3.09,3.84,3.84,0,0,0,2.88,1.21,4.67,4.67,0,0,0,1.61-.29,4.29,4.29,0,0,0,1.33-.76A6.53,6.53,0,0,0,125.1,160.78Zm0-2.92a4.82,4.82,0,0,0-.81-1.78,3.89,3.89,0,0,0-1.42-1.07,4.16,4.16,0,0,0-1.84-.41,4,4,0,0,0-2.74,1,4.69,4.69,0,0,0-1.27,2.24Z"/><path d="M129.23,153.54h1.4v1.94a5.63,5.63,0,0,1,1.85-1.66,4.51,4.51,0,0,1,2.21-.56,3.84,3.84,0,0,1,2.15.62,3.69,3.69,0,0,1,1.39,1.66,8.81,8.81,0,0,1,.45,3.26v5.57h-1.39v-5.16a12.89,12.89,0,0,0-.16-2.5,2.72,2.72,0,0,0-.93-1.62,2.81,2.81,0,0,0-1.79-.54,3.49,3.49,0,0,0-2.27.83,4,4,0,0,0-1.32,2.07,14.91,14.91,0,0,0-.19,3v4h-1.4Z"/><path d="M150.79,160.78l1.17.62a6.27,6.27,0,0,1-1.33,1.83,5.44,5.44,0,0,1-1.71,1.06,6,6,0,0,1-2.14.36,5.21,5.21,0,0,1-4.15-1.73,5.9,5.9,0,0,1-1.49-3.93,5.82,5.82,0,0,1,1.26-3.68,5.21,5.21,0,0,1,4.3-2.05,5.33,5.33,0,0,1,4.42,2.1,5.83,5.83,0,0,1,1.2,3.71h-9.75a4.4,4.4,0,0,0,1.21,3.09,3.84,3.84,0,0,0,2.88,1.21,4.67,4.67,0,0,0,1.61-.29,4.29,4.29,0,0,0,1.33-.76A6.53,6.53,0,0,0,150.79,160.78Zm0-2.92a4.67,4.67,0,0,0-.82-1.78,3.77,3.77,0,0,0-1.41-1.07,4.19,4.19,0,0,0-1.84-.41,4,4,0,0,0-2.74,1,4.69,4.69,0,0,0-1.27,2.24Z"/><path d="M159.38,149.36v1.36a3.4,3.4,0,0,0-1.32-.32,1.26,1.26,0,0,0-.67.16.76.76,0,0,0-.34.38,5,5,0,0,0-.07,1.14v1.46h2.26v1.21H157v9.62h-1.39v-9.62h-1.43v-1.21h1.43v-1.69a4.64,4.64,0,0,1,.21-1.66,1.73,1.73,0,0,1,.73-.81,2.4,2.4,0,0,1,1.24-.3A5.73,5.73,0,0,1,159.38,149.36Z"/><path d="M161.8,149.08a1.11,1.11,0,0,1,.82.34,1.15,1.15,0,0,1,.34.82,1.16,1.16,0,0,1-1.16,1.14,1.08,1.08,0,0,1-.8-.34,1.1,1.1,0,0,1-.34-.8,1.15,1.15,0,0,1,.34-.82A1.08,1.08,0,0,1,161.8,149.08Zm-.69,4.46h1.4v10.83h-1.4Z"/><path d="M166.62,149.52H168v4h2.21v1.21H168v9.62h-1.39v-9.62h-1.9v-1.21h1.9Z"/><path d="M177.76,154.73l-.9.92a3.21,3.21,0,0,0-2.18-1.08,1.66,1.66,0,0,0-1.17.45,1.36,1.36,0,0,0-.48,1,1.55,1.55,0,0,0,.4,1,5.72,5.72,0,0,0,1.68,1.14,6.42,6.42,0,0,1,2.11,1.55,2.84,2.84,0,0,1,.55,1.71,3,3,0,0,1-.94,2.26,3.2,3.2,0,0,1-2.34.92,4.11,4.11,0,0,1-1.79-.4,3.92,3.92,0,0,1-1.41-1.13l.87-1a3.07,3.07,0,0,0,2.27,1.2,2.05,2.05,0,0,0,1.43-.54,1.67,1.67,0,0,0,.59-1.26,1.62,1.62,0,0,0-.39-1.07,6.36,6.36,0,0,0-1.76-1.15,5.63,5.63,0,0,1-2-1.5,2.92,2.92,0,0,1,.31-3.73,3,3,0,0,1,2.13-.82A4.41,4.41,0,0,1,177.76,154.73Z"/><path class="cls-1" d="M192.2,150.72a6.64,6.64,0,0,1,4.86,2,6.84,6.84,0,0,1,2,5,6.74,6.74,0,0,1-2,4.94,7,7,0,0,1-9.85-.05,7.11,7.11,0,0,1-1.06-8.45,6.8,6.8,0,0,1,2.54-2.54A6.88,6.88,0,0,1,192.2,150.72Zm0,2.48a4.19,4.19,0,0,0-3.11,1.28,4.49,4.49,0,0,0-1.26,3.27,4.28,4.28,0,0,0,1.58,3.5,4.37,4.37,0,0,0,2.83,1,4.15,4.15,0,0,0,3.08-1.3,4.69,4.69,0,0,0,0-6.43A4.16,4.16,0,0,0,192.17,153.2Z"/><path class="cls-1" d="M201.47,151.05h2.69a9.06,9.06,0,0,1,3.15.4,3.23,3.23,0,0,1,1.52,1.31,4,4,0,0,1,.56,2.16,3.62,3.62,0,0,1-.73,2.32,3.75,3.75,0,0,1-2,1.28,11.29,11.29,0,0,1-2.67.21v5.64h-2.54Zm2.54,5.21h.81a4.36,4.36,0,0,0,1.32-.14,1.14,1.14,0,0,0,.58-.45,1.34,1.34,0,0,0,.22-.76,1.2,1.2,0,0,0-.6-1.12,3.34,3.34,0,0,0-1.61-.27H204Z"/><path class="cls-1" d="M210.56,151.05h7.36v2.5H215.5v10.82h-2.58V153.55h-2.36Z"/><path class="cls-1" d="M219.48,151.05H222v13.32h-2.52Z"/><path class="cls-1" d="M226.14,151.05h2.48l3.09,9.29,3.11-9.29h2.47l2.24,13.32h-2.46L235.65,156l-2.84,8.41h-2.23L227.77,156l-1.46,8.41h-2.47Z"/><path class="cls-1" d="M241.37,151.05h2.51v13.32h-2.51Z"/><path class="cls-1" d="M246,151.05h8.06l-4.74,10.89h4.44v2.43h-8.15l4.73-10.81H246Z"/><path class="cls-1" d="M256,151.05h7.28v2.48h-4.76v2.41h4.76v2.44h-4.76v3.5h4.76v2.49H256Z"/><path class="cls-1" d="M265.67,151.05h3a9.91,9.91,0,0,1,4.32.72,5.64,5.64,0,0,1,2.33,2.34,8.24,8.24,0,0,1,.4,6.62,5.88,5.88,0,0,1-1.41,2.14,5,5,0,0,1-1.95,1.18,13.84,13.84,0,0,1-3.64.32h-3.05Zm2.52,2.45v8.4h1.18a5.81,5.81,0,0,0,2.52-.4,3,3,0,0,0,1.28-1.34,4.94,4.94,0,0,0,.5-2.32,4.41,4.41,0,0,0-1.19-3.29,4.74,4.74,0,0,0-3.43-1.05Z"/><path class="cls-2" d="M125.67,43V66c0,5.06,4.1,9.29,8.33,10.28V95.84c-.05,5.26-.76,5.38,3.43,5.38V72.83c-4.49,0-8.32-1.74-8.32-7.34v-22a7.08,7.08,0,0,1,7.34-7.34h16.65c4.24,0,6.85,4,6.85,8.81,0,7.17,1.34,22.46-2.3,26.09-2.46,2.45-6.51.88-6.51,3.28V99.76c0,1.8,1,1.46,3.43,1.46v-25c5.14-.43,8.81-6,8.81-11.75V44.44c0-6.16-4.17-11.75-9.79-11.75H135.46c-5.19,0-9.79,5.16-9.79,10.28"/><path class="cls-2" d="M99.73,53.25v18.6c0,4.56,4.23,9,8.32,9.3v20.07c5,0,3.43,1.73,3.43-22,0-3.06-8.32.44-8.32-8.33,0-6.54-1.14-18.17,1.66-21.34s7.3-2.15,13-2.15V44c-6.67,0-11.74-1.11-15.53,3.07a9.55,9.55,0,0,0-2.58,6.23"/><path class="cls-2" d="M171.2,47.38c5.72,0,10.27-1,13,2.15s1.66,14.8,1.66,21.34c0,8.77-8.32,5.27-8.32,8.33V99.76c0,1.8,1.05,1.46,3.43,1.46V81.15c4.09-.34,8.32-4.74,8.32-9.3V53.25c0-5.11-5.11-9.3-8.32-9.3H171.2Z"/><path class="cls-2" d="M144.38,0a12.68,12.68,0,1,0,12.68,12.68A12.68,12.68,0,0,0,144.38,0Zm0,22a9.28,9.28,0,1,1,9.28-9.27A9.27,9.27,0,0,1,144.38,22Z"/><path class="cls-2" d="M175.08,11.09a12.68,12.68,0,1,0,12.68,12.68A12.68,12.68,0,0,0,175.08,11.09Zm0,22a9.28,9.28,0,1,1,9.27-9.28A9.29,9.29,0,0,1,175.08,33.05Z"/><path class="cls-2" d="M113.93,11.09a12.68,12.68,0,1,0,12.68,12.68A12.68,12.68,0,0,0,113.93,11.09Zm0,22a9.28,9.28,0,1,1,9.27-9.28A9.28,9.28,0,0,1,113.93,33.05Z"/><path d="M0,107.92H4.45v6.2a18.56,18.56,0,0,1,5.91-5.32A14.51,14.51,0,0,1,17.42,107a12.29,12.29,0,0,1,6.88,2,11.87,11.87,0,0,1,4.44,5.31c1,2.23,1.43,5.69,1.43,10.4v17.8H25.72V126a40.61,40.61,0,0,0-.5-8,8.67,8.67,0,0,0-3-5.16,8.93,8.93,0,0,0-5.72-1.74A11,11,0,0,0,9.3,113.8a12.47,12.47,0,0,0-4.21,6.62,45.39,45.39,0,0,0-.64,9.41v12.68H0Z"/><path d="M68.82,131l3.75,2a20.39,20.39,0,0,1-4.26,5.85,16.8,16.8,0,0,1-5.44,3.39A19.09,19.09,0,0,1,56,143.4q-8.47,0-13.24-5.55A18.73,18.73,0,0,1,38,125.31a18.48,18.48,0,0,1,4-11.73A16.52,16.52,0,0,1,55.77,107a17.07,17.07,0,0,1,14.13,6.71,18.8,18.8,0,0,1,3.82,11.83H42.6a14,14,0,0,0,3.85,9.88,12.29,12.29,0,0,0,9.19,3.85,14.82,14.82,0,0,0,5.14-.92A13.42,13.42,0,0,0,65,135.94,20.65,20.65,0,0,0,68.82,131Zm0-9.31A14.8,14.8,0,0,0,66.23,116a12.32,12.32,0,0,0-4.51-3.43,13.76,13.76,0,0,0-5.89-1.31,12.7,12.7,0,0,0-8.75,3.28,14.78,14.78,0,0,0-4,7.15Z"/><path d="M85.89,95.08h4.45v12.84H97.4v3.85H90.34v30.74H85.89V111.77H79.82v-3.85h6.07Z"/><path d="M99.4,107.92H104L114.58,133l11-25.12h.81L137.53,133l10.8-25.12H153l-15,34.59h-.83l-11.06-24.76-11,24.76h-.83Z"/><path d="M187.29,131l3.75,2a20.39,20.39,0,0,1-4.26,5.85,16.8,16.8,0,0,1-5.44,3.39,19.09,19.09,0,0,1-6.84,1.16q-8.46,0-13.24-5.55a18.73,18.73,0,0,1-4.77-12.54,18.54,18.54,0,0,1,4-11.73A16.55,16.55,0,0,1,174.24,107a17.07,17.07,0,0,1,14.13,6.71,18.74,18.74,0,0,1,3.82,11.83H161.07a14.09,14.09,0,0,0,3.85,9.88,12.31,12.31,0,0,0,9.2,3.85,14.86,14.86,0,0,0,5.14-.92,13.64,13.64,0,0,0,4.25-2.44A20.92,20.92,0,0,0,187.29,131Zm0-9.31A14.8,14.8,0,0,0,184.7,116a12.36,12.36,0,0,0-4.5-3.43,13.8,13.8,0,0,0-5.89-1.31,12.71,12.71,0,0,0-8.76,3.28,14.78,14.78,0,0,0-4,7.15Z"/><path d="M199.82,94.57h4.45v47.94h-4.45Z"/><path d="M212.85,94.57h4.45v47.94h-4.45Z"/><path d="M230.43,95.08h4.45v12.84h7.06v3.85h-7.06v30.74h-4.45V111.77h-6.07v-3.85h6.07Z"/><path d="M248.61,94.57h4.45v19.55A18.78,18.78,0,0,1,259,108.8a14.41,14.41,0,0,1,7-1.77,12.27,12.27,0,0,1,6.88,2,11.78,11.78,0,0,1,4.44,5.3q1.42,3.32,1.43,10.41v17.8h-4.45V126a42,42,0,0,0-.48-8,9,9,0,0,0-3-5.16,8.9,8.9,0,0,0-5.71-1.74,11,11,0,0,0-7.23,2.67,12.53,12.53,0,0,0-4.21,6.62,45.12,45.12,0,0,0-.64,9.41v12.68h-4.45Z"/></g></g></svg>