<svg xmlns="http://www.w3.org/2000/svg" viewBox="0 0 426.47 363.25"><defs><style>.cls-1,.cls-7{fill:#959898;}.cls-1,.cls-6{opacity:0.5;}.cls-2{fill:#131919;}.cls-3{fill:#ef0d66;}.cls-4{fill:#cd9a24;}.cls-5{fill:#fff;}.cls-8{opacity:0.36;}.cls-9{fill:#3fccfc;}.cls-10{fill:#1a9afb;}.cls-11{font-size:25.07px;font-family:AManoBoldensada;}.cls-12{fill:#e7d0a2;}.cls-13{fill:#c93;}</style></defs><title>MANAsset 20</title><g id="Layer_2" data-name="Layer 2"><g id="Layer_2-2" data-name="Layer 2"><path class="cls-1" d="M330.6,54.5c-2.94,10.12-8.42,19.41-9.45,30-.49,5.12-1.86,10.08-2.17,15.22a75.52,75.52,0,0,0,1.17,17.18c3.41,19.6,8.22,38.94,8,59S321.6,214,312.69,231.79c-8.8,17.63-18.66,34.65-26.77,52.63-3.9,8.66-9.11,17-11.25,26.27a87.36,87.36,0,0,0-1.25,29.86c.32,2.69-4.25,3.27-4.7.64-1.88-11.06-1.63-22.05-.24-33.16,1.34-10.84,1.59-21.3,5.51-31.65,7.22-19.09,17.2-36.87,26.55-54.95,4.5-8.69,8.92-17.54,11.55-27,.67-2.38,1.2-4.79,1.63-7.21-6.13-.25-13.42-3.19-17.15-5.1a.33.33,0,0,1,.08-.6,61.36,61.36,0,0,1,11.71-1.43c1.92-.11,4.17-.61,6.4-.89a117.71,117.71,0,0,0,.2-15.49c-.48-10.18-2.29-20.27-4.21-30.26-2-10.19-4.56-20.63-4-31.09A65.85,65.85,0,0,1,308.93,88c1.14-4.08,3.42-7.6,5.46-11.27,4.46-8,8.63-16.12,14.48-23.21C329.55,52.68,330.87,53.56,330.6,54.5Z"/><path class="cls-1" d="M169.4,291.09c-3,5.82-6.25,11.55-9.57,17.24-4.43-1.43-8.56-3.73-13.13-4.91-2.81-.73-6.32-2.12-8.65.16a.71.71,0,0,0,.14,1.1c1.52.82,2.34,3.09,3.29,4.43a33.57,33.57,0,0,0,4.14,4.76,37.56,37.56,0,0,0,7.57,5.68q-2.62,4.4-5.26,8.77c-3.36,5.64-6.74,11.68-11.26,16.5s-8.84,6-15.2,4.84a.48.48,0,0,0-.59.46c.13,6.3,8.23,9.22,13.59,8.85,9.78-.69,15.86-8.17,21.06-15.64A156.65,156.65,0,0,0,171,316.42c3.62-8.34,9.43-17.78,2.82-25.9A2.83,2.83,0,0,0,169.4,291.09Z"/><path class="cls-2" d="M246.33,128.44c-2.47.58-5.37,1.35-8.5,2.29-11.41,3.41-25.84,9-33.59,14.7,0,.66,0,1.32,0,2-.08,7.58-2.47,17.28-10.05,17.19a11.54,11.54,0,0,1-3.3-.56l.56-1.9c-.16-1.93-.24-3.9-.22-5.9.21-19.06,8.92-33.22,29.7-33C229.46,123.35,238.17,125.45,246.33,128.44Z"/><path class="cls-3" d="M273.11,344.49v.09c0,1.34-1.25,1.65-2.78,1.65-1.31,0-2.83-.22-3.95-.22,0,0-5.79.42-12.8.42-9,0-16.47-.63-25-.63-14.77,0-17.66,2.34-27.8,2.34-5,0-9.87-.53-14.84-.53l-1.63,0-1.72.06c-1.87-14.51-3-28.36-5.88-43.21-.93-4.86-2.05-9.39-2.95-13.9a201.72,201.72,0,0,1-8.06,23c-9.4-3.27-23.74-11.18-35.55-18.8,22.36-61.18,46.54-66,63.8-73.46l.22.49c7.19,8.91,12.38,12.28,24.94,12.41,2.29,0,17.29-1.73,29.24-15.38a8.94,8.94,0,0,0,1,.06c18.35.2,29.92-17.89,36.94-40,9.39,2.93,21.28,7.41,35.13,9.78-10.67,40.83-48.23,74.43-48.93,138.51C272.45,333,272.88,338.74,273.11,344.49Zm-54.75-67.61v10.68a5.13,5.13,0,0,0,3.86,4.77v9.09c0,2.45-.36,2.5,1.59,2.5V290.74c-2.08,0-3.86-.81-3.86-3.41V277.1a3.29,3.29,0,0,1,3.41-3.41h7.72c2,0,3.19,1.87,3.19,4.1,0,3.32.62,10.42-1.07,12.11-1.14,1.14-3,.41-3,1.52v11.82c0,.84.48.68,1.59.68V292.33c2.38-.2,4.09-2.8,4.09-5.45v-9.32c0-2.86-1.94-5.46-4.55-5.46H222.9a4.91,4.91,0,0,0-4.54,4.78m-12.05,4.77v8.64a4.62,4.62,0,0,0,3.87,4.31v9.32c2.29,0,1.59.8,1.59-10.23,0-1.42-3.87.21-3.87-3.86,0-3-.53-8.44.78-9.91s3.38-1,6-1v-1.59c-3.1,0-5.45-.52-7.21,1.42a4.46,4.46,0,0,0-1.2,2.9m33.18-2.73c2.66,0,4.77-.44,6,1s.77,6.87.77,9.91c0,4.07-3.86,2.44-3.86,3.86v9.55c0,.84.48.68,1.59.68V294.6a4.61,4.61,0,0,0,3.86-4.31v-8.64a4.62,4.62,0,0,0-3.86-4.32h-4.55Zm-12.45-22a5.89,5.89,0,1,0,5.89,5.89A5.89,5.89,0,0,0,227,256.92Zm0,10.2a4.31,4.31,0,1,1,4.31-4.31A4.3,4.3,0,0,1,227,267.12Zm14.26-5.05a5.89,5.89,0,1,0,5.88,5.89A5.89,5.89,0,0,0,241.3,262.07Zm0,10.2a4.31,4.31,0,1,1,4.3-4.31A4.31,4.31,0,0,1,241.3,272.27Zm-28.4-10.2a5.89,5.89,0,1,0,5.89,5.89A5.89,5.89,0,0,0,212.9,262.07Zm0,10.2a4.31,4.31,0,1,1,4.31-4.31A4.3,4.3,0,0,1,212.9,272.27Z"/><path class="cls-4" d="M398.34,326.66a3.52,3.52,0,0,1,3.36,3.69c0,3.3-1.88,4.56-3.33,4.55a4,4,0,0,1-4-4,4.28,4.28,0,0,1,3.05-4.14A3.69,3.69,0,0,1,398.34,326.66Z"/><path class="cls-5" d="M384.23,113.57l7,14.08c-4.11.06-8.19,0-12.29,0l-1.27-2.18C379.81,121.5,382.36,117.68,384.23,113.57Z"/><path class="cls-4" d="M377.7,125.51l1.27,2.18,1.28,2.15c-3.52.16-6.75.18-7.24.17-3.15,0-6.26-.27-9.51-.31a83.39,83.39,0,0,0-8.5.41c2.73-6.07,7.81-17.58,10.95-25.89C368.6,109.21,373.41,118.1,377.7,125.51Z"/><g class="cls-6"><path class="cls-7" d="M388.68,115.11a3,3,0,0,0-4.34,1.77,7.79,7.79,0,0,0,.14,5.34c.37,1.23,1.35,2.82,1.91,4.32a36.55,36.55,0,0,1-6.28,1q-4.19.66-8.39,1.06c-4.75.46-10.14.37-14.58,2.23A.62.62,0,0,0,357,132c8.42,5.17,21.67,4.78,30.95,2.66,3.86-.88,7.94-2.48,7.75-7.2C395.53,123.29,392.38,117,388.68,115.11Z"/></g><g class="cls-6"><path class="cls-7" d="M400.77,228.81c-2.42,1.8-3.85,4.1-5.82,6.32-.57.64-1.35,1.8-2.07,1.82s-2.11-1.17-2.72-1.64A.75.75,0,0,0,389,236c.25,3.6,1.86,7.23,5.94,7.54,4.66.35,10.8-3.48,13.15-7.32C410.78,231.83,405.22,225.52,400.77,228.81Z"/></g><g class="cls-6"><path class="cls-7" d="M406.4,331.66a3.15,3.15,0,0,0-3.85-2.19,6.47,6.47,0,0,0-2.52,1.62c-.66.7-1,1.62-1.6,2.33s-1.53.78-2.4,1.14a1.45,1.45,0,0,0-1,1.31c-.36,2.84,3.81,3.84,5.88,3.34C404.36,338.37,407,335.26,406.4,331.66Z"/></g><g class="cls-6"><path class="cls-7" d="M335.78,334.84a1.76,1.76,0,0,0-2.37.62,8.09,8.09,0,0,0-1,2.68c-.19,1.21,1.23,4.45.19,5.57-1.65,1.77-7.76,1.31-11.12,1.12a2.78,2.78,0,0,0,1.72-2.89,60.64,60.64,0,0,0-1.37-9.16c-.46-2.38-.73-5.16-2.5-6.95a.51.51,0,0,0-.73,0c-1.44,1.8-1.53,4.18-1.71,6.42a50.65,50.65,0,0,0-.2,9.69,3.4,3.4,0,0,0,2.07,2.81c-7.06-.08-14.93-.41-21.65,1.67a.7.7,0,0,0,0,1.35c5.19,2,11.41,2.36,16.93,2.87,5.36.49,11.51,1.44,16.85.4,3.24-.63,6.83-1.8,7.85-5.29C339.8,342,339.19,336.89,335.78,334.84Z"/></g><g class="cls-6"><path class="cls-7" d="M309.27,339.72c-1.41-3.18-2.61-6.44-4.24-9.51a.71.71,0,0,0-1.29.17,28.47,28.47,0,0,0-1,11.1C303.17,347.08,311.64,345.05,309.27,339.72Z"/></g><path class="cls-2" d="M355,131.36a1.26,1.26,0,0,1-1.15-1.77c2.2-4.87,7.64-17.13,10.93-25.82a1.24,1.24,0,0,1,1.09-.8,1.26,1.26,0,0,1,1.18.66c1.49,2.81,6.76,12.67,11.73,21.25l2.54,4.32a1.28,1.28,0,0,1,0,1.23,1.25,1.25,0,0,1-1.05.65c-3.61.17-6.82.19-7.32.17-1.61,0-3.24-.08-4.81-.15s-3.11-.14-4.69-.15a83.69,83.69,0,0,0-8.37.4Zm7.88-2.92h.63c1.62,0,3.22.08,4.77.15s3.16.14,4.74.16c.34,0,2.44,0,5.08-.09l-.21-.35-1.28-2.19c-4-6.93-8.21-14.68-10.48-18.92-2.91,7.39-6.85,16.37-9.13,21.47C359.18,128.52,361.09,128.44,362.88,128.44Z"/><path class="cls-2" d="M379,128.94a1.25,1.25,0,0,1,0-2.5c2.13,0,4.24,0,6.36,0,1.32,0,2.63,0,3.94,0l-5-10c-.9,1.73-1.88,3.42-2.84,5.07s-1.77,3.05-2.58,4.59a1.25,1.25,0,1,1-2.23-1.13c.84-1.6,1.76-3.18,2.65-4.72,1.35-2.32,2.74-4.71,3.85-7.15a1.25,1.25,0,0,1,2.25,0l7,14.08a1.22,1.22,0,0,1-.05,1.21,1.27,1.27,0,0,1-1.05.6q-3,0-6,0C383.19,128.91,381.09,128.9,379,128.94Z"/><path class="cls-2" d="M395,240.36a1.26,1.26,0,0,1-.89-.37,97.87,97.87,0,0,1-6.83-7.62,1.25,1.25,0,0,1,.2-1.77c.58-.46,1.18-.91,1.78-1.36a37,37,0,0,0,5.25-4.53,1.21,1.21,0,0,1,.88-.42,1.27,1.27,0,0,1,.92.34l.14.13a80.66,80.66,0,0,0,7.42,6.52,1.26,1.26,0,0,1,.14,1.89,75.53,75.53,0,0,1-7.1,6l-1.14.89A1.25,1.25,0,0,1,395,240.36Zm-5-8.57c1.61,1.93,3.3,3.82,5.07,5.64l.27-.2c2-1.54,4-3.12,5.84-4.84-2-1.6-3.89-3.35-5.72-5.09a45.94,45.94,0,0,1-4.72,3.93Z"/><g class="cls-6"><path class="cls-7" d="M410.47,159.59a4.08,4.08,0,0,0-.33,6.17,4.87,4.87,0,0,0,3.73,1.37,5.5,5.5,0,0,0,4.05-2.36,2.86,2.86,0,0,0-1-3.93,2.92,2.92,0,0,0-3.93,1,.93.93,0,0,1-.1.1s-.13,0-.12,0l-.2.05a.9.9,0,0,1-.37-.38,1.38,1.38,0,0,1-.24-1C412.06,160,411.24,159,410.47,159.59Z"/><path class="cls-7" d="M361.61,171.86a1.51,1.51,0,0,0,1.36-1.68,33.93,33.93,0,0,1,0-6.13c.15-1.63-2.55-2-2.87-.39a37,37,0,0,0-.66,5.94,2.85,2.85,0,0,0-.66,0,56.46,56.46,0,0,0-6.93,1.11c-1.95.31-4,.21-5.58,1.55a1.18,1.18,0,0,0,0,1.66c1.52,1.43,3.79,1.33,5.78,1.53a30.13,30.13,0,0,0,7.53.09C361.41,175.21,362,173.41,361.61,171.86Z"/><path class="cls-7" d="M366.93,187.15a4.08,4.08,0,0,0-.33,6.17,4.87,4.87,0,0,0,3.73,1.37,5.5,5.5,0,0,0,4.05-2.36,2.88,2.88,0,0,0-1-3.94,2.93,2.93,0,0,0-3.93,1l-.1.1s-.14,0-.12,0l-.2,0a.81.81,0,0,1-.37-.37,1.33,1.33,0,0,1-.24-1C368.51,187.53,367.69,186.56,366.93,187.15Z"/><path class="cls-7" d="M386.43,181.62c-.71.83-2.3,2.84-3.38,1.41a1.85,1.85,0,0,0-3.42.92c-.22,2.37,2,4.07,4.17,4.41,2.63.43,4.83-1,6.7-2.67C393.26,183.17,388.82,178.82,386.43,181.62Z"/><path class="cls-7" d="M397.23,177.46c2,.55,4.37-.58,5.73-2.05a2.85,2.85,0,0,0-4-4.08s-.86.74-1,.86l-.07.07a2.15,2.15,0,0,0-2-.85,2.05,2.05,0,0,0-1.78,2A4.19,4.19,0,0,0,397.23,177.46Z"/><path class="cls-7" d="M424.55,180.86l-2-10.32c-.66-3.53-1.11-7.38-2.42-10.74a1.17,1.17,0,0,0-2.28.31c-.53,5.59.69,11.68,1.21,17.25q.38,4.19.77,8.37c.14,1.51,1.26,5.66.06,6.67a2.82,2.82,0,0,0-.33,3.94,15.85,15.85,0,0,0-2.42,1.5,2.86,2.86,0,0,0-1.65-3.26,3,3,0,0,0-2.33,0l-.21,0a3.79,3.79,0,0,0-1.68.41,4.19,4.19,0,0,0-1.79,2.32,29.39,29.39,0,0,0-1.87,5.74,1.51,1.51,0,0,0,1.33,1.79c-2.59,1.83-5.92,1.8-9,1.87-4.33.1-8.65-.16-13-.33-8.24-.33-16.71-.68-24.6,2.14a1.17,1.17,0,0,0,.31,2.28c9.51.31,19,1.24,28.44,1.83a88.19,88.19,0,0,0,13.5.13,15,15,0,0,0,6.68-1.95,2.39,2.39,0,0,0,2.74-1.31,42.88,42.88,0,0,1,3.63-5.94c1.35-1.83,3.07-3.42,4.31-5.31a1.52,1.52,0,0,0,.21-.45,2.64,2.64,0,0,0,1.54-.47c2.2-1.44,2.92-3.68,2.66-6.25C426.08,187.68,425.19,184.24,424.55,180.86Zm-13.21,23a3,3,0,0,0-.88.13,20.23,20.23,0,0,0,1.76-2.16l.89-1.22.19-.27a3.29,3.29,0,0,0,1,.11A44.58,44.58,0,0,0,411.34,203.87Z"/></g><path class="cls-4" d="M366.7,186.56s-2,3.07.45,4.67a3.16,3.16,0,0,0,4,0s1.69-1.67,1.14-3.2a3.92,3.92,0,0,0-2.57-2A3.65,3.65,0,0,0,366.7,186.56Z"/><path class="cls-4" d="M381.87,179.83s-2,3.07.45,4.67a3.16,3.16,0,0,0,4,0s1.69-1.67,1.14-3.2a3.92,3.92,0,0,0-2.57-2A3.65,3.65,0,0,0,381.87,179.83Z"/><path class="cls-4" d="M395.48,168s-2,3.08.45,4.67,4,0,4,0,1.68-1.67,1.14-3.19a4,4,0,0,0-2.57-2A3.69,3.69,0,0,0,395.48,168Z"/><path class="cls-4" d="M411.34,158.63s-2,3.07.45,4.66,4,0,4,0,1.69-1.66,1.15-3.19a4,4,0,0,0-2.58-2A3.67,3.67,0,0,0,411.34,158.63Z"/><path class="cls-2" d="M402,151.92c-2.93.1-6.59.21-10.85.21-5.6,0-11.85.27-16.88.49-3.42.15-6.37.28-8.15.28A60,60,0,0,1,354,151.8c-1.76-.33-2.72-.51-3.46,0s-.84,1.57-1,3.74c0,.32-.06.68-.09,1.06a.76.76,0,0,0,0,.21V157a.81.81,0,0,0,.77.81.8.8,0,0,0,.84-.73c.05-.51.08-1,.12-1.37a8.24,8.24,0,0,1,.39-2.59,7.11,7.11,0,0,1,2.18.25,60.79,60.79,0,0,0,12.46,1.13c1.82,0,4.79-.13,8.22-.28,5-.21,11.25-.48,16.81-.48,4.29,0,7.95-.12,10.9-.21,7.63-.24,11.45-.37,13.32,1.72s2.21,6.94,2.77,16.47c.33,5.6.78,13.18,1.76,22.82a.81.81,0,0,1-.3,1.55h-.7a44.16,44.16,0,0,0-8.87,7.77,11.5,11.5,0,0,1-1.73,1.71c0,.3,0,.6,0,.9a.81.81,0,0,1-.81.77h0a.8.8,0,0,1-.78-.83v-.07c-2.29.66-6.5.66-16.89.66-.61,0-1.67,0-3-.1l-.11.05a.73.73,0,0,1-.25,0,.8.8,0,0,1-.43-.13c-2.81-.14-6.6-.37-10.26-.6a.81.81,0,0,1-.52.5,1,1,0,0,1-.23,0,.8.8,0,0,1-.77-.57s0-.05,0-.07l-1.53-.09c-5.11-.33-9.53-.6-10.48-.6-1.82,0-3.37.1-4.62.18-.92.06-1.71.12-2.39.12h-.55a5.5,5.5,0,0,1-1.13,0,13.53,13.53,0,0,1-.11-3.52c0-1.29.07-2.91.07-5,0-4.18-.71-13.35-.7-13.35-.14-1.61-.31-3.24-.48-4.94s-.36-3.57-.54-5.49a.81.81,0,0,0-.88-.73.79.79,0,0,0-.72.88c.17,1.92.36,3.74.54,5.5a170.91,170.91,0,0,1,1.17,18.13c0,2.09,0,3.7-.07,5-.07,2.91-.1,4,.57,4.68s1.28.54,2.3.54h.53c.73,0,1.55,0,2.5-.12,1.29-.08,2.75-.18,4.51-.18.9,0,5.51.29,10.38.6,7,.44,14.94.94,17.27.94,17.82,0,18.16,0,21.43-3.69a44.8,44.8,0,0,1,10-8.51.81.81,0,0,0,.35-.75c-1.06-10.23-1.53-18.21-1.88-24C418.6,151.78,418.27,151.41,402,151.92Z"/><path class="cls-2" d="M352.45,170.64c2.23-.12,5-.26,8.45-.35a.82.82,0,0,0,.76-1,65.43,65.43,0,0,1-1.15-6.93c-.11-.79-.21-1.57-.32-2.35a.82.82,0,0,0-.8-.7c-1.18,0-2.42,0-3.62-.08s-2.5-.08-3.73-.08H350.1c-.75,0-1.51,0-2.25-.06s-1.51-.06-2.28-.06h-.27c-1.42,0-2,0-2.44.45a1.77,1.77,0,0,0-.35,1.42c0,.14,0,.31,0,.51,0,.93,0,1.77,0,2.52-.06,3.09-.08,4.79,1,5.85.8.77,2,1,4.13,1C348.88,170.82,350.45,170.74,352.45,170.64Zm-7.82-2c-.59-.57-.56-2.11-.52-4.67,0-.75,0-1.6,0-2.54,0-.22,0-.4,0-.56v-.19c.27,0,.72,0,1.18,0h.27c.74,0,1.49,0,2.22.06s1.52.07,2.31.07h.68l1.26,0c1.21,0,2.46,0,3.67.08,1,0,2,.07,3,.08.07.55.15,1.1.22,1.65.26,2,.53,4.06,1,6.12-3,.09-5.48.22-7.51.33C347.87,169.26,345.4,169.39,344.63,168.65Z"/><path class="cls-2" d="M389.57,159.43c-9.93.42-18.6.64-25.79.64a.81.81,0,0,0,0,1.62c7.21,0,15.91-.22,25.86-.65l.8,0c.73,0,1.43,0,2.13,0,.21-.36.43-.71.67-1.07-.21-.15-.46-.34-.72-.55-.68,0-1.37,0-2.08,0Z"/><path class="cls-2" d="M392.57,161l-.24.4a20,20,0,0,1-1.14,1.78.8.8,0,0,0,.17,1.12.78.78,0,0,0,.48.17.83.83,0,0,0,.65-.33,19.48,19.48,0,0,0,1.23-1.93,18.66,18.66,0,0,1,1.14-1.78A.78.78,0,0,0,395,160a1.39,1.39,0,0,0,0-.3.82.82,0,0,0-.34-.66,14.37,14.37,0,0,1-3.35-3,.81.81,0,0,0-1.41.79,11.22,11.22,0,0,0,2.57,2.6c.26.21.51.4.72.55C393,160.33,392.78,160.68,392.57,161Z"/><path class="cls-2" d="M352.46,193.42a.79.79,0,0,0-.39.83.82.82,0,0,0,.82.69.77.77,0,0,0,.27,0,.85.85,0,0,0,.22-.09c1.65-.51,8-2.51,11.46-3.65a1.17,1.17,0,0,0,.68-.54,3.74,3.74,0,0,1-.35-.94,1.21,1.21,0,0,0-.84-.05c-3.33,1.11-9.47,3-11.29,3.6H353A.77.77,0,0,0,352.46,193.42Z"/><path class="cls-2" d="M384.67,186.19a3.91,3.91,0,0,0,3-1.61,6.34,6.34,0,0,0,.75-1.46,3.47,3.47,0,0,0,.13-.88c0-2.52-2.48-4.08-4.78-4.08a3,3,0,0,0-1.39.33,4.14,4.14,0,0,0-2.15,4.59,3.74,3.74,0,0,0,.35.94A4.94,4.94,0,0,0,384.67,186.19Zm-1.52-6.27a1.34,1.34,0,0,1,.64-.15c1.52,0,3.17.94,3.17,2.47a2.59,2.59,0,0,1-2.29,2.34s-2.9-.11-2.9-2.4A2.57,2.57,0,0,1,383.15,179.92Z"/><path class="cls-2" d="M414.15,164.89a3.89,3.89,0,0,0,3-1.61,4,4,0,0,0,.75-1.46,3.1,3.1,0,0,0,.14-.88c0-2.52-2.49-4.08-4.79-4.08a3,3,0,0,0-1.39.33,4.17,4.17,0,0,0-2.25,3.69,4,4,0,0,0,.1.89,3.67,3.67,0,0,0,.35.95A5,5,0,0,0,414.15,164.89Zm-1.53-6.27a1.34,1.34,0,0,1,.64-.15c1.52,0,3.17.94,3.17,2.47a2.59,2.59,0,0,1-2.28,2.34s-2.91-.11-2.91-2.4A2.57,2.57,0,0,1,412.62,158.62Z"/><path class="cls-2" d="M373.09,187.78l-.13-.19a4,4,0,0,0-.66-1.23,3.77,3.77,0,0,0-2.85-1.12H369c-.31,0-.64,0-1,0h-.17a3.16,3.16,0,0,0-2.25,1.85,3.23,3.23,0,0,0-.5,1.55c0,.13,0,.28,0,.42,0,2.71,2.87,3.8,4.07,3.8a3.92,3.92,0,0,0,4.08-4A3.68,3.68,0,0,0,373.09,187.78Zm-3.93,3.45c-.3,0-2.46-.47-2.46-2.19a2.73,2.73,0,0,1,1.21-2.2,10.7,10.7,0,0,0,1.13,0h.41a2.12,2.12,0,0,1,1.71.66,1.26,1.26,0,0,1,.27.48l.1.21a2,2,0,0,1,.1.62A2.31,2.31,0,0,1,369.16,191.23Z"/><path class="cls-2" d="M395.24,172a.8.8,0,0,1-.47,1,2,2,0,0,0-.21.1,4.83,4.83,0,0,0,3.47,1.51,4.43,4.43,0,0,0,3.15-1.44,4.58,4.58,0,0,0,.9-1.42,3.39,3.39,0,0,0,.24-1.21c0-2.69-3.18-4.47-5.27-4.47a1.34,1.34,0,0,0-.35,0c-1.32,0-3.08,2.22-3.08,4.47a3.84,3.84,0,0,0,.16,1.1l.42-.19A.81.81,0,0,1,395.24,172Zm1.48-4.24.33,0c1.28,0,3.65,1.17,3.65,2.85a2.83,2.83,0,0,1-2.67,2.46s-2.79-.11-2.79-2.42A3.68,3.68,0,0,1,396.72,167.77Z"/><path class="cls-2" d="M371.27,187.63a.8.8,0,0,0,1.06.4l.43-.21c.87-.44,2.44-1.32,3.95-2.23,3.07-1.87,3.74-2.57,4-2.91l.09-.15a.81.81,0,0,0-.36-1.09.8.8,0,0,0-.89.11.84.84,0,0,0-.18.24c-.53.79-5.93,4-7.53,4.71l-.12.06A.8.8,0,0,0,371.27,187.63Z"/><path class="cls-2" d="M384.78,179a.68.68,0,0,0,.09.39.76.76,0,0,0,.27.29.84.84,0,0,0,.44.13.81.81,0,0,0,.39-.1,7.64,7.64,0,0,0,.73-.45,44.37,44.37,0,0,0,3.76-3,25.33,25.33,0,0,1,4.1-3.11,2,2,0,0,1,.21-.1.81.81,0,0,0-.57-1.51l-.42.19a27.08,27.08,0,0,0-4.37,3.3,43.8,43.8,0,0,1-3.5,2.79,7.55,7.55,0,0,1-.72.45A.8.8,0,0,0,384.78,179Z"/><path class="cls-2" d="M400.7,168.45a.82.82,0,0,0,.1.4.81.81,0,0,0,.71.42.75.75,0,0,0,.38-.1c.24-.13.49-.29.74-.45a42.63,42.63,0,0,0,3.75-3,26.4,26.4,0,0,1,4.11-3.11l.21-.09a.81.81,0,0,0-.57-1.52c-.13.06-.28.12-.42.2a26.93,26.93,0,0,0-4.37,3.29,43.34,43.34,0,0,1-3.5,2.79c-.25.17-.5.33-.72.45A.82.82,0,0,0,400.7,168.45Z"/><path class="cls-2" d="M407.46,207.25h0a.81.81,0,0,0,.81-.77c0-.3,0-.6,0-.9s0-.7,0-1.06c0-2.23-.16-4-.28-5.24-.14-1.45-.24-2.5.05-2.82.47-.5,2.61-.47,6.15-.41l4.67,0h.7a.81.81,0,0,0,0-1.61c-2.11,0-3.9,0-5.34-.05-4.67-.08-6.41-.1-7.37.93-.78.85-.66,2.06-.47,4.07.12,1.3.28,2.93.28,5.08,0,.62,0,1.24,0,1.83v.07A.8.8,0,0,0,407.46,207.25Z"/><path class="cls-2" d="M400.1,205.32h0a.8.8,0,0,0,.8-.76c0-.72.06-1.47.06-2.24,0-2.86-.25-5.72-.49-8.47-.2-2.26-.4-4.59-.46-6.87a.81.81,0,1,0-1.61,0c.06,2.33.26,4.69.46,7,.24,2.72.48,5.54.48,8.33,0,.74,0,1.47-.05,2.16A.8.8,0,0,0,400.1,205.32Z"/><path class="cls-2" d="M387,207.59a.59.59,0,0,0,.23,0,.8.8,0,0,0,.53-.5.85.85,0,0,0,0-.5c-.28-1-1.22-12.58-1.23-13.26a15.54,15.54,0,0,1,.08-1.57.81.81,0,0,0-.72-.88.82.82,0,0,0-.89.72c-.05.55-.08,1.12-.08,1.73,0,.1.87,12.08,1.28,13.66a.25.25,0,0,1,0,.07A.81.81,0,0,0,387,207.59Z"/><path class="cls-2" d="M366.6,207l.1-.05a.8.8,0,0,0,.41-1l0-.05a3.65,3.65,0,0,1-.24-1c-.07-1.88-.19-3.76-.31-5.59-.11-1.65-.22-3.36-.29-5a.81.81,0,0,0-1.61.07c.07,1.7.18,3.42.29,5.09s.24,3.69.3,5.54a5.53,5.53,0,0,0,.35,1.51.78.78,0,0,0,.34.42.77.77,0,0,0,.42.13A.78.78,0,0,0,366.6,207Z"/><path class="cls-2" d="M375,194a.81.81,0,0,0-1.61.11c.09,1.2.15,2.43.21,3.62a73.84,73.84,0,0,0,.84,9.09.81.81,0,0,0,.8.66h.14a.81.81,0,0,0,.65-.94,71.31,71.31,0,0,1-.82-8.88C375.12,196.48,375.06,195.24,375,194Z"/><path class="cls-2" d="M357.65,164.09a.81.81,0,0,0-1-.59,25.42,25.42,0,0,1-6.34.59h-2.67a.81.81,0,0,0,0,1.62h2.67a27.31,27.31,0,0,0,6.73-.63A.8.8,0,0,0,357.65,164.09Z"/><path class="cls-2" d="M398.38,336.15a5.23,5.23,0,0,1-5.26-5.25,5.47,5.47,0,0,1,4-5.33,4.65,4.65,0,0,1,5.85,4.79C402.91,334.34,400.56,336.15,398.38,336.15Zm-.65-8.16a3,3,0,0,0-2.11,2.94c0,2.56,2.73,2.71,2.76,2.72,1,0,2-1,2.07-3.32a2.29,2.29,0,0,0-2.13-2.42A2.09,2.09,0,0,0,397.73,328Z"/><path class="cls-2" d="M296.51,346.25a1.25,1.25,0,0,1-1.24-1.21c-.17-4.5-.45-9.11-.72-13.57l-.15-2.58a1.26,1.26,0,0,1,.37-1,1.25,1.25,0,0,1,1-.35c1.95.15,4.58.39,7.61.69a1.24,1.24,0,0,1,1.12,1.17c.16,2.75.22,5.54.28,8.23.05,2.37.1,4.83.22,7.23a1.25,1.25,0,0,1-2.49.13c-.13-2.45-.18-4.92-.23-7.3s-.1-4.71-.22-7.08c-1.89-.18-3.6-.34-5-.46l.07,1.14c.27,4.48.55,9.1.71,13.63A1.26,1.26,0,0,1,296.51,346.25Z"/><path class="cls-2" d="M310.83,346.18a1.25,1.25,0,0,1-1.25-1.27c.08-7.35.13-14-.13-20.74a1.23,1.23,0,0,1,.35-.92,1.29,1.29,0,0,1,.91-.37c1.26,0,2.52.06,3.79.11s2.48.09,3.72.11h.19a1.24,1.24,0,0,1,1.25,1.21c.11,3.57.13,7.16.15,10.64,0,3.23,0,6.58.12,9.9a1.25,1.25,0,0,1-2.49.07c-.09-3.35-.11-6.71-.13-10,0-3.07,0-6.24-.11-9.38l-2.8-.1L312,325.4c.21,6.35.16,12.63.09,19.54A1.25,1.25,0,0,1,310.83,346.18Z"/><path class="cls-2" d="M325.5,346.1a1.25,1.25,0,0,1-1.24-1.19c-.14-2.49-.2-5-.25-7.51,0-1.31-.06-2.63-.1-3.93a1.24,1.24,0,0,1,.36-.93,1.28,1.28,0,0,1,.93-.36c2.44.08,5.16.13,8.29.17a1.23,1.23,0,0,1,1.23,1.22c0,1.29,0,2.57.06,3.85,0,2.39,0,4.87.17,7.32a1.25,1.25,0,0,1-2.49.13c-.14-2.5-.16-5-.18-7.43l0-2.61-5.81-.11c0,.87.05,1.75.07,2.63.05,2.44.11,5,.24,7.43a1.24,1.24,0,0,1-1.18,1.31Z"/><path class="cls-2" d="M294.36,346.26a1.25,1.25,0,0,1-1.25-1.25,1.24,1.24,0,0,1,1.24-1.25l40.31-.2a1.25,1.25,0,0,1,0,2.5Z"/><path class="cls-1" d="M267.45,207.49c-7,2.33-13.16,6.55-20.51,1.54-3.72-2.54-5.52-6.89-8-10.53a6.42,6.42,0,0,0-2.41-3.32,31.08,31.08,0,0,0,10.55-11.08c9.25-16.28,4.45-36.78-5.72-51.41-2.67-3.84-8.49-.54-6.31,3.69,6.58,12.82,11.49,27.19,5,41.1-2.72,5.87-7.6,11-13.71,13.37a34.4,34.4,0,0,1-9.51,2.28c-2.27.18-4.35,0-6.49.24-2.78-2.25-5.91-3.85-8.36-6.59-2.69-3-5-6.21-8.19-8.75-.08-.06-.18,0-.16.09A36.48,36.48,0,0,0,200,192.81c1.64,2.15,3.68,3.64,5.62,5.47,2.55,2.4,2.67,4.46,3.53,7.61a2.28,2.28,0,0,0,3.31,1.34c3.62-1.9,3.6-5.38,2.17-8.5a26.64,26.64,0,0,0,11.55.45,5.28,5.28,0,0,0,.12,3c1.15,3.23,2.42,6.41,3.85,9.51a44.89,44.89,0,0,0,2.39,4.56c.48.8,2.54,3.1,2.66,4.06a14.84,14.84,0,0,1-1.66,1.79,49.38,49.38,0,0,1-4.82,3.71c-2.38,1.64-5,2.83-7.18,4.75a.48.48,0,0,0,.2.79c3.77,1.4,7.9-.05,11.55-1.3s8.1-2.47,10.47-5.74a8,8,0,0,0,1.55-5.2c5,1.65,10.16-.56,14.93-2.29,3.73-1.36,8.14-3.36,8.94-7.62A1.42,1.42,0,0,0,267.45,207.49Z"/><path class="cls-1" d="M128.41,313.05c1.3,4.73,1,11.35,5.4,14.34A2.68,2.68,0,0,0,137,327c4-3.9,2.06-11.71,1.31-16.66-1-6.43-2.78-12.55-6.55-17.92-4-5.65-9.51-10.11-14.56-14.78-4.65-4.29-9.65-10.39-16-11.87a.71.71,0,0,0-.87.86c.85,5.78,5.42,10.46,8.87,14.93,4.09,5.28,8.27,10.5,12,16A51.38,51.38,0,0,1,128.41,313.05Z"/><path class="cls-1" d="M83.89,279c-3.31-1.69-7-2.43-10.65-3.21-3.89-.84-8-2-12-1.54a.57.57,0,0,0-.4,1c4.19,4,10.61,6.22,15.87,8.4,2.37,1,5,1.69,7.1,3.15s3.11,4,4.73,6a1.17,1.17,0,0,0,2-.52A12.66,12.66,0,0,0,83.89,279Z"/><path class="cls-2" d="M217.09,197.92a22.44,22.44,0,0,1-3.5-.27,1.25,1.25,0,0,1,.39-2.47,21.12,21.12,0,0,0,3.58.24,25.73,25.73,0,0,0,11.83-3.09c12.87-7,18.41-24.34,18.12-37.47-.22-9.19-4.14-17.86-10.49-23.18a1.25,1.25,0,0,1,1.61-1.91c6.89,5.77,11.14,15.13,11.37,25,.32,13.86-5.63,32.2-19.42,39.71a28.21,28.21,0,0,1-13,3.39Z"/><path class="cls-2" d="M213.79,197.66l-.21,0c-8.71-1.43-15.64-8.53-19.58-20-4.82-.44-7.62-3.16-7.72-7.57a8.32,8.32,0,0,1,3.9-7,1.3,1.3,0,0,1,.26-.14,1.23,1.23,0,0,1-.23-.63c-.17-2-.24-4.06-.22-6,.11-10.36,2.6-18.6,7.41-24.5,5.35-6.57,13.29-9.84,23.55-9.72,7.83.08,16.51,1.85,25.81,5.25a1.25,1.25,0,0,1,.81,1.25,1.23,1.23,0,0,1-1,1.14c-2.6.61-5.51,1.4-8.43,2.27-10.79,3.23-24.91,8.6-32.69,14.14,0,.46,0,.92,0,1.37,0,3.34-.6,11.59-5,15.89a8.71,8.71,0,0,1-6.33,2.54,12.47,12.47,0,0,1-3-.44,5.71,5.71,0,0,0-2.37,4.59c.08,3.3,2.16,5,6.19,5.18a1.23,1.23,0,0,1,1.14.86c2.08,6.38,7.17,17.36,17.89,19.12a1.25,1.25,0,0,1-.2,2.49Zm-21.55-34.55a9.41,9.41,0,0,0,2,.25,6.12,6.12,0,0,0,4.55-1.83c2.58-2.53,4.17-7.81,4.24-14.13,0-.65,0-1.28,0-1.91a1.34,1.34,0,0,1,.5-1.07c9.95-7.37,28.52-13.26,34-14.89,1.5-.45,3-.88,4.48-1.28a71.57,71.57,0,0,0-21-3.74c-9.48-.12-16.74,2.85-21.58,8.8-4.38,5.37-6.75,13.31-6.85,22.95,0,1.88,0,3.83.21,5.78A1.22,1.22,0,0,1,192.24,163.11Z"/><path class="cls-2" d="M229.1,164.4a1.3,1.3,0,0,1-.64-.18,1.26,1.26,0,0,1-.43-1.72c.18-.29.39-.6.6-.93a6.56,6.56,0,0,0,1.32-2.75c0-.52-.49-.87-1.72-1.59-1.88-1.12-4.73-2.8-4.68-7.44a9.78,9.78,0,0,1,1.55-4.63,1.25,1.25,0,1,1,2.17,1.23,7.6,7.6,0,0,0-1.22,3.43c0,3.19,1.66,4.19,3.45,5.25,1.4.83,3,1.76,2.95,3.77a8,8,0,0,1-1.73,4.11q-.3.44-.54.84A1.27,1.27,0,0,1,229.1,164.4Z"/><path class="cls-2" d="M210.83,160.39a1.92,1.92,0,0,1-1.89-1.58,2.06,2.06,0,0,1,.87-2.33,1.24,1.24,0,0,1,.82-.09h.17a2.06,2.06,0,0,1,1.55.58,1.83,1.83,0,0,1,.51,1.36,2.07,2.07,0,0,1-.64,1.49A2,2,0,0,1,210.83,160.39Z"/><path class="cls-2" d="M238.39,153.32a2.09,2.09,0,0,1-2-2.27,2.47,2.47,0,0,1,1.19-2,1.24,1.24,0,0,1,1.63.23,1.18,1.18,0,0,1,.5.3l.1.07a1.72,1.72,0,0,1,.76,1.53A2.14,2.14,0,0,1,238.39,153.32Z"/><path class="cls-2" d="M222,182.25a9,9,0,0,1-6.5-2.52,1.25,1.25,0,0,1,1.79-1.75,6.66,6.66,0,0,0,4.72,1.77,1.25,1.25,0,0,1,0,2.5Z"/><path class="cls-2" d="M126.09,307.79a1.07,1.07,0,0,1-.39-.07,1.23,1.23,0,0,1-.8-1.57c1.38-4.26,2.71-8.11,4-11.78,20.59-56.31,43.25-65.51,59.8-72.23,1.61-.65,3.17-1.29,4.68-1.94,6.85-3,11.85-6.1,15.63-12.47l.2-.35c2-3.37,3-5.07,3.28-11a1.28,1.28,0,0,1,1.27-1.2,1.26,1.26,0,0,1,1.23,1.25c-.29,6.64-1.55,8.75-3.63,12.25l-.2.34c-4.11,6.93-9.68,10.4-16.79,13.49-1.52.66-3.1,1.31-4.73,2-17,6.9-38.19,15.49-58.39,70.77-1.34,3.64-2.65,7.46-4,11.69A1.25,1.25,0,0,1,126.09,307.79Z"/><path class="cls-2" d="M219.07,235.5c-13.38-.14-18.8-4.09-25.9-12.88a1.25,1.25,0,0,1,2-1.57c6.71,8.32,11.53,11.82,24,11.95,3.16,0,17.27-2.38,28.28-15a1.25,1.25,0,0,1,1.89,1.65C235.87,235,219.3,235.5,219.07,235.5Z"/><path class="cls-2" d="M273.12,346.13a1.25,1.25,0,0,1-1.24-1.21c-.07-1.76-.16-3.52-.25-5.28-.21-4.07-.42-8.28-.37-12.43.44-40.91,16-69.79,29.66-95.27,7.94-14.78,15.43-28.73,19.31-43.54A81.42,81.42,0,0,0,323,168.47c.15-14.47-4.24-37.7-7.78-56.36-2.32-12.29-4.16-22-4.11-26.09.08-7.6,5.67-15.45,10.61-22.38,3.77-5.28,7.33-10.27,7.37-13.75a.25.25,0,0,0,0-.14c-1.61,0-3,2.41-4,4.18a10,10,0,0,1-1.76,2.53c-5,4.35-10.22,4.89-14.82,5.36-7.77.8-12.91,1.33-13.1,19.73-.06,5.47.43,11.13.9,16.6s1,11.32.92,17c-.18,16.84-2.82,42.54-9.7,64.19-8.55,26.91-21.75,41-38.15,40.87a11.31,11.31,0,0,1-1.17-.07c-10.17-1-16.7-14.32-19.41-26.41a1.25,1.25,0,0,1,2.43-.55c2.41,10.73,8.38,23.58,17.25,24.47a9.52,9.52,0,0,0,1.18.06c10.59,0,25.23-6.85,35.48-39.12,6.8-21.39,9.42-46.81,9.59-63.47.06-5.53-.43-11.22-.91-16.72s-1-11.26-.91-16.85c.22-20.63,7.23-21.35,15.34-22.18,4.45-.46,9-.94,13.44-4.77a9.69,9.69,0,0,0,1.22-1.88c1.31-2.29,3.1-5.43,6.17-5.43a2.55,2.55,0,0,1,2.53,2.65c-.05,4.27-3.66,9.33-7.83,15.18-4.73,6.63-10.08,14.14-10.15,21-.05,3.85,1.86,13.92,4.07,25.59,3.55,18.78,8,42.14,7.82,56.86A83.43,83.43,0,0,1,322.64,189c-3.94,15.1-11.51,29.18-19.52,44.09-13.56,25.23-28.92,53.82-29.36,94.12-.05,4.07.16,8.24.37,12.27.09,1.77.18,3.54.24,5.32A1.26,1.26,0,0,1,273.12,346.13Z"/><path class="cls-2" d="M131.21,359.18h-.1c-15.26-.17-31-26.77-46.83-79.07-11.92-1.42-34.83-7.28-34.71-17.28a3.51,3.51,0,0,1,3.49-3.66c1.78,0,3.43,1.05,5.18,2.15,2.09,1.31,4.25,2.67,6.92,2.7a39.71,39.71,0,0,0,5.49-.92c4.89-1,11.6-2.37,18.16-2.29a45.43,45.43,0,0,1,4.84.32c2.41.28,6.85,1.26,9.53,4.71,7.6,9.74,16.35,24.37,24,40.15,3.23,6.64,6.25,13.44,9,20.2a1.25,1.25,0,1,1-2.31.93c-2.71-6.7-5.7-13.45-8.91-20-7.6-15.62-16.26-30.1-23.75-39.71-1.55-2-4.41-3.36-7.85-3.75a43.3,43.3,0,0,0-4.58-.31c-6.31-.1-12.85,1.26-17.63,2.24a38.4,38.4,0,0,1-6,1c-3.37,0-6.06-1.73-8.22-3.08-1.5-.95-2.81-1.76-3.87-1.77-.9,0-1,.91-1,1.19-.09,7.26,19.64,13.4,33.3,14.86a1.25,1.25,0,0,1,1.06.88c15.11,50.2,31,77.93,44.71,78.08,3.81.05,6.89-2.93,9.37-5.84,9.49-11.1,17.21-21.76,24-37.73a201,201,0,0,0,8-22.88,1.27,1.27,0,0,1,1.26-.9,1.25,1.25,0,0,1,1.17,1c.4,2,.85,4.05,1.31,6.11.55,2.51,1.13,5.11,1.64,7.8,2,10.63,3.24,20.95,4.41,30.93.46,4,1,8.2,1.49,12.36a1.25,1.25,0,0,1-1.09,1.39,1.23,1.23,0,0,1-1.39-1.08c-.54-4.17-1-8.34-1.5-12.38-1.15-9.93-2.35-20.21-4.37-30.75-.51-2.65-1.08-5.24-1.63-7.73l-.3-1.36a196.16,196.16,0,0,1-6.7,18.48c-6.94,16.25-14.78,27.09-24.41,38.37C139.74,355.59,136.06,359.18,131.21,359.18Z"/><path class="cls-2" d="M165.68,314.86a1.54,1.54,0,0,1-.42-.07c-10.36-3.61-25.29-12.15-35.81-18.93a1.25,1.25,0,0,1-.37-1.73,1.23,1.23,0,0,1,1.72-.37c13.07,8.43,26.92,15.75,35.29,18.66a1.26,1.26,0,0,1-.41,2.44Z"/><path class="cls-2" d="M321.44,190l-.22,0c-11-1.89-20.62-5-29.08-7.82-2.18-.71-4.25-1.39-6.21-2a1.25,1.25,0,1,1,.75-2.39c2,.62,4.05,1.3,6.24,2,8.37,2.75,17.87,5.87,28.73,7.72a1.25,1.25,0,0,1-.21,2.49Z"/><path class="cls-1" d="M349.72,80.33C354,81.8,361.14,85,364.22,80c2.68-4.33-.13-10.63-1.6-14.93-1.75-5.1-9.43-3.08-8.13,2.24.39,1.6.79,3.19,1.29,4.77.3.94.64,1.87.91,2.82,0,.07.06.23.09.4a12,12,0,0,0-2.08.42,50.56,50.56,0,0,0-5,1.29A1.73,1.73,0,0,0,349.72,80.33Z"/><path class="cls-1" d="M381,77.24c.57,1.85,1.17,3.7,1.74,5.54a17.2,17.2,0,0,1,.58,1.94c0,.21,0,.73.07,1-.33.08-.84.3-1,.34l-2.79.64a14.56,14.56,0,0,0-4.72,1.5.77.77,0,0,0,0,1.3c2.13,1.33,5.07,1.63,7.51,2.12s4.91.33,6.75-1.54c3.77-3.81,1.16-10.73.28-15.2C388.27,69.47,379.26,71.83,381,77.24Z"/><path class="cls-1" d="M388.24,50a14.29,14.29,0,0,0,.73,4,3.61,3.61,0,0,1,.14,2.56c-.75,1.91-2.36,2.11-4.13,2.32a1.69,1.69,0,0,0-1.44,2.51c2.34,4,8.78,4,11.87,1,4.15-4,4.3-11.39,0-15.33C392.83,44.65,388.13,46.18,388.24,50Z"/><path class="cls-2" d="M387.09,54.22H387a4.55,4.55,0,0,1-1.39-.23,4.29,4.29,0,0,1-3.09-4.19A5.24,5.24,0,0,1,384,46.26a4.52,4.52,0,0,1,3.45-1.51,4.63,4.63,0,0,1,1.58.3l.21.07a2.12,2.12,0,0,1,.91.48c.2.21.38.37.55.53a3.63,3.63,0,0,1,1.52,3.15,5.19,5.19,0,0,1-2.69,4.28A4.86,4.86,0,0,1,387.09,54.22Zm.3-7.17a2.39,2.39,0,0,0-1.74.79,3,3,0,0,0-.8,2,2,2,0,0,0,1.49,2,2.43,2.43,0,0,0,.74.12,2.49,2.49,0,0,0,1.29-.36,2.87,2.87,0,0,0,1.53-2.3c0-.73-.14-.86-.76-1.43-.17-.15-.35-.31-.54-.5l-.06,0a2.13,2.13,0,0,1-.33-.11A2.8,2.8,0,0,0,387.39,47.05Z"/><path class="cls-2" d="M381.87,62.21A1.15,1.15,0,0,1,380.73,61c.37-4.05,2-7.2,4.6-8.85A1.15,1.15,0,0,1,386.56,54c-2.15,1.36-3,3.89-3.37,5.83,2.74-.08,5.7-.11,9.15-.08a12.17,12.17,0,0,0-3-4.86,10.35,10.35,0,0,1-1.39-1.81,1.26,1.26,0,0,1-.17-.59,1.15,1.15,0,0,1,1.15-1.15,1.13,1.13,0,0,1,1,.54A.75.75,0,0,1,390,52a8.8,8.8,0,0,0,1.09,1.37c1.39,1.57,3.49,4,3.79,7.44a1.15,1.15,0,0,1-1.16,1.25C389.08,62.05,385.33,62.08,381.87,62.21Z"/><path class="cls-2" d="M355.67,69.13a5.53,5.53,0,0,1-1.94-.37,4.57,4.57,0,0,1-2.92-4.49c0-2.24,1.46-4.79,4.08-5.1a4,4,0,0,1,.77,0c2.94,0,5.18,2.06,5.15,4.72a5,5,0,0,1-3.19,4.81,7,7,0,0,1-1.68.44h-.07Zm-.22-7.7-.31,0c-1.23.15-2,1.59-2,2.85a2.26,2.26,0,0,0,1.45,2.32,3.63,3.63,0,0,0,1.07.21,4.71,4.71,0,0,0,1.11-.28,2.7,2.7,0,0,0,1.77-2.72c0-1.55-1.45-2.38-2.92-2.39Z"/><path class="cls-2" d="M347.45,79.24a1.13,1.13,0,0,1-.81-.34,1.11,1.11,0,0,1-.33-.86c.19-4.29,2.93-8.56,7.15-11.15a1.15,1.15,0,0,1,1.21,2,12.7,12.7,0,0,0-5.92,8c2.67-.11,7.68-.31,12.18-.53-.53-2.4-1.75-6.14-4.35-7.77a1.15,1.15,0,1,1,1.21-2c3.94,2.46,5.26,8.25,5.65,10.62a1.18,1.18,0,0,1-.24.91,1.16,1.16,0,0,1-.84.43C356.63,78.88,349.54,79.16,347.45,79.24Z"/><path class="cls-2" d="M379.94,80.85h-.09a5,5,0,0,1-1.85-.37,4.3,4.3,0,0,1-2.52-4.09A5.3,5.3,0,0,1,377,72.77a3.42,3.42,0,0,1,1.33-.83,5,5,0,0,1,1.64-.26A4.54,4.54,0,0,1,383.23,73a4.46,4.46,0,0,1,1.28,3.17,4.68,4.68,0,0,1-2.6,4.22A4.62,4.62,0,0,1,379.94,80.85ZM380,74a3,3,0,0,0-.92.14,1.55,1.55,0,0,0-.44.3,2.91,2.91,0,0,0-.83,2,2,2,0,0,0,1.14,2,2.76,2.76,0,0,0,1,.18,2.3,2.3,0,0,0,1-.21,2.36,2.36,0,0,0,1.29-2.16,2.17,2.17,0,0,0-.62-1.54A2.23,2.23,0,0,0,380,74Z"/><path class="cls-2" d="M373.22,90.09a1.18,1.18,0,0,1-.82-.35,1.12,1.12,0,0,1-.32-.84,12.64,12.64,0,0,1,5.74-10.27,1.16,1.16,0,0,1,1.59.37,1.15,1.15,0,0,1-.36,1.58,10.24,10.24,0,0,0-4.57,7.2h3.62c2.34,0,4.75,0,7.13,0a10.11,10.11,0,0,0-4.35-7.17,1.15,1.15,0,1,1,1.35-1.86,12.38,12.38,0,0,1,5.39,10.1,1.1,1.1,0,0,1-.3.83,1.14,1.14,0,0,1-.81.37c-2.8.09-5.66.08-8.41.07C376.47,90.08,374.85,90.07,373.22,90.09Z"/><g class="cls-8"><path class="cls-9" d="M109.65,76.82c-.32-3.83.16-9.25-2.66-12.12a1.75,1.75,0,0,0-2.72.35c-1.91,3-.42,6.68-1.27,10.11a18.26,18.26,0,0,1-6.56,9.29c-2.87,2.06-6.63,2.78-10,3.76A70.15,70.15,0,0,1,73,90.5a196.34,196.34,0,0,1-25.67.5A113.62,113.62,0,0,1,35,90c-4-.61-8-1.79-12-1.52a1.43,1.43,0,0,0-1.22,2.12c5.1,7.33,16.62,8.31,24.77,8.9,11.55.83,23.44,1.34,35,.09,9.3-1,20-1.84,26-10.17C110.21,85.52,110,81.34,109.65,76.82Z"/></g><path class="cls-10" d="M66.36,97.06l-5.9,0c-34.56-.38-43.24-2-43.11-13.68.27-25.68,4.72-25.64,79.07-24.83,9.51.1,13.21,9.53,13.37,15.84,0,0-1.24,0-1.24,0l1.25,0c0,.62,0,1.24,0,1.85-.11,9.44-3,14.46-10.1,17.32C93.64,96,84.06,97.06,66.36,97.06Zm3-36.24c-49.31,0-49.34,3.27-49.54,22.56-.1,9.11,6,10.77,40.64,11.15,17.66.19,30.92-.29,38.28-3.26,6.13-2.47,8.44-6.55,8.54-15,0-.59,0-1.18,0-1.77l1.25-.06-1.25,0c-.1-3.7-2.25-13.32-10.91-13.41C86.06,60.9,77.11,60.82,69.39,60.82Z"/><text class="cls-11" transform="translate(37.7 84.68)">ENROLL</text><g class="cls-8"><path class="cls-9" d="M123.57,165.34c-1.33-1.71-4.68-.78-5,1.32-.71,4.42.8,8.81-.1,13.23-1,4.89-4.41,7.16-8.87,8.76-10.17,3.65-21.63,4.88-32.33,5.78-5.24.44-10.49.75-15.74,1.14-5.59.43-11.09,1.44-16.72,1.48-11,.06-21.86-1.84-32.8-1.83a.48.48,0,0,0-.23.88c11.05,7,24.78,7.77,37.43,9.34,13.09,1.62,25.67,1,38.75-.74a93.18,93.18,0,0,0,18.37-4.12c5.18-1.81,11.08-3.68,15.33-7.28C129.44,186.68,129.69,173.21,123.57,165.34Z"/></g><path class="cls-10" d="M69.74,201.83l-4.54,0h-.67C14.31,201.54,3.86,201.49,4,180.4c.1-20.83,13.74-21.69,42.1-21.54,2.89,0,5.79.06,8.68.11s5.81.1,8.73.11c7.35,0,11-.15,14.56-.33,3.19-.16,6.2-.32,11.61-.29h.46c23.8.13,33.65.18,33.53,22.47l-1.25.08h1.25a14.21,14.21,0,0,1-2.35,7.85C113.46,200.93,86.92,201.83,69.74,201.83ZM42.55,161.35c-27.1,0-36,2-36.08,19.07C6.37,198.31,13,199,64.54,199.31h.67c16.13.09,46.16.24,54-11.81a11.7,11.7,0,0,0,2-6.49v-.09c.11-19.79-7.11-19.83-31-20h-.46c-5.34,0-8.32.13-11.48.29-3.57.18-7.27.37-14.69.33q-4.39,0-8.76-.11c-2.88-.05-5.77-.1-8.65-.11ZM122.39,181h0Z"/><text class="cls-11" transform="translate(35.85 186.11)">UPSELLS</text><g class="cls-8"><path class="cls-9" d="M127.7,219.2a1.1,1.1,0,0,0-1.7.22c-1.69,3.24-1,6.66-1.7,10.17-.91,4.62-3,8.21-7.59,9.79-8.88,3.07-19.17,3.58-28.47,4.36-9.65.81-37.15,1.69-46.83,1.32-9.45-.36-19.34-3.2-28.74-1.51a1.09,1.09,0,0,0-.47,1.81c7.69,7.87,20.69,8.46,31,9.15,12.49.84,42.18,0,54.57-1.78,9.77-1.37,22.5-1,29.86-8.67C133.23,238.24,134.11,224.86,127.7,219.2Z"/></g><path class="cls-10" d="M67.55,251.17c-4.33,0-23.54,0-28.51-.09-9.69-.1-16.67-.73-21.53-3.5-5.32-3-7.75-8.55-7.65-17.33.07-7,.33-11.4,3.3-14.31,4.79-4.68,15.79-4.55,45.19-4.19,2.88,0,20.52.07,23.76.1,2.27,0,4.52,0,6.73,0,20.93.06,39,.11,39.31,15.32l-1.25,0,1.25,0c0,.71,0,1.43,0,2.16C128,246.56,122.42,251.17,67.55,251.17Zm-27-37.08c-15.27,0-22.54.66-25.59,3.64-2.28,2.23-2.49,6.23-2.55,12.55-.09,7.89,1.88,12.55,6.39,15.13s11,3.07,20.32,3.17c35.45.38,66.64-.51,75.87-3.3,9-2.74,10.62-7.12,10.72-15.9,0-.71,0-1.41,0-2.09l1.25-.06-1.25,0c-.27-12.77-17.2-12.81-36.81-12.87-2.22,0-4.48,0-6.76,0-3.24,0-20.88-.07-23.76-.1C51.42,214.16,45.52,214.09,40.5,214.09Z"/><text class="cls-11" transform="translate(19.39 237.74)">COMMISSIONS</text><g class="cls-8"><path class="cls-12" d="M380.27,7.61a1.09,1.09,0,0,0-1.7.21c-1.69,3.25-1,6.67-1.7,10.18-.91,4.61-3,8.21-7.59,9.78-8.88,3.08-19.17,3.59-28.47,4.37-9.65.81-52.37,1.69-62.05,1.32-9.45-.36-19.34-3.2-28.73-1.51a1.08,1.08,0,0,0-.48,1.8c7.7,7.87,20.69,8.47,31,9.16,12.49.84,57.4-.05,69.79-1.79,9.77-1.36,22.5-1,29.86-8.67C385.8,26.65,386.68,13.27,380.27,7.61Z"/></g><path class="cls-13" d="M320.1,39.57c-4.33,0-38.74,0-43.71-.08-9.69-.1-16.67-.73-21.53-3.51-5.32-3-7.75-8.54-7.65-17.32.07-7,.33-11.4,3.3-14.31C255.31-.34,266.3-.2,295.7.15c2.88,0,35.71.08,39,.11,2.27,0,4.52,0,6.73,0,20.92.06,39,.11,39.3,15.32l-1.25,0,1.26,0c0,.71,0,1.43,0,2.16C380.52,35,375,39.57,320.1,39.57ZM277.85,2.5c-15.27,0-22.54.66-25.59,3.64-2.28,2.23-2.49,6.23-2.55,12.55-.09,7.88,1.88,12.55,6.39,15.12s11,3.08,20.32,3.18c35.45.38,81.84-.51,91.07-3.3,9.05-2.74,10.62-7.12,10.71-15.9,0-.71,0-1.41,0-2.09l1.24-.06-1.24,0C377.93,2.9,361,2.86,341.38,2.8c-2.22,0-4.47,0-6.75,0-3.24,0-36.08-.07-39-.11C288.77,2.57,282.88,2.5,277.85,2.5Z"/><text class="cls-11" transform="translate(261.1 26.15)">PARTICIPATION</text><g class="cls-8"><path class="cls-9" d="M112.54,110.84a3.23,3.23,0,0,0-4.68,1.91c-1,3.8,1.27,7.31,1,11.24a19.5,19.5,0,0,1-5.47,12.31c-3.59,3.41-9.26,3.28-13.9,3.76q-8,.83-16,1.52c-10.21.9-20.41,1.62-30.67,1.7-5.42.05-10.83-.17-16.25-.47-2-.11-5.68-.94-7.06,1l-.17.25a2.94,2.94,0,0,0,.44,3.47c3,3.86,9.62,4.33,14.1,5a98.72,98.72,0,0,0,18.59.58c12.36-.58,24.72-1.9,37-3.24,10.51-1.14,20.23-2.61,25.31-13.09C117.9,130.37,120.14,115,112.54,110.84Z"/></g><path class="cls-10" d="M45.65,148.68H44.14c-14.47-.17-32.48-.37-32.3-15.92,0-1.36,0-2.75-.09-4.23s-.1-3-.09-4.58c.18-16.1,2.45-19.11,72.77-18.35,11.82.13,19.09.62,23.67,2.85s6.61,6.35,6.53,14a43.82,43.82,0,0,1-1,9.54c-.11.51-.22,1-.32,1.51-.6,2.88-1.22,5.85-3.78,8.16C102,148.39,53.58,148.68,45.65,148.68ZM67.21,108c-52.88,0-52.91,3.74-53,16,0,1.48,0,3,.09,4.47s.1,2.93.09,4.34c-.15,13.06,15.78,13.24,29.83,13.4h.42c11,.12,56.84-.65,63.23-6.42,2-1.76,2.43-4.1,3-6.81.11-.52.22-1,.34-1.56a42.07,42.07,0,0,0,1-9c.07-6.58-1.37-9.86-5.13-11.69-4.15-2-11.14-2.48-22.6-2.6C78.13,108,72.41,108,67.21,108Z"/><text class="cls-11" transform="translate(36.35 134.26)">RENEW</text><path class="cls-10" d="M152.57,195.81a74.55,74.55,0,0,0,11-.67c1.24-.2,2.36-.88,2.32-2.3s-1.68-3.11-2.48-4.27a1.41,1.41,0,0,0-1.73-.53,10,10,0,0,0-7.25-3.21,1.44,1.44,0,0,0-1.1.55,7.35,7.35,0,0,0-.3-.94.47.47,0,0,0-.9,0,19.74,19.74,0,0,0-.08,4.21c0,1.43.1,2.86.17,4.29-.21.13-.42.28-.63.44C150.57,194.18,151.42,195.82,152.57,195.81Zm6-6.76a4.91,4.91,0,0,0-.86.07c-.18-.29-.35-.59-.52-.89A7.39,7.39,0,0,1,158.58,189.05Z"/><path class="cls-1" d="M152,218c-1.89.17-4.08.53-5.84-.32a.65.65,0,0,0-.89.89c1,2.08,4.34,2,6.3,2a15.41,15.41,0,0,0,7.28-1.24c1.78,1.92,4.15,3.58,6.84,3a7.17,7.17,0,0,0,5.25-7,1.35,1.35,0,0,0-.14-.55,1.12,1.12,0,0,0-.21-.78.68.68,0,0,0-.35-.28,7.91,7.91,0,0,0-.18-3.52.8.8,0,0,0-1.54.42,5.22,5.22,0,0,1-1,4,1.32,1.32,0,0,0-.42.29,4.58,4.58,0,0,1-3.61,1.66c-1.56,0-3.75-.39-4.16-2.17-.08-.39-.61-.33-.72,0a3,3,0,0,0-.12,1.61,1.76,1.76,0,0,0-.5.15A17.11,17.11,0,0,1,152,218Zm8.19.25a7.77,7.77,0,0,0,2.5,1,7.48,7.48,0,0,0,3.05.08,3.44,3.44,0,0,1-.95.5c-1.75.59-3.35-.33-4.73-1.4A1.59,1.59,0,0,0,160.14,218.26Z"/><path class="cls-1" d="M150.08,217.79c2.28,0,5.16-.27,7.07-1.64,1.13-.81.93-3.16-.81-3-2,.21-3.81.95-5.8,1.08a17.22,17.22,0,0,1-5.85-.62,19.93,19.93,0,0,1-4.88-2.17,45,45,0,0,1-4.36-3.27c-.33-.27-1,0-.82.47,1.43,3.77,5.16,6.56,8.81,8A18.59,18.59,0,0,0,150.08,217.79Z"/><path class="cls-1" d="M164,198.72c1.14,0,2.62.24,3.48-.67a1.71,1.71,0,0,0-.34-2.64l-.11-.06a1.71,1.71,0,0,0-1.6,0,1.61,1.61,0,0,0-.42,0l-1,.08-2,.14c-1.33.1-2.67.21-4,.27s-2.64.1-4,0a3.17,3.17,0,0,0-2.47.45.88.88,0,0,0,.38,1.46,26.64,26.64,0,0,0,7.8.93Z"/><path class="cls-1" d="M150.61,197.86l-.32.06c-.09-.41-.3-1.08-.32-1.18l-.84-3.49c-.56-2.34-1.15-4.65-1.81-6.95-.11-.39-.74-.33-.72.09.14,3.33.43,6.63.71,9.94.1,1.21-.11,3.1.63,4.12.87,1.22,2.29.75,3.47.32A1.51,1.51,0,0,0,150.61,197.86Z"/><path class="cls-1" d="M165.62,200.32a17.23,17.23,0,0,0-.67,2c-.24.72-.54,1.41-.81,2.11-.59,1.54,2.15,2.31,2.46.68a11.67,11.67,0,0,0,.2-4.63A.65.65,0,0,0,165.62,200.32Z"/><path class="cls-2" d="M151.08,181.2l-.59,0a.4.4,0,0,0-.31.13.38.38,0,0,0-.1.32,63.46,63.46,0,0,1,.91,12.86c0,1.1-.05,1.55.26,1.87a1.32,1.32,0,0,0,1,.27h.79c2.49,0,9-.59,10.1-.76,1.3-.19,2.56-.07,3.84-.14a.39.39,0,0,0,.28-.15.41.41,0,0,0,.08-.32C164.7,181.91,156.5,181.49,151.08,181.2Zm12,13.89c-1.11.16-7.53.74-10,.74h-.49a2.94,2.94,0,0,1-.77,0,4.46,4.46,0,0,1,0-1.3,62.59,62.59,0,0,0-.85-12.52H151c5.43.29,12.83.67,15.47,13A27.4,27.4,0,0,0,163.06,195.09Z"/><path class="cls-2" d="M131.47,203.87a.39.39,0,1,0,.76-.2,14.25,14.25,0,0,1-.42-3.63c0-3.53,1.89-7.38,5.17-10.57,2.9-2.82,6.43-4.64,9-4.66.91.77,1.37,10.4,1.37,15.63a.41.41,0,0,0,.13.29.41.41,0,0,0,.3.1c1.36-.12,2.68-.19,6.11-.19,2.46,0,3.75.06,4.78.11.66,0,1.18.06,1.82.06a37.74,37.74,0,0,0,4.3-.4c.55-.07,1.06-.13,1.2-.13h.75v.29c0,.19,0,.37,0,.56s0,.38,0,.57c0,.45.05,1,.08,1.25a1,1,0,0,1,0,.2,6,6,0,0,1-.34,1.79.38.38,0,0,0,.14.53.36.36,0,0,0,.2.06.39.39,0,0,0,.33-.19,6.51,6.51,0,0,0,.46-2.19,2.66,2.66,0,0,0,0-.28c0-.29-.08-.76-.08-1.17,0-.19,0-.37,0-.56s0-.38,0-.57v-.21a.8.8,0,0,0-.16-.65c-.21-.22-.49-.21-1.25-.22H166c-.18,0-.57,0-1.3.15a39.25,39.25,0,0,1-4.2.39c-.62,0-1.13,0-1.78-.06-1-.05-2.34-.11-4.82-.11-3.11,0-4.5,0-5.76.15,0-1.15-.07-4.51-.26-7.83-.44-7.52-1.18-8.15-1.84-8.15-5.64,0-15,7.75-15,16A15.39,15.39,0,0,0,131.47,203.87Z"/><path class="cls-2" d="M164.1,220.27a7.14,7.14,0,0,0,7.05-7.37,7.32,7.32,0,0,0-7.59-7.36l-.59,0a6.35,6.35,0,0,0-1,.15,6.53,6.53,0,0,0-5.42,6.46A7.86,7.86,0,0,0,164.1,220.27Zm-2-13.79a5.9,5.9,0,0,1,.9-.14l.55,0a6.55,6.55,0,0,1,6.81,6.58,6.37,6.37,0,0,1-6.27,6.59,7.08,7.08,0,0,1-6.8-7.32A5.77,5.77,0,0,1,162.11,206.48Z"/><path class="cls-2" d="M162,210.5a2,2,0,0,0,0-.34,1.25,1.25,0,0,0-1.13-.9.8.8,0,0,0-.4-.11,1.65,1.65,0,0,0-1.51,1.61c0,1,1.09,1.38,1.54,1.38A1.7,1.7,0,0,0,162,210.5Zm-2.28.26a.9.9,0,0,1,.7-.83.4.4,0,0,0,.27.11c.23,0,.48.14.51.28a1.1,1.1,0,0,1,0,.18,1,1,0,0,1-.75.86C160.39,211.36,159.75,211.18,159.75,210.76Z"/><path class="cls-2" d="M161.23,217.07a.47.47,0,0,0,.16,0,.4.4,0,0,0,.36-.24,71.74,71.74,0,0,1,4.35-7.28.39.39,0,0,0-.65-.43,71.59,71.59,0,0,0-4.42,7.39A.4.4,0,0,0,161.23,217.07Z"/><path class="cls-2" d="M164.92,215.18a1.49,1.49,0,0,0,1.42,1.43c.44,0,1.79-.63,1.79-1.71a1.79,1.79,0,0,0-1.6-1.68.53.53,0,0,0-.41.19A2.08,2.08,0,0,0,164.92,215.18Zm1.55-1.06.16-.08a1,1,0,0,1,.72.86c0,.49-.81.9-1,.92a.69.69,0,0,1-.63-.64C165.71,215,165.94,214.25,166.47,214.12Z"/><path class="cls-2" d="M156.16,216.85a8.91,8.91,0,0,0-1.7.27,13.54,13.54,0,0,1-3.66.39c-9.4,0-12.25-3.55-16.19-8.48a.39.39,0,0,0-.55-.06.39.39,0,0,0-.06.55c3.93,4.9,7,8.78,16.8,8.78a14,14,0,0,0,3.83-.42,9.39,9.39,0,0,1,1.57-.25.4.4,0,0,0,.37-.42A.38.38,0,0,0,156.16,216.85Z"/><path class="cls-10" d="M169.4,60.17c-1.09-1.12-3.37-.33-3.24,1.34.08,1.05.32,2.23-.49,3.07a3.39,3.39,0,0,1-3.51.54,3.06,3.06,0,0,1-2-2.4,2.43,2.43,0,0,1,1-2.35.61.61,0,0,0,.63-.27,1.22,1.22,0,0,0-.79-1.87c-1.24-.41-2.49.46-3.25,1.37a5.85,5.85,0,0,0,.73,8,7.73,7.73,0,0,0,9,1.09C170.26,67.07,172,62.79,169.4,60.17Z"/><path class="cls-1" d="M154.54,54.6a3,3,0,0,0-.87.1,1.85,1.85,0,0,0-1.33.07l-.22.12a1.41,1.41,0,0,0-2.1-.18,13.29,13.29,0,0,0-3.39,5.54c-1.59.94-2.2,2.57-2.31,4.51a23.15,23.15,0,0,0,.1,2.76,1.48,1.48,0,0,0-2.41.17,3.45,3.45,0,0,0-.47,1.1c-.07.29,0,1-.19,1.2-.51.63-2.54.56-3.26.67-2.43.37-4.86.73-7.3,1.06a.51.51,0,0,0-.34.78,17.72,17.72,0,0,0-1.82.32.73.73,0,0,0,0,1.39c2.75.57,5.83.33,8.64.36s5.65.14,8.44-.09,2.61-2.71,2.61-4.93c0-1.26-.07-2.53,0-3.8,0-.67,0-1.71.56-2.21a1.78,1.78,0,0,0,.56,0,1.8,1.8,0,0,0,2.67.33,2,2,0,0,0,2.21-1.71c.1-.85.21-1.7.32-2.54,0-.06,0-.12,0-.18,0-.26.09-.52.14-.78.11-.57.3-.55-.21-.55C156.82,58.15,156.82,54.63,154.54,54.6ZM143.86,71.29a6,6,0,0,0,.71-1.7c0,.18,0,.36,0,.53s.11.73.14,1.13A8.7,8.7,0,0,1,143.86,71.29Z"/><path class="cls-1" d="M173.59,61.87c5.38-3.43,6.21-10.85,4.8-16.54-.13-.54-1.06-.6-1.15,0-.45,2.7-.73,5.49-1.86,8a13.88,13.88,0,0,1-3.76,5C169.45,59.15,171.12,63.44,173.59,61.87Z"/><path class="cls-1" d="M164.41,53.51a23.4,23.4,0,0,0-3.65.11,14,14,0,0,0-1.58.22,1.78,1.78,0,0,1-1.47-.2.48.48,0,0,0-.65.65c.57,1.15.83,1.58,2.14,1.62,1.56.06,3.12-.14,4.69,0A11.46,11.46,0,0,1,168.46,57a3.08,3.08,0,0,0,3,.29,1.31,1.31,0,0,0,.65-1.12V55.9a1.12,1.12,0,0,0-1.39-1.06c-1,.14-1.8-.42-2.74-.71A14.53,14.53,0,0,0,164.41,53.51Z"/><path class="cls-2" d="M149.54,52.4a.48.48,0,0,1,0-.24c-1.54-.13-2.93-.21-3-.21h-1c-2.78,0-6.53-.26-7.94-.36l-.54,0c-4.23,0-7.56,2.25-9.62,6.49a22.31,22.31,0,0,0-2.08,8.85c0,3.72.09,5.32.94,6.07a2.28,2.28,0,0,0,1.63.49,19.67,19.67,0,0,0,2-.17,44.89,44.89,0,0,1,5.28-.34,16.51,16.51,0,0,1,2,.13h.07c.19,0,2.1,0,3.92-.17,3.43-.25,4.08-.64,4.08-1.26a.57.57,0,0,0,0-.13,15.87,15.87,0,0,1-.51-3.9.48.48,0,0,1-.31-.13.47.47,0,0,1,0-.66,1.12,1.12,0,0,1,.34-.24,21.89,21.89,0,0,1,2.07-8c1.15-2.3,3.22-5,6.56-5a.52.52,0,0,0,.3,0c2.13.14,3.1,1.95,3.57,2.83,0,0,.05.1.08.14a6.56,6.56,0,0,1,.76-.54l0,0c-.53-1-1.75-3.27-4.56-3.33a18,18,0,0,0-1.91-.27c-.48.15-1,.29-1.54.41A.47.47,0,0,1,149.54,52.4Zm-5.72,15.11a17.09,17.09,0,0,0,.48,4c-1,.41-5.44.63-7,.63a17.05,17.05,0,0,0-2.09-.13,44.23,44.23,0,0,0-5.39.35c-1.55.18-2.49.28-2.9-.09-.58-.52-.63-2.38-.63-5.38a21.32,21.32,0,0,1,2-8.44c1.93-4,4.89-6,8.78-6l.48,0c1.43.09,5.2.36,8,.36h1c.25,0,2.37.14,4.21.31C145.88,55.34,143.82,63.07,143.82,67.51Z"/><path class="cls-2" d="M166.8,41l-3.08.2-3.05.19c-1.79,0-2.3,1.5-2.89,3.24-.08.23-.16.47-.25.71h.09l0,0a.46.46,0,0,1,.62.21.48.48,0,0,1-.21.63,1,1,0,0,1-.44.1l-.44,0c-.93,2.21-2.62,4.62-7.28,5.62a.45.45,0,0,0-.35.31.48.48,0,0,0,0,.24.47.47,0,0,0,.55.36c.55-.12,1.06-.26,1.54-.41,5-1.62,6.22-5.08,7-7.44.6-1.77.93-2.61,2-2.61l3.11-.2,3.1-.19c6-.49,9.2-.62,9.85,0,.2.19.19.54.16,1.19,0,.23,0,.48,0,.75,0,10.57-6.18,13.88-6.24,13.9a.47.47,0,0,0-.3.59.48.48,0,0,0,.44.32l.15,0c1-.31,5.64-3.7,6.67-11.59a.48.48,0,0,1-.19-.37.47.47,0,0,1,.28-.43,22.75,22.75,0,0,0,.12-2.39c0-.25,0-.49,0-.7a2.25,2.25,0,0,0-.44-1.91C176.52,40.42,174.44,40.37,166.8,41Z"/><path class="cls-2" d="M154.84,61.93a9,9,0,0,0,.07,1.17l.5-.06a.46.46,0,0,1,.47.25,7.57,7.57,0,0,1-.11-1.36A5.7,5.7,0,0,1,158,57.22a7.29,7.29,0,0,1,3.91-1.5H162c3.47,0,8.51,2.44,8.51,6.27,0,4.36-2.66,7-7.13,7-4,0-6.81-2.07-7.48-5.39a.48.48,0,0,1-.41.4l-.44.05A7.47,7.47,0,0,0,157,67.53a8.78,8.78,0,0,0,6.4,2.35c5,0,8.06-3,8.06-7.89a6.46,6.46,0,0,0-3.29-5.29A11.61,11.61,0,0,0,162,54.79h-.21a8,8,0,0,0-3.7,1.19,6.56,6.56,0,0,0-.76.54A6.67,6.67,0,0,0,154.84,61.93Z"/><path class="cls-2" d="M160.78,63.77c.82.77,1.33,1.26,1.94,1.26h.14c.8-.09,1.36-1,2.84-3.27l.59-.9a.49.49,0,0,0-.14-.65.46.46,0,0,0-.64.14l-.59.9c-1.09,1.7-1.8,2.82-2.18,2.86s-.71-.43-1.32-1c-.41-.39-.91-.87-1.55-1.41a.47.47,0,0,0-.66.06.46.46,0,0,0,.06.65C159.89,62.93,160.38,63.39,160.78,63.77Z"/><path class="cls-2" d="M155.93,63.56v-.12a.66.66,0,0,0-.05-.15.46.46,0,0,0-.47-.25l-.5.06a76.32,76.32,0,0,1-8,.36.47.47,0,1,0,0,.93,75,75,0,0,0,8.16-.38l.44-.05A.48.48,0,0,0,155.93,63.56Z"/><path class="cls-2" d="M144.86,54.7a5.27,5.27,0,0,1-.56,0c-.26,0-.55,0-1,0a17.56,17.56,0,0,0-1.82.12,19.74,19.74,0,0,1-2,.12A31.66,31.66,0,0,1,136,54.6c-.64-.07-1.31-.15-2-.2a.45.45,0,0,0-.49.43.46.46,0,0,0,.42.5c.66.05,1.32.12,1.95.19a32.06,32.06,0,0,0,3.57.26,18.43,18.43,0,0,0,2.09-.13c.58,0,1.13-.11,1.73-.11.4,0,.66,0,.91.05a6.1,6.1,0,0,0,.64,0,.47.47,0,0,0,0-.93Z"/><path class="cls-2" d="M141.45,56.63a31.89,31.89,0,0,1-5.07.29c-1.16,0-2.14,0-3.1-.12a.46.46,0,1,0-.08.92c1,.09,2,.13,3.18.13a32.93,32.93,0,0,0,5.23-.3A.47.47,0,0,0,142,57,.46.46,0,0,0,141.45,56.63Z"/><path class="cls-2" d="M130.88,63.09a6.24,6.24,0,0,1,1.34-.42.46.46,0,0,0-.18-.91,8.51,8.51,0,0,0-1.15.32,3.5,3.5,0,0,1,.08.74A.51.51,0,0,1,130.88,63.09Z"/><path class="cls-2" d="M131.33,65h-.79a1.06,1.06,0,0,1-1-.49,1.91,1.91,0,0,1,1-1.27.47.47,0,0,1-.47-.46c0-.11,0-.22,0-.33a2.81,2.81,0,0,0-1.43,2s0,.06,0,.09a1.79,1.79,0,0,0,2,1.43h.79c.48,0,1,.15,1,.89a1,1,0,0,1-1.17,1,3.68,3.68,0,0,1-1.27-.33,6.24,6.24,0,0,0-1.06-.34.47.47,0,0,0-.54.38.46.46,0,0,0,.37.54,5.39,5.39,0,0,1,.9.28,7,7,0,0,0,.77.27v0a.47.47,0,1,1,.93,0v.16a1.9,1.9,0,0,0,2-2A1.78,1.78,0,0,0,131.33,65Z"/><path class="cls-2" d="M130.5,63.28a.47.47,0,0,0,.38-.19.51.51,0,0,0,.09-.27,3.5,3.5,0,0,0-.08-.74l-.06-.34a4.53,4.53,0,0,1-.12-.89.47.47,0,0,0-.93,0,5,5,0,0,0,.14,1.07c0,.2.07.39.1.57s0,.22,0,.33A.47.47,0,0,0,130.5,63.28Z"/><path class="cls-2" d="M130.85,68.16a.47.47,0,0,0-.47.47v0a3.36,3.36,0,0,1-.14,1.24.46.46,0,0,0,.26.6.38.38,0,0,0,.17,0,.47.47,0,0,0,.44-.3,4,4,0,0,0,.2-1.46v-.16A.47.47,0,0,0,130.85,68.16Z"/><path class="cls-2" d="M140.09,64.41a8.56,8.56,0,0,1-1.3.09c-.48,0-1,0-1.44,0a20.56,20.56,0,0,0-2.08,0,.47.47,0,0,0-.44.49.46.46,0,0,0,.49.44c.65,0,1.32,0,2,0,.49,0,1,.06,1.5.06a9.26,9.26,0,0,0,1.45-.1.47.47,0,0,0-.15-.92Z"/><path class="cls-2" d="M139.17,66.34a3.86,3.86,0,0,1-2,.41l-.91,0c-.47,0-1,0-1.44,0a.47.47,0,0,0-.44.49.46.46,0,0,0,.49.44,12.16,12.16,0,0,1,1.35,0l.95,0a4.84,4.84,0,0,0,2.43-.53.45.45,0,0,0,.18-.63A.47.47,0,0,0,139.17,66.34Z"/><path class="cls-2" d="M135.26,62.93c.31,0,.64,0,1,0s.76,0,1.15,0,.79,0,1.2,0l.64,0a.48.48,0,0,0,.44-.5.46.46,0,0,0-.5-.43,14.22,14.22,0,0,1-1.73,0c-.39,0-.79,0-1.2,0a9.53,9.53,0,0,0-1.11.06.47.47,0,0,0-.41.52A.46.46,0,0,0,135.26,62.93Z"/><path class="cls-10" d="M152.51,135.86a.94.94,0,0,1,0-.16,3.85,3.85,0,0,0-1.52-1.42,2,2,0,0,0-1.66-.06.78.78,0,0,0-.86.18,7,7,0,0,0-1.64,3,1.57,1.57,0,0,0,1.92,1.91,4.46,4.46,0,0,0,1.51-1,1.74,1.74,0,0,0,1.67-.06,1.92,1.92,0,0,0,.54-.52A11.67,11.67,0,0,1,152.51,135.86Z"/><path class="cls-10" d="M152.86,162.84a1,1,0,0,1-1.24-.3l-.11.05a1.21,1.21,0,0,0-.39.39,1.55,1.55,0,0,0-.21.38,1.43,1.43,0,0,0-.31.88,1.53,1.53,0,0,0,.42,1,1.64,1.64,0,0,0,.66.37c.46-.88.92-1.74,1.29-2.66A.53.53,0,0,0,152.86,162.84Z"/><path class="cls-1" d="M161.48,129.11c-2.06,3.54-4.25,7.06-6.28,10.64a11.89,11.89,0,0,0-1.17-4.3.81.81,0,0,0-1.48.25.94.94,0,0,0,0,.16,11.67,11.67,0,0,0,0,1.87c0,.56.1,1.12.11,1.69,0,1.16,0,2.31,0,3.47a.93.93,0,0,0-.05.1,10.06,10.06,0,0,0-1.24-3.81.54.54,0,0,0-1,.12A13.42,13.42,0,0,0,150,144c.05,1.74.12,3.48.2,5.22s.18,3.27.27,4.91-.08,3.72.54,5.35a1.84,1.84,0,0,0,.95,1,2.69,2.69,0,0,0-.46,1.77.81.81,0,0,0,.11.27,1,1,0,0,0,1.24.3,1.07,1.07,0,0,0,.22-.15c0,.1-.07.19-.11.29-.37.92-.83,1.78-1.29,2.66-.14.28-.28.56-.41.84a.69.69,0,0,0,.76,1c4-.71,4.46-6.16,4.22-9.32-.18-2.38-.65-4.72-.87-7.1-.18-1.93-.2-3.87-.27-5.8a.61.61,0,0,0,.07-.1c3.1-4.83,5.85-10,8.56-15.08,2.59-4.84,5.75-10.06,6.86-15.5a.36.36,0,0,0-.15-.39s.09-.09.13-.15c1.23-1.66,1.13-4.35.41-6.21-.38-1-1.39-3-2.73-2.26a.48.48,0,0,0-.1.75c1.49,1.76,0,4.7-.37,6.55a1.48,1.48,0,0,0,1.88,1.81c-1.48,2.16-2.67,4.57-3.93,6.85C164.34,124.07,163,126.61,161.48,129.11Z"/><path class="cls-1" d="M146.43,149.15l-.3,0c-.71-.34-1.41-.69-2.12-1s-1.53-.89-2.29-.7a.38.38,0,0,0-.27.35c.07.78.83,1.38,1.34,1.93.68.73,1.39,1.43,2.07,2.16a1.57,1.57,0,0,0,2.64-1.1l0-.16A1.47,1.47,0,0,0,146.43,149.15Z"/><path class="cls-1" d="M144.7,108.63c1.55.79,2.9-1.46,1.37-2.34a30.63,30.63,0,0,0-3.6-1.49c-.77-.31-1.28.8-.77,1.33A12.18,12.18,0,0,0,144.7,108.63Z"/><path class="cls-1" d="M146.58,109.74a82.68,82.68,0,0,0,7.08,4.77c2.49,1.6,4.93,3.38,7.5,4.84,2.32,1.31,4.18-2,2.06-3.52a54.05,54.05,0,0,0-7.83-4.29,41.8,41.8,0,0,0-8-3.14C146.64,108.23,145.91,109.21,146.58,109.74Z"/><path class="cls-2" d="M153.42,143.49a62.28,62.28,0,0,1-.58-7.44.5.5,0,0,0-.05-.21,1.84,1.84,0,0,0-.06-.18,3.86,3.86,0,0,0-2-2.51.42.42,0,0,0,0,.1.48.48,0,0,1-.24.63.47.47,0,0,1-.63-.24,2.51,2.51,0,0,1-.19-.67h-.37a3.61,3.61,0,0,0-1.21.19.56.56,0,0,0,.1.15.48.48,0,0,1-.34.82.47.47,0,0,1-.33-.14,1.25,1.25,0,0,1-.26-.37,1.51,1.51,0,0,0-.23.21c-1.28,1.29-1.27,3.68-1.25,5.79v.58c0,4.32.86,20.33.87,20.44a.39.39,0,0,0,.11.27c.72.82,1.29,1.52,1.74,2.12a.46.46,0,0,1,.25-.1l.83-.05c-.49-.66-1.13-1.48-2-2.47a2.36,2.36,0,0,0,0-.25h-.09a.47.47,0,0,1,0-.94h.08c-.21-4-.79-15.57-.79-19v-.59c0-.12,0-.24,0-.36h-.28a.48.48,0,0,1,.05-1h.24c0-1.49.2-3,1-3.79a2.14,2.14,0,0,1,1.6-.58h.42c1.21,0,1.73,1,2.07,2.05a1.62,1.62,0,0,0,.06.17c0,.63,0,1.25.06,1.88a.47.47,0,0,1,.42.44.49.49,0,0,1-.37.49c.11,1.57.3,3.13.47,4.65.13,1,.25,2.11.35,3.19a93.94,93.94,0,0,1,.3,12.22l.46.1a.47.47,0,0,1,.36.57.49.49,0,0,1-.58.35l-.3-.06a25.55,25.55,0,0,1-.32,2.69h.15a.48.48,0,0,1,.5.45.46.46,0,0,1-.44.5l-.43,0a3.71,3.71,0,0,1-.65,1.41.53.53,0,0,1-.41.22c-.16,0-.26-.11-.78-.88-.12-.17-.25-.37-.41-.59l-1.11.07c.31.42.54.77.73,1,.58.87.88,1.3,1.57,1.3a1.47,1.47,0,0,0,1.11-.53c2.62-2.88,1.22-18.82,1.2-19C153.67,145.61,153.54,144.53,153.42,143.49Z"/><path class="cls-2" d="M150.9,163.74l1.62-.11.43,0a.46.46,0,0,0,.44-.5.48.48,0,0,0-.5-.45h-.15l-1.9.13-1.22.09-.83.05a.46.46,0,0,0-.25.1.47.47,0,0,0,.28.85h0l.3,0,1.11-.07Z"/><path class="cls-2" d="M151.44,159.83a8.89,8.89,0,0,1,1.62.14l.3.06a.49.49,0,0,0,.58-.35.47.47,0,0,0-.36-.57l-.46-.1a9.79,9.79,0,0,0-1.68-.13,26.73,26.73,0,0,0-2.84.21l-1,.12h-.08a.47.47,0,0,0,0,.94h.09l1.1-.12A22.81,22.81,0,0,1,151.44,159.83Z"/><path class="cls-2" d="M150.17,139.09c.58-.05,1.18-.1,1.75-.13H152a.49.49,0,0,0,.37-.49A.47.47,0,0,0,152,138h-.08c-.59,0-1.2.08-1.78.13a26.44,26.44,0,0,1-3.32.15h-.24a.48.48,0,0,0-.05,1h.77C148.22,139.26,149.21,139.17,150.17,139.09Z"/><path class="cls-2" d="M147.89,134.13a.48.48,0,0,0,.34-.82.56.56,0,0,1-.1-.15,2.07,2.07,0,0,1-.06-.59c0-.19,0-.38,0-.58s0-.35,0-.53a4.14,4.14,0,0,1,1.55-.25,4.88,4.88,0,0,1,0,.49c0,.11,0,.22,0,.33v.36a3.89,3.89,0,0,0,0,.58,2.51,2.51,0,0,0,.19.67.47.47,0,0,0,.63.24.48.48,0,0,0,.24-.63.42.42,0,0,1,0-.1,2.21,2.21,0,0,1-.1-.76v-.33c0-.12,0-.24,0-.36,0-.65,0-1-.28-1.26a.77.77,0,0,0-.59-.18h-.07c-.95,0-2.53.14-2.53,1.1,0,.19,0,.39,0,.58s0,.42,0,.63a2.26,2.26,0,0,0,.18,1.05,1.25,1.25,0,0,0,.26.37A.47.47,0,0,0,147.89,134.13Z"/><path class="cls-2" d="M124,127.66a.48.48,0,0,0,.63-.24,32.66,32.66,0,0,1,2.62-4.43c.74-1.11,17.19-29.06,17.84-30.28l4.61,2.67c3.68,2.12,4.74,2.73,5.09,2.9v0c3.17,1.59,5.9,2.86,8.09,3.88,5.48,2.56,8.23,3.84,8.75,5.59s-1.07,4.26-4.22,9.29a239,239,0,0,0-12.11,21.36c-.26.52-.46,1.05-.66,1.57a9.77,9.77,0,0,1-1,2.19.47.47,0,0,0,.12.66.45.45,0,0,0,.27.08.47.47,0,0,0,.39-.2,10.5,10.5,0,0,0,1.14-2.4c.19-.49.38-1,.62-1.48a238.77,238.77,0,0,1,12.06-21.27c3.31-5.27,5-7.92,4.33-10.07s-3.52-3.5-9.26-6.18c-2.18-1-4.91-2.29-8-3.86l-10.1-5.82a.48.48,0,0,0-.37,0,.46.46,0,0,0-.29.24c-.67,1.33-17.2,29.4-18,30.63a31.6,31.6,0,0,0-2.69,4.56A.47.47,0,0,0,124,127.66Z"/><path class="cls-2" d="M122,134.63l-.61-.28a.48.48,0,1,0-.43.85c.23.12.46.21.68.3a5.6,5.6,0,0,1,.85.42s14.43,8.79,17.6,10.59l2.72,1.55a12.39,12.39,0,0,0,1.49.7l0,0s.09.1.17.17a.47.47,0,0,0,.33.14.51.51,0,0,0,.34-.14.48.48,0,0,0,0-.67l-.16-.16a.92.92,0,0,0-.41-.28,10,10,0,0,1-1.35-.64l-2.71-1.54c-5.9-3.35-17.1-10.3-17.59-10.56v0A5.88,5.88,0,0,0,122,134.63Z"/><path class="cls-2" d="M141.12,139.1c0-1-1.24-1-1.71-1A7.18,7.18,0,0,0,136,139a.47.47,0,0,0-.19.64.49.49,0,0,0,.65.2,6.13,6.13,0,0,1,2.91-.83,2,2,0,0,1,.76.08,4.38,4.38,0,0,1-.68,1.08c-.48.64-.87,1.14-.64,1.61a.78.78,0,0,0,.77.39h.09a6.58,6.58,0,0,0,1.12-.31,3.28,3.28,0,0,1,1-.26c.57,0,.83.21.83,1.47a.48.48,0,0,0,.95,0c0-.73,0-2.42-1.78-2.42a4.33,4.33,0,0,0-1.37.31l-.55.18.29-.39A3.26,3.26,0,0,0,141.12,139.1Z"/><path class="cls-2" d="M141.46,104.6a.47.47,0,0,0,.11.66,29.18,29.18,0,0,0,4.48,2.74.47.47,0,0,0,.4-.86,28,28,0,0,1-4.33-2.66A.47.47,0,0,0,141.46,104.6Z"/><path class="cls-2" d="M148.19,108.52a.48.48,0,0,0,.15.66,33.65,33.65,0,0,0,4.32,2.23,51.84,51.84,0,0,1,6.94,4.37c.79.56,1.36,1,1.68,1.15a.5.5,0,0,0,.24.06.47.47,0,0,0,.24-.88c-.28-.17-.87-.58-1.62-1.11a51.22,51.22,0,0,0-7.09-4.45,34.52,34.52,0,0,1-4.2-2.18A.48.48,0,0,0,148.19,108.52Z"/><path class="cls-2" d="M140.09,110.43a.47.47,0,0,0,0,.67c.34.34,15.11,8.5,17.93,10.05-.6,1-1.27,2.1-1.91,3.12a40.08,40.08,0,0,0-3.56,6.46.48.48,0,0,0,.26.62.39.39,0,0,0,.18,0,.48.48,0,0,0,.44-.3,40,40,0,0,1,3.48-6.31c.74-1.16,1.5-2.37,2.18-3.59a.46.46,0,0,0,0-.38.43.43,0,0,0-.24-.27c-1-.5-17.45-9.64-18.16-10.14A.47.47,0,0,0,140.09,110.43Z"/><path class="cls-2" d="M138.67,125.79a.47.47,0,0,0,.16.65l.6.39c.6.4,1.19.85,1.77,1.28a26.19,26.19,0,0,0,3,2.07.46.46,0,0,0,.23.06.45.45,0,0,0,.41-.24.48.48,0,0,0-.18-.65,25.65,25.65,0,0,1-2.93-2c-.76-.57-1.55-1.16-2.37-1.67l-.08-.05A.47.47,0,0,0,138.67,125.79Z"/><path class="cls-2" d="M146.22,122.65a.35.35,0,0,0-.14-.06c-.2-.1-1.15-.63-5.76-3.56a.47.47,0,0,0-.65.14.48.48,0,0,0,.14.66c3.81,2.42,5.27,3.35,5.9,3.61.21.15.41.28.62.41l.64-.72Z"/><path class="cls-2" d="M147.93,124.88c1.32.85,2.57,1.66,3.89,2.48a.47.47,0,0,0,.25.07.47.47,0,0,0,.25-.88c-1.31-.81-2.56-1.62-3.87-2.47l-.68-.43q-.28.34-.63.72Z"/><path class="cls-2" d="M141.43,115a.48.48,0,0,0-.67.08.47.47,0,0,0,.08.66,58.42,58.42,0,0,0,7.91,5l.5-.81A57.77,57.77,0,0,1,141.43,115Z"/><path class="cls-2" d="M155,124.05a.59.59,0,0,0,.22,0,.47.47,0,0,0,.42-.27.48.48,0,0,0-.21-.64c-2-1-3.8-1.93-5.33-2.77-.16.27-.33.54-.5.81C151.14,122.08,152.92,123,155,124.05Z"/><path class="cls-2" d="M144.28,126.66a.46.46,0,0,0,.33.13.47.47,0,0,0,.34-.13c.89-.9,1.6-1.64,2.19-2.29q.35-.37.63-.72a19.77,19.77,0,0,0,1.81-2.42c.17-.27.34-.54.5-.81l.16-.26.81-1.33a.47.47,0,0,0-.14-.65.48.48,0,0,0-.66.14c-.32.5-.58.94-.83,1.35-.06.1-.11.2-.17.29l-.5.81a22,22,0,0,1-1.78,2.36l-.64.72c-.56.61-1.22,1.31-2.05,2.13A.48.48,0,0,0,144.28,126.66Z"/><path class="cls-10" d="M35.77,324.23c-2.47.54-2.18,3.48-2.09,5.44.12,2.38-3.05,2.39-3.83.52a9.29,9.29,0,0,1-.28-6.43,14.35,14.35,0,0,0-1.59.08c-2.09.26-3.34-2.92-1.75-4.22s3.22-2.44,4.84-3.63c2.55-1.86,5.27,2,3.52,4.13a5.78,5.78,0,0,0,1.5,1.66A1.36,1.36,0,0,1,35.77,324.23Z"/><path class="cls-1" d="M60.73,347.93c-1.9.19-3.56-.16-5,.7a.73.73,0,0,1-.1.56c-1.85,3-4.77,5.53-8.47,5.68a11.88,11.88,0,0,1-5-1.09,18.49,18.49,0,0,1-2.95-1.56c-.32-.21-.78-.64-1.22-1a4.68,4.68,0,0,1-.84.76,6,6,0,0,1-3.24.79,13.37,13.37,0,0,1-5.17-2,2.81,2.81,0,0,1-2.78.37,2.41,2.41,0,0,1-3-2.39A3.94,3.94,0,0,1,25.4,345a6.19,6.19,0,0,1,8-2.07,8,8,0,0,1,1.44.95c.19.16.46.33.65.48.17-.16.37-.31.4-.34a5.86,5.86,0,0,1,1.27-1,5.76,5.76,0,0,1,6.21.43c1.67,1.11,3.59,4,5.76,3.9,1.29,0,1.66-1.43,2.48-2.24a6.28,6.28,0,0,1,2.95-1.52c2.18-.49,4.38.24,6.56.28,2.76,0,6.14-1.08,8-3.26.41-.48,1.19.14.87.67C67.77,344.91,65.16,347.49,60.73,347.93Z"/><path class="cls-1" d="M18,345.14c-.25-4-3.63-5.26-6.3-7.54-2.41-2.06-4.54-7.35-.4-9a2.72,2.72,0,0,0,1.18-4.47c-2.57-3.17-.58-7.28,3.08-8.21a2,2,0,0,0,1.34-2.37c-.64-2-2.25-7.71.32-9.09a.74.74,0,0,0-.37-1.36c-4.31,0-4.41,5.78-4,9.57a10.24,10.24,0,0,0-3.2,1.88.75.75,0,0,0-.39-.19c-2.89-.35-5.35,3-6.22,5.36a9.26,9.26,0,0,0-.45,4.86c.13.72.66,1.65.42,2.35-.17.49-1.25,1.18-1.58,1.7-2.11,3.28-1.1,7.4,1.26,10.24a21.4,21.4,0,0,0,5,4.06,9.06,9.06,0,0,1,4.16,4.67l.15.3c-1.74.76-4.76.14-6.43.62a7.57,7.57,0,0,0-5.43,8.75c.36,1.5,2.27,1.2,2.75,0,.79-2,2.1-3.8,4.28-4.29s4.26,0,6.34-.72A6.93,6.93,0,0,0,18,345.14ZM6.52,323.71a5.54,5.54,0,0,1-.21-.8,5.62,5.62,0,0,1,.07-2.37A8.71,8.71,0,0,0,6.52,323.71Z"/><path class="cls-1" d="M25.3,351.64l.14,0a1,1,0,0,1,.7.7c.73,2.17-.76,4.3-2.66,5.27a6.65,6.65,0,0,1-7.14-.95c-2.6-.3-2.51-4.5.3-4.5a2.07,2.07,0,0,1,1.7.8c1.44.4,3.13,1.2,4.51.58C23.72,353.18,24.29,351.45,25.3,351.64Z"/><path class="cls-2" d="M75.69,324.86c0-6.58-6.22-9.34-8.24-10.07a7.9,7.9,0,0,0,.12-1.25,9,9,0,0,0-9-8.9,13.18,13.18,0,0,0-7,2.19,5.44,5.44,0,0,0-5.25-4.36,5.24,5.24,0,0,0-1.47.25c-.64-.87-2.22-2.34-5.58-2.34-3.64,0-6.39,1.81-8.17,5.37-.22.44-.37.72-.49.91,0-.07-.09-.14-.14-.21-1.07-1.64-3.3-5-11-5-6.27,0-8.8,5.15-8.8,7.3,0,.35,0,.71,0,1.06s0,.73,0,1.1a7.19,7.19,0,0,0,.69,3.17c-.24,0-.51,0-.77,0a4.49,4.49,0,0,1-.51,0c-1.19,0-5.71,2.89-5.71,7.69a7.41,7.41,0,0,0,1.91,5c-2.09.9-3,4.49-3,6.54,0,4.84,4.17,6.86,7.53,8.49,2.63,1.27,4.9,2.36,4.9,4.35a5,5,0,0,1-.05.63c0,.24,0,.48,0,.72,0,1.56-1.93,2-5.09,2.47-4,.64-9.51,1.53-9.51,7.64a11.82,11.82,0,0,0,1.28,5.18.76.76,0,0,0,1.36,0,4.35,4.35,0,0,0,.19-.6c.41-1.61,1.52-5.88,7.42-5.88a16,16,0,0,1,6.25,1.36,12.05,12.05,0,0,0,4.41,1.07,5.09,5.09,0,0,0,4.75-5,5.44,5.44,0,0,0-1.14-3.14,4.26,4.26,0,0,1-1-2.55A2.45,2.45,0,0,1,27,345.34a5.83,5.83,0,0,1,3.2,1.49,6.58,6.58,0,0,0,3.76,1.67,8.49,8.49,0,0,0,4-1.43c.84,1.5,3.2,4.42,8.92,4.42,2.87,0,5-1.06,7.23-2.18a19.39,19.39,0,0,1,9.59-2.64c4.9,0,10-3.54,10-9.47a6.29,6.29,0,0,0-2.22-4.94C74.07,331.12,75.69,328.38,75.69,324.86Zm-1.52,0c0,2.71-1.21,5.8-4.59,6.37a.74.74,0,0,0-.62.62.75.75,0,0,0,.38.79,5,5,0,0,1,2.81,4.56c0,5-4.3,7.95-8.46,7.95A21,21,0,0,0,53.42,348c-2.17,1.09-4,2-6.55,2-6.38,0-7.81-4.07-7.87-4.24a.75.75,0,0,0-1.2-.34l-.17.09A8.22,8.22,0,0,1,33.91,347,5.44,5.44,0,0,1,31,345.6,7.1,7.1,0,0,0,27,343.82a3.94,3.94,0,0,0-3.88,4.25,5.77,5.77,0,0,0,1.2,3.38,4,4,0,0,1,.9,2.31,3.55,3.55,0,0,1-3.23,3.5,10.76,10.76,0,0,1-3.87-1,17.44,17.44,0,0,0-6.79-1.46c-4.11,0-6.91,1.81-8.36,5.39a9.73,9.73,0,0,1-.37-2.57c0-4.82,4.18-5.49,8.23-6.15,3.13-.5,6.37-1,6.37-4,0-.18,0-.37,0-.57a6.49,6.49,0,0,0,.06-.78c0-2.94-2.93-4.35-5.76-5.72-3.28-1.59-6.67-3.23-6.67-7.12,0-2.11,1-5.24,2.48-5.24.22,0,.92-.08.92-1.22a.76.76,0,0,0-.27-.58,5.86,5.86,0,0,1-2.06-4.51c0-3.83,3.65-6.07,4.22-6.17.17,0,.4,0,.62,0,.89-.08,1.88.11,2.3-.56a1.35,1.35,0,0,0-.15-1.36,5.57,5.57,0,0,1-.69-2.8c0-.36,0-.71,0-1.06s0-.74,0-1.1a7,7,0,0,1,7.28-5.79c6.87,0,8.73,2.84,9.72,4.36.42.64.79,1.2,1.47,1.16s1.2-.82,1.79-2c1.52-3.05,3.75-4.53,6.81-4.53,3.6,0,4.51,2,4.55,2a.78.78,0,0,0,.7.46,1.16,1.16,0,0,0,.39-.09,4.6,4.6,0,0,1,1.41-.32,4,4,0,0,1,3.84,3.75.66.66,0,0,1,0,.14c0,.11,0,.23,0,.37a.75.75,0,0,0,.43.68.77.77,0,0,0,.8-.08,12,12,0,0,1,7.23-2.7,7.51,7.51,0,0,1,7.44,7.39,6.3,6.3,0,0,1-.1,1,5.16,5.16,0,0,0-.08.78.76.76,0,0,0,.56.73C66.75,316.15,74.17,318.21,74.17,324.86Z"/><path class="cls-2" d="M46.35,325.29c-.44,1.5,1.1,3.48,2.61,3.92a4.07,4.07,0,0,0,.85.07,12.66,12.66,0,0,1,2.6.3c1.71.5,2.41,1.61,2,3.13-.19.65-.77,2.65-5.21,1.37-2.05-.59-2.38-1.2-2.68-1.74a.75.75,0,0,0-1-.29.76.76,0,0,0-.3,1c.49.89,1.14,1.75,3.59,2.46a11.76,11.76,0,0,0,1.15.27c0-.11.05-.23.08-.34a.77.77,0,0,1,.94-.52.75.75,0,0,1,.52.94s0,.07,0,.11c3,.1,4.06-1.64,4.42-2.87.67-2.32-.52-4.29-3-5a13.72,13.72,0,0,0-3-.36h-.47c-.92-.27-1.73-1.54-1.58-2l.16-.61a3.89,3.89,0,0,1,.12-.49,3.15,3.15,0,0,1,3.27-2.3.76.76,0,0,1-.27-.51,6.54,6.54,0,0,1,0-1,4.56,4.56,0,0,0-4.46,3.38c-.05.19-.1.37-.14.55S46.4,325.1,46.35,325.29Z"/><path class="cls-2" d="M52.3,322.34a13.24,13.24,0,0,1,3,.69.74.74,0,0,0,1-.46.76.76,0,0,0-.46-1c-.29-.1-.59-.2-.91-.29a14,14,0,0,0-2.26-.46,5.77,5.77,0,0,0,0,.83A.76.76,0,0,1,52.3,322.34Z"/><path class="cls-2" d="M51.36,322.31a.71.71,0,0,0,.28.16.78.78,0,0,0,.27,0,.67.67,0,0,0,.39-.15.76.76,0,0,0,.3-.66,5.77,5.77,0,0,1,0-.83c0-.46.09-.94.17-1.44s.16-1.11.19-1.69a.76.76,0,1,0-1.51-.09c0,.52-.11,1-.19,1.56s-.15,1.07-.18,1.62a6.54,6.54,0,0,0,0,1A.76.76,0,0,0,51.36,322.31Z"/><path class="cls-2" d="M50.92,335a.77.77,0,0,0-.94.52c0,.11,0,.23-.08.34a13.8,13.8,0,0,0-.44,3.26.76.76,0,0,0,.55.73l.21,0a.76.76,0,0,0,.76-.76,11.74,11.74,0,0,1,.44-3.07s0-.07,0-.11A.75.75,0,0,0,50.92,335Z"/><path class="cls-2" d="M40.7,326.06a.75.75,0,0,0,0-.87c-2.73-4.19-4.3-7-5.34-8.87-1.23-2.22-1.65-3-2.48-3s-1.18.52-1.86,1.39a25.56,25.56,0,0,1-8.58,7.18.76.76,0,0,0,.19,1.4l1.09.22c.89.16,3.54.65,4,1.16,0,1.87-1.27,5.65-2.06,7.62a.73.73,0,0,0,.07.7.78.78,0,0,0,.63.34h.29a36.14,36.14,0,0,1,5.38.36h.12c2.75,0,2.92-2.51,3-4.33.16-2.35.39-3.31,2-3.31a9.57,9.57,0,0,1,2.66.3A.78.78,0,0,0,40.7,326.06Zm-2.19-1.5c-.46,0-.89-.05-1.3-.05-3.2,0-3.39,2.73-3.52,4.72-.16,2.22-.37,2.89-1.47,2.92a35.64,35.64,0,0,0-4.75-.36,26.68,26.68,0,0,0,1.78-7.23c0-1.33-1.81-1.9-4.32-2.4a25.77,25.77,0,0,0,7.31-6.55,7.56,7.56,0,0,1,.56-.68c.27.36.73,1.19,1.25,2.13C35,318.71,36.31,321.12,38.51,324.56Z"/><path class="cls-2" d="M22.9,329.56a.76.76,0,0,1,.76.76,8.89,8.89,0,0,1-.36,2.06l0,.17a.76.76,0,0,1-.74.58l-.18,0a.75.75,0,0,1-.55-.92l0-.17a7.88,7.88,0,0,0,.31-1.69A.76.76,0,0,1,22.9,329.56Z"/><path class="cls-2" d="M18.84,330.76c0,.12,0,.24,0,.37s0,.31,0,.47a2.37,2.37,0,0,1-.22,1.07.78.78,0,0,1-.68.42.81.81,0,0,1-.34-.08.76.76,0,0,1-.34-1,1,1,0,0,0,.06-.39c0-.13,0-.25,0-.38s0-.31,0-.46a2.35,2.35,0,0,1,.07-.62.75.75,0,0,1,.92-.55.76.76,0,0,1,.55.92A.86.86,0,0,0,18.84,330.76Z"/><path class="cls-2" d="M13.78,332.48a.76.76,0,0,1-.74.61l-.15,0a.76.76,0,0,1-.6-.89c.05-.22.11-.43.17-.65a2.9,2.9,0,0,0,.17-.78.64.64,0,0,0-.09-.34.76.76,0,1,1,1.3-.79,2.14,2.14,0,0,1,.31,1.13,4.26,4.26,0,0,1-.23,1.22C13.87,332.14,13.82,332.31,13.78,332.48Z"/><path class="cls-1" d="M159.13,91.3c-1.24,4,4.31,6.86,7.46,6.85a7.4,7.4,0,0,0,7.34-8.65l0-.11a7,7,0,0,0,.32-1.5,1.39,1.39,0,0,0-2.56-1c-1.38,2-2.33,4.47-5,5.19s-4.36-.55-5.93-2.52c-.25-.31-.88-.45-1.06,0a3.48,3.48,0,0,0-.25,1.26A.72.72,0,0,0,159.13,91.3Z"/><path class="cls-2" d="M164.41,88.41a3.88,3.88,0,0,0,1.12.35,4,4,0,0,1,1.17.38,2,2,0,0,1,.62.51,2.31,2.31,0,0,1-2.62-.06,5,5,0,0,1-.62-.4.53.53,0,1,0-.64.85,5,5,0,0,0,.75.48,5.24,5.24,0,0,0,.48.23c0-.08,0-.16,0-.23l0-.14a.54.54,0,0,1,.62-.44.53.53,0,0,1,.43.62l0,.15c0,.1,0,.21-.05.32a2.61,2.61,0,0,0,2.61-.93c.37-.7-.29-1.46-1.11-1.9a4.81,4.81,0,0,0-1.46-.48,2.68,2.68,0,0,1-.83-.25c-.8-.43-.57-.87-.48-1,.45-.84,1.95-.64,2.81-.18l.18.1a.53.53,0,0,0,.57-.89l-.24-.15a4.67,4.67,0,0,0-1-.39c0,.14,0,.28,0,.42l-1.07,0c0-.17,0-.35,0-.53a2.38,2.38,0,0,0-2.18,1.14A1.74,1.74,0,0,0,164.41,88.41Z"/><path class="cls-2" d="M166.71,85.34c0-.14,0-.28,0-.42a1.81,1.81,0,0,1,.2-.78.54.54,0,0,0-.22-.72.53.53,0,0,0-.72.22,2.85,2.85,0,0,0-.32,1.15c0,.18,0,.36,0,.53Z"/><path class="cls-2" d="M165.78,90.56a.53.53,0,0,0-.43-.62.54.54,0,0,0-.62.44l0,.14c0,.07,0,.15,0,.23a3.53,3.53,0,0,0-.06.93.55.55,0,0,0,.28.42.6.6,0,0,0,.3.06.54.54,0,0,0,.48-.58,2.08,2.08,0,0,1,0-.55c0-.11,0-.22.05-.32Z"/><path class="cls-2" d="M163.1,95.18a5.42,5.42,0,0,0,1.8.57.55.55,0,0,1,.57-.15.53.53,0,0,1,.27.22,8.14,8.14,0,0,0,7-4.62,6.28,6.28,0,0,0-.09-6.21,9.5,9.5,0,0,0-3.57-3.59l-.36-.19-.3-.15a1.13,1.13,0,0,0-.56-.12l-.15,0a7.06,7.06,0,0,0-9,3.53C156.49,88.69,159.3,93.14,163.1,95.18Zm4.23-13.28a1.43,1.43,0,0,0,.53.1h.1l.33.16.32.17a8.46,8.46,0,0,1,3.15,3.17,5.17,5.17,0,0,1,.08,5.2c-2.05,3.81-5.87,4.81-8.24,3.54-4.53-2.43-5.39-6.51-3.9-9.29A6,6,0,0,1,167.33,81.9Z"/><path class="cls-2" d="M156.28,105.78a13.25,13.25,0,0,1-1.27.49.53.53,0,0,0-.34.67.52.52,0,0,0,.25.31.55.55,0,0,0,.42,0,14.24,14.24,0,0,0,1.37-.52.54.54,0,0,0-.43-1Z"/><path class="cls-2" d="M160.72,103.39a.54.54,0,0,0-.75,0c-.34.31-.7.6-1.06.87a.54.54,0,0,0-.1.75.61.61,0,0,0,.17.15.54.54,0,0,0,.57-.05,14.3,14.3,0,0,0,1.13-.93A.53.53,0,0,0,160.72,103.39Z"/><path class="cls-2" d="M162.23,101.87a.53.53,0,0,0,.67-.15,14.16,14.16,0,0,0,.84-1.19.53.53,0,0,0-.89-.58c-.25.39-.52.77-.79,1.13a.52.52,0,0,0,.1.74A.18.18,0,0,0,162.23,101.87Z"/><path class="cls-2" d="M165.47,95.6a.55.55,0,0,0-.57.15.87.87,0,0,0-.11.18c-.14.44-.31.87-.49,1.29a.53.53,0,0,0,.24.68l0,0a.54.54,0,0,0,.7-.28c.19-.45.37-.91.52-1.36a.55.55,0,0,0-.33-.68Z"/><path class="cls-1" d="M341.22,311c.27-.2.46-.37.64-.48s.28-.15.41-.22l.16-.05.44-.1c.1,0,.56,0,.22,0s.12,0,.22,0l.55,0a2.52,2.52,0,0,0,1.38-.42,1.34,1.34,0,0,0,1,1.39c7.61,1.77,15.92,1.54,23.69,1.72,3.88.09,7.76.1,11.65.14s8.32.62,12.08-1.07c2.39-1.07,2.46-3.5,1.33-5.28,0,0,0-.07,0-.1-1.05-4.54-1-9.55-1.35-14.19s-.7-9-1.37-13.45a1.15,1.15,0,0,0-2.2,0c-.68,4.46-1,8.94-1.39,13.45-.32,3.88-.33,8-.95,11.89a4.51,4.51,0,0,0-.89.91c-2.45.17-5,.13-7.36.24h-.08c1.9-1.73,1.42-5.47-1.83-5.31-6,.29-12,1.25-18.09,1.55s-12.14-.1-18.11.6c-1.24.15-1.7,2-.31,2.34.8.21,1.6.4,2.42.56a4.83,4.83,0,0,0-3.39,2,4.26,4.26,0,0,0-.78,3.14A1.3,1.3,0,0,0,341.22,311ZM359,306.32l.81,0a69.76,69.76,0,0,0-13.45,1.9,2.16,2.16,0,0,0,.1-.72,2.94,2.94,0,0,0-1.2-2.18A118.12,118.12,0,0,0,359,306.32Z"/><path class="cls-4" d="M354.24,287.65l.15.12.05.12c1.82,3.56,6.7,3.17,8.95.32a6,6,0,0,0-3.4-9.32,5.77,5.77,0,0,0-6,2C352.42,282.89,352.17,285.82,354.24,287.65Z"/><path class="cls-1" d="M364,270.75c4.79-.36,9.75-.41,14.49-1.22,2.45-.42,1.91-4.64-.59-4.37-4.79.51-9.57,1.8-14.29,2.76C362,268.24,362.35,270.88,364,270.75Z"/><path class="cls-2" d="M332.63,278.53a.83.83,0,0,1-.18,1.14l-.9.63c.09,1.81.2,3.58.31,5.25.19,3,.36,5.59.36,7.41,0,1.18,0,2.09-.05,2.75-.05,1.5-.07,2.12.4,2.58a1.88,1.88,0,0,0,1.54.36l.72,0c1.19,0,2.4,0,3.56-.07s2.39-.08,3.54-.08H342c2,.16,12.7.91,24.58.91,5.17,0,10.42-.09,15.5-.18l7.05-.11a.84.84,0,0,0,.58-.26.83.83,0,0,0,.22-.6c-.26-4.8-.44-8.87-.59-12.13-.54-11.59-.7-15.08-2.28-16.48-.95-.84-2.13-.74-3.77-.62l-1.43.1a.81.81,0,0,1-.62,1.33.85.85,0,0,1-.59-.25l-.95-1.05c-2.08,0-4,.05-6.17.1-3.55.08-7.56.16-14,.16-8.59,0-15.71-.16-20.91-.27-2.62-.06-4.72-.11-6.1-.11a.8.8,0,0,0-.8,0c-.49.24-.49.62-.48,1.46,0,.34,0,.85,0,1.57,0,2.12.07,4.26.16,6.36l0,0A.83.83,0,0,1,332.63,278.53Zm6-7.77c5.2.11,12.33.27,20.94.27,6.41,0,10.44-.09,14-.16,2.52-.06,4.7-.11,7.18-.11,1,0,1.9-.06,2.66-.12,1.41-.11,2.16-.15,2.57.21,1.07.94,1.26,5.15,1.73,15.33.14,3.08.32,6.86.55,11.3l-6.21.1c-5.07.09-10.32.18-15.47.18-11.82,0-22.45-.75-24.46-.9H342c-1.23,0-2.45,0-3.64.08s-2.35.07-3.51.07l-.79,0h-.27c0-.28,0-.76,0-1.26,0-.68,0-1.6,0-2.81,0-1.87-.16-4.49-.36-7.52-.26-4.14-.56-8.84-.56-13.42,0-.59,0-1,0-1.37C334.28,270.66,336.23,270.7,338.63,270.76Z"/><path class="cls-2" d="M358.55,292.94a8.49,8.49,0,0,0,6.57-3.11,9.53,9.53,0,0,0,2.26-5.91c0-1.59-.33-4.51-2.57-6.23a10.1,10.1,0,0,0-5.64-2.18h-.44c-4.91,0-8.21,4.69-8.21,9.08C350.52,288.44,354,292.94,358.55,292.94Zm.18-15.81h.34a8.5,8.5,0,0,1,4.75,1.84c1.75,1.35,1.94,3.9,1.94,4.94,0,3-2.57,7.39-7.21,7.39-3.85,0-6.4-4.05-6.4-6.73C352.15,281.05,354.85,277.13,358.73,277.13Z"/><path class="cls-2" d="M336.3,276c0,.55,0,1.1.05,1.63s0,1.05,0,1.56,0,.76,0,1.1a.82.82,0,0,0,.74.88h.08a.8.8,0,0,0,.8-.74,11.71,11.71,0,0,0,.06-1.24c0-.55,0-1.1,0-1.63s-.05-1.05-.05-1.56v-.38h.15a25,25,0,0,0,5.58-.33.81.81,0,1,0-.25-1.61,22.84,22.84,0,0,1-5.24.31c-.65,0-1.12-.06-1.5.3s-.37.82-.37,1.46Z"/><path class="cls-2" d="M338.07,294.21l.41,0a31,31,0,0,1,3.29.23l1.53.15h.07a.81.81,0,0,0,.06-1.62l-1.49-.15a32.76,32.76,0,0,0-3.46-.24,4.22,4.22,0,0,0-.53,0,8.74,8.74,0,0,1,0-.95c0-.39,0-.78,0-1.19s.05-.84.05-1.28a7.76,7.76,0,0,0,0-.86.82.82,0,0,0-.89-.73.83.83,0,0,0-.73.89,5.18,5.18,0,0,1,0,.7c0,.39,0,.78-.05,1.19s0,.84,0,1.28c0,1.23.07,1.85.51,2.26A1.53,1.53,0,0,0,338.07,294.21Z"/><path class="cls-2" d="M378.06,275.13l.9,0,.92,0a6.58,6.58,0,0,1,1.6.11,3.45,3.45,0,0,1,0,.54c0,.25,0,.53,0,.84a11.23,11.23,0,0,0,.24,2.56.82.82,0,0,0,.79.63.55.55,0,0,0,.18,0,.81.81,0,0,0,.62-1,10,10,0,0,1-.21-2.2c0-.28,0-.53,0-.74a2.14,2.14,0,0,0-.39-1.75c-.5-.53-1.31-.62-2.82-.62h-1l-.85,0a.82.82,0,0,0-.82.82A.82.82,0,0,0,378.06,275.13Z"/><path class="cls-2" d="M377.72,293.73a20.44,20.44,0,0,1,2.26.17c.81.08,1.64.17,2.44.17s1.15-1,1.15-1.45c0,0,0-.11,0-.15a13.9,13.9,0,0,1-.13-2c0-.68,0-1.34.06-2s.07-1.44.07-2.19a.81.81,0,1,0-1.62,0c0,.71,0,1.42-.07,2.11s-.07,1.4-.07,2.12a15.45,15.45,0,0,0,.11,2c-.56,0-1.15-.09-1.76-.15a22,22,0,0,0-2.43-.17.81.81,0,0,0,0,1.62Z"/><path class="cls-2" d="M337.85,313.78a.81.81,0,0,0,.65.32l.24,0a9.69,9.69,0,0,0,1.28-.7c2.4-1.38,8-4.59,11.19-5.92a.82.82,0,0,0,.47-1l-2.07-.09c-3.34,1.53-8.2,4.31-10.4,5.57l-.48.28-.77-1c-12-16-16.52-22-15.92-24.63.26-1.14,1.72-1.9,3.94-3a50.56,50.56,0,0,0,5.57-3.24l.9-.63a.82.82,0,1,0-1-1.32l0,0a45.62,45.62,0,0,1-6.22,3.71c-2.52,1.31-4.35,2.26-4.78,4.14-.76,3.34,3.17,8.59,16.21,26Z"/><path class="cls-2" d="M381.24,270.44a.81.81,0,0,0,.62-1.33l0-.05a38.16,38.16,0,0,1-5.35-7.3c-1.43-2.41-2.47-4.15-4.48-4.6-3.11-.7-8,2.07-20,10.19a.76.76,0,0,0-.27-.05.82.82,0,0,0-.81.81c0,.17.06,1,1.15,1a.86.86,0,0,0,.46-.14c10.89-7.38,16.54-10.78,19.11-10.21,1.32.29,2.16,1.7,3.44,3.84a40.51,40.51,0,0,0,4.61,6.55l.95,1.05A.85.85,0,0,0,381.24,270.44Z"/><path class="cls-2" d="M388.34,301a113.28,113.28,0,0,1-14.7,1.14c-.92,0-25.39-.72-39.76-2a.82.82,0,0,0-.88.74.8.8,0,0,0,.74.88c15.17,1.34,39.72,2,39.9,2a114.26,114.26,0,0,0,14.91-1.15.82.82,0,0,0,.71-.91A.81.81,0,0,0,388.34,301Z"/><path class="cls-2" d="M366.27,306.84c.19,0,20.66-.27,22.6-.91a.82.82,0,0,0-.51-1.55c-1.47.49-20.5.84-22.09.84-7,0-13.57-.32-18.37-.56-3-.14-5.31-.25-6.86-.25a44.75,44.75,0,0,0-5.14.27.82.82,0,1,0,.19,1.62,41.37,41.37,0,0,1,5-.27c1.51,0,3.84.12,6.78.26l1.79.09,2.07.09C355.9,306.66,361,306.84,366.27,306.84Z"/></g></g></svg>