<svg xmlns="http://www.w3.org/2000/svg" viewBox="0 0 138.61 138.61"><defs><style>.cls-1{fill:#0098fe;}.cls-2{fill:#f3f3f3;}</style></defs><title>nw-allblack-logoAsset 25</title><g id="Layer_2" data-name="Layer 2"><g id="Layer_1-2" data-name="Layer 1"><circle class="cls-1" cx="69.3" cy="69.3" r="69.3"/><path class="cls-2" d="M109.71,60.45l-6.94-1.32A45,45,0,0,0,96.1,48.76c1.74-2.82,5-7.31,5.77-9.17s-8.54-1.2-14,2.44c-6-3.78-11.92-4.71-20.1-4.71C49.45,37.32,34.38,48.55,32.25,63c-4.84-.66-4.38-8.78-4.91-9.23s-5.25,11.65,4.57,18.7c.34.24.67.45,1,.63a28.08,28.08,0,0,0,8.85,13.5v8.15c0,3.58,3.66,6.5,8.12,6.5s6.48-2.92,6.48-6.5v-.07c5.64,1.3,16.39,1.22,23.13,0v.06c0,3.58,1.68,6.5,6.14,6.5s8.13-2.92,8.12-8.09V86.65a29,29,0,0,0,7.72-10.33l2.1-.2c1.79,0,3.28-1.07,4.3-3.13l4.79-8.7C113.61,62.54,111.84,60.9,109.71,60.45ZM70.85,43.4c.09,1-1,1.72-2.46,1.51a29.39,29.39,0,0,0-6,0A21.09,21.09,0,0,0,56,46.46c-1.32.61-2.47.26-2.56-.77s.92-2.38,2.24-3a21.09,21.09,0,0,1,6.41-1.54,30.35,30.35,0,0,1,6,0C69.51,41.35,70.76,42.37,70.85,43.4Z"/></g></g></svg>