<svg xmlns="http://www.w3.org/2000/svg" viewBox="0 0 137.51 137.51"><defs><style>.cls-1{fill:#0098fe;}.cls-2{fill:#f3f3f3;}</style></defs><title>icon_7Asset 33</title><g id="Layer_2" data-name="Layer 2"><g id="Layer_1-2" data-name="Layer 1"><circle class="cls-1" cx="68.75" cy="68.75" r="68.75"/><path class="cls-2" d="M109.06,25.67h-80c-5.41,0-7.73,2.31-7.73,7.57V89.6c0,5.41,2.17,7.57,7.42,7.57h29.8v3.4a5.49,5.49,0,0,1-2.47,4.17A16.29,16.29,0,0,1,53,106.59a20.69,20.69,0,0,1-2.78,1.08,1.67,1.67,0,0,0-1.23,1.7v.31a2,2,0,0,0,2,2H86.67a2,2,0,0,0,2-2v-.16a1.85,1.85,0,0,0-1.38-1.85,13.53,13.53,0,0,1-2.63-1.08,16.29,16.29,0,0,1-3.09-1.85,5.49,5.49,0,0,1-2.47-4.17v-3.4h30c4.94,0,7.1-2.32,7.1-7.41V32.62C116.16,28.14,113.85,25.67,109.06,25.67ZM106.59,84H31.23c-2.63,0-2.63-.15-2.63-2.62V37.1c0-2.94,0-2.94,3.09-2.94h74.59c2.62,0,2.78.16,2.78,2.47V81.42C109.06,83.42,108.6,84,106.59,84Z"/><path class="cls-2" d="M82.65,65.82l3.09,3.24v.16a19.87,19.87,0,0,1-34.9-1.7l3.09-2a3.26,3.26,0,0,0,2,.77A3.17,3.17,0,0,0,59.18,63a1.91,1.91,0,0,0-.16-.93l10.2-7a3.19,3.19,0,0,0,2,.78,3.7,3.7,0,0,0,1.39-.31l5.56,5.87A3,3,0,0,0,77.71,63,3.17,3.17,0,0,0,81,66.28,2.75,2.75,0,0,0,82.65,65.82Z"/><path class="cls-2" d="M88.67,59a19.25,19.25,0,0,1-1.85,8.34L84.2,64.58A3,3,0,0,0,84.66,63a3.17,3.17,0,0,0-3.24-3.24,3.56,3.56,0,0,0-1.39.31l-5.56-5.87a3,3,0,0,0,.46-1.55,3.25,3.25,0,0,0-6.49,0,1.91,1.91,0,0,0,.16.93l-10.19,7a3.29,3.29,0,0,0-2-.77A3.17,3.17,0,0,0,53.16,63a2,2,0,0,0,.15.93l-3.09,1.85A19.48,19.48,0,0,1,49,59.18,19.84,19.84,0,0,1,88.67,59Z"/></g></g></svg>