<svg xmlns="http://www.w3.org/2000/svg" viewBox="0 0 75.72 63.33"><defs><style>.cls-1{fill:#1a9afb;}</style></defs><title>ICON 1Asset 22</title><g id="Layer_2" data-name="Layer 2"><g id="Layer_2-2" data-name="Layer 2"><path class="cls-1" d="M60.36,63.33H53.82a3.53,3.53,0,0,1-3.52-3.52V55.74a43,43,0,0,1-16.38,0v4.07a3.53,3.53,0,0,1-3.51,3.52H24A5.34,5.34,0,0,1,18.72,58V48.8a28,28,0,0,1-8.45-11.21H4.78C2.07,37.59,0,34.91,0,31.51V24.88c0-3.36,2-6,4.68-6H9.9a27.3,27.3,0,0,1,5.39-8.34L12.48,7.64a4.56,4.56,0,0,1-.94-4.91A4.52,4.52,0,0,1,15.68,0,27.38,27.38,0,0,1,26,2l1.48.55a37.85,37.85,0,0,1,25-.71A2.34,2.34,0,1,1,51,6.24,33.7,33.7,0,0,0,40.86,4.68,33,33,0,0,0,28.23,7.17a2.12,2.12,0,0,1-1.71,0l-2.34-.85A24.68,24.68,0,0,0,16,4.68l4.13,4.21a2.41,2.41,0,0,1,.7,1.72A2.18,2.18,0,0,1,20,12.24a22.44,22.44,0,0,0-6.39,9.67,2.44,2.44,0,0,1-2.26,1.64H5a2.6,2.6,0,0,0-.31,1.33v6.69A2.53,2.53,0,0,0,5,32.91h6.77a2.39,2.39,0,0,1,2.31,1.66,23.49,23.49,0,0,0,8.36,11.29,2.58,2.58,0,0,1,1,1.89V58.16a.48.48,0,0,0,.48.49h4.88a.48.48,0,0,0,.48-.49V52.75a2.41,2.41,0,0,1,1-1.93,2.56,2.56,0,0,1,2.17-.41,34.91,34.91,0,0,0,19.54.08,2.18,2.18,0,0,1,2.1.41,2.4,2.4,0,0,1,1,1.93v5.33a.49.49,0,0,0,.48.49h4.89a.49.49,0,0,0,.48-.49V48a2.32,2.32,0,0,1,.94-1.87c5.92-4.45,9.28-10.69,9.28-17.24,0-6.16-2.89-12-8.19-16.45a2.33,2.33,0,0,1,3-3.59c6.4,5.3,9.9,12.4,9.9,20S72,44,65.51,49.21v9A5.18,5.18,0,0,1,60.36,63.33Z"/></g></g></svg>