<svg xmlns="http://www.w3.org/2000/svg" viewBox="0 0 134.65 134.65"><defs><style>.cls-1{fill:#0098fe;}.cls-2{fill:#f3f3f3;}</style></defs><title>icon_4Asset 30</title><g id="Layer_2" data-name="Layer 2"><g id="Layer_1-2" data-name="Layer 1"><circle class="cls-1" cx="67.33" cy="67.33" r="67.33"/><circle class="cls-2" cx="39.46" cy="41.78" r="8.34"/><path class="cls-2" d="M40.06,60.13,42,55a1.16,1.16,0,0,1,1.94-.51L48.11,58c.73.6,1.2.33,1-.6L48.26,52a1.16,1.16,0,0,1,1.42-1.42l5.36.89c.94.16,1.21-.31.61-1l-3.46-4.19a1.16,1.16,0,0,1,.52-1.94l5.09-1.91c.89-.33.89-.88,0-1.21l-5.09-1.91a1.15,1.15,0,0,1-.52-1.93l3.46-4.21c.6-.73.33-1.2-.61-1L49.68,33a1.16,1.16,0,0,1-1.42-1.42l.9-5.36c.15-.93-.32-1.21-1-.6l-4.2,3.45A1.16,1.16,0,0,1,42,28.53l-1.91-5.09c-.33-.88-.87-.88-1.21,0L37,28.53a1.16,1.16,0,0,1-1.94.52l-4.2-3.45c-.73-.61-1.2-.33-1,.6l.89,5.37A1.15,1.15,0,0,1,29.24,33l-5.36-.89c-.94-.16-1.21.32-.61,1l3.46,4.2a1.15,1.15,0,0,1-.52,1.93l-5.09,1.91c-.89.33-.89.88,0,1.21l5.09,1.9a1.16,1.16,0,0,1,.52,1.94l-3.46,4.2c-.6.73-.33,1.21.61,1l5.36-.89A1.16,1.16,0,0,1,30.66,52l-.9,5.36c-.15.93.32,1.2,1,.6L35,54.51A1.16,1.16,0,0,1,37,55l1.9,5.1C39.19,61,39.73,61,40.06,60.13ZM28.93,41.78A10.53,10.53,0,1,1,39.46,52.31,10.53,10.53,0,0,1,28.93,41.78Z"/><path class="cls-2" d="M104.33,50.92a4.8,4.8,0,0,0-7.57-3.53A23.37,23.37,0,0,0,69.65,60.1a25,25,0,0,0-1.26,3.44,8.41,8.41,0,0,1,13.35,7.35,8.45,8.45,0,0,1,7.69-2.11L75.49,98.7a57.87,57.87,0,0,0-7.58-.51c-15.72,0-28.45,6.13-28.45,13.69h56.9c0-5.65-7.1-10.49-17.25-12.58l13.54-29A8.46,8.46,0,0,1,96,77.53,8.41,8.41,0,0,1,110.19,83,24.08,24.08,0,0,0,112,79.85,23.36,23.36,0,0,0,104.33,50.92Z"/></g></g></svg>