<svg xmlns="http://www.w3.org/2000/svg" viewBox="0 0 137.51 137.51"><defs><style>.cls-1{fill:#0098fe;}.cls-2{fill:#f3f3f3;}</style></defs><title>icon_5Asset 31</title><g id="Layer_2" data-name="Layer 2"><g id="Layer_1-2" data-name="Layer 1"><circle class="cls-1" cx="68.75" cy="68.75" r="68.75"/><path class="cls-2" d="M105.32,49.58H100a3.37,3.37,0,0,1-.2,2.37c-1.39,3.56-5.54,2.18-7.91,2.37v1a9.4,9.4,0,0,1,2.37,0c.6.2,1.39.6,2,.2.2,0,.2-.2.39-.2a5,5,0,0,1,3,0c.59.4.59.4,1.19.2.79,0,.59.59.19.59a.51.51,0,0,0-1,.2c0,.2.19.2.39.2.59.39.59,1.38,0,1.58-.2,0-.39.2-.2.4a13.65,13.65,0,0,0,1.39,1.77c.59.6-1,2.18-2.18-2.17-.2-.59-.39-.79-.79-.59v.39c-.2,0-.2-.2-.39-.2-.2-.59-.4-.39-.4-.19v.19c0,1.39-1.58,1-2,1.19-.39.4.4.79.2,1.19a.38.38,0,0,0-.2.59c.4.39,1.19,0,1.59.39.39.2.59.6.79.8a4,4,0,0,1,1,1.77c0,.4-.19.8-.19,1.19v.59c-.2.2-.6.2-.6.6a1.63,1.63,0,0,0,.6,1.58c.59.39.79,1,.39,1.18h-.2c-.19,0,0,.4-.19.4C98.6,69,97.61,67,97.22,67a.2.2,0,0,0-.2.2c-.2.2-.59,0-.79-.39v-.2a.2.2,0,0,0-.2.2c0,.19-.39.19-.59.39a.6.6,0,0,0,0,.79c.2.2.79.2,1,.2.59,0,.19.59.19.79,0,.4.6.59.8,1,.39,1,.59,0,.59,1.78,0,1.18-.2,1.38-1.19,2.17-.59.6-2.76-.19-2.37,1.39.4,1,1.38.59,1.38,3.16,0,.2,0,.2-.19.2-.4,0-.79.59-1.39,0-.79-.79-1-1.19-1.18-1.19a4.63,4.63,0,0,0,.59,2.37c1.19,1.39.4,1,.59,1.58.2.2.4.2.2.6a3.13,3.13,0,0,0,1,2.37c.59.59.79,0,1.38,0,.4,0,2.37,1.78,4.55.79.39-.2.59-.4.59-.79l-.79.2a.64.64,0,0,0-.59-.6c.39,1-.2,1.19-.59.6-.2.19-.4,0-.4-.2l-.2.39c-.39,0-.2-2-.79-1.77-.2,1-1.58,1.58-2.17.59l-.6-1.19c-.19-.59.6-.39,1-1,.2-.19,0-.39.6-.59,2-1.18,1.77.79,1,.59v.4c.2,0,.4.2.6.4,0,.19,0,.39.19.39h.2c.4-.79,1.19,0,.6.2h-.2c-.2.2.2.59.59,0,.2-.4.4-.4.79-.2,1,.2,2.18,0,3,.79a.66.66,0,0,0,.39.2c.59.2,1-.59,2,.39s1.18,1,1.18,1c0,.2-.59.6.2,1.39.2.19.2.39.4.59,0,.2-.2.39-.2.2l-1.38-1.39c-.4-.19-.4.2-.6.4a.61.61,0,0,1-1.18,0c0-.59,0-.4-.4-.59a.62.62,0,0,1-.2-.4c0-.2-.19-.4-.39-.2,0,.6-1,.4-1,1v.4c0,.19-.2.39-.4.19a2.26,2.26,0,0,0-1.58,0,.19.19,0,0,0-.19.2c-.2.59-1.39.2-.79,0a.71.71,0,0,1,.59-.2A7.3,7.3,0,0,1,95.44,86c-.79-.39-.79-.59-1-1s-.59-.59-.79-1c-.4-.59-.59-1.58-1-2.17a2.83,2.83,0,0,1-.59-.79c-.2-.2,0-.59.2-.4,1,.2,1,1.19,1.18,1.19s.4-.2.2-.59A3.48,3.48,0,0,0,93.07,80c-.4-.39,0-.39-.2-.79,0-.2-.2-.2-.2-.59a8.74,8.74,0,0,0-.39-2c-.2-.39-.6-.2-.79-.2s-.2-.19-.4-.19a4.36,4.36,0,0,1-4.35,2.17c0,.2-.2.59-.2.79-.19.2-.59.2-.59,0s-.2-.4-.39-.79H75.67a2.15,2.15,0,0,0,1.19.2.61.61,0,0,1,.79.79A6.72,6.72,0,0,1,75.28,83c-2.38,2.76.59,4-.79,5.93-.79,1-1.59,1.18-1.59,1.58,0,.59.6,1,.4,1.38-.2.2-.59.2-.79.4-.4.19-.2.79-.2,1.18-.2.6-1,.79-1.38,1.39-.2.39-.2.59-1,.59-.4,0-1,.2-1.38.2h0c-.4.19-.4-.6-.4-.79a3.07,3.07,0,0,0-.79-2c-.2-.4,0-1-.4-1.19l-.19-.19c0-.2-.2-.2-.2-.4a3.29,3.29,0,0,0-.2-1.38c-.2-.2-.39-.4-.39-.6-.2-.59.39-.59.39-2.37,0-2.57-.39-2-.59-3,0-.4-.59-.6-.59-1a.73.73,0,0,1,.19-.59,1.77,1.77,0,0,0-.19-1.39c-1-.2-1.39,0-1.59-.59-4.94,1-3.75.39-5.33-1.58,0-.2-.2-.2-.2-.4-.2-.39,0-.2-.4-.59-.19-.2,0-.79-.19-.79.19-1,.19-2.18.39-3.16.2-1.39,1.19-1.78,1.39-2.57.19-.4-.2-.79.39-1,.59-.4,1.78-.79,1.38-1.39-.19-.19-.79-.19-.79-.59,0-.2-.39-2,1.19-2h1c.2-.19.2-1.18-.2-1.38a.2.2,0,0,1-.2-.2c0-.19.4-.39.6-.59.19-.59-1.19-.4-1-1.38a.49.49,0,0,1-.79-.2.62.62,0,0,1,.59-.59,1.3,1.3,0,0,1,.2-1.19c.59-.4,1.38-.2,1.38,0s-.2.2-.2.39c-.19.4.6,1.59,1,1.59V53.14c-2.37-.4-6.32,1.18-7.9-2.37a3.29,3.29,0,0,1-.2-2.38H32.19A10.85,10.85,0,0,0,21.31,59.27V96.43A11,11,0,0,0,32.19,107.3h73.33a11,11,0,0,0,10.87-10.87V60.25A11.1,11.1,0,0,0,105.32,49.58ZM29,83a4,4,0,0,1,4-4h2v4.75H29Zm0,2.17H35v2.77H29Zm0,4H35v4.35H29Zm8.7,8.9H32.78A3.69,3.69,0,0,1,29,94.65h8.7Zm6.13,0H38.91V94.65H47.6A3.68,3.68,0,0,1,43.85,98Zm3.95-4.55H41.87V89.11H47.8Zm0-5.53H40.69v5.53H36.14V79h4.55v6.13H47.8Zm0-4H41.87V79.23h2a4,4,0,0,1,3.95,4Z"/><path class="cls-2" d="M59.86,52.35h6.32V74.88a2.2,2.2,0,0,0,2.18,2.18H87.73a2.19,2.19,0,0,0,2.17-2.18V52.35h6.33A2,2,0,0,0,97.61,49L79.43,30.8a1.92,1.92,0,0,0-2.77,0L58.48,49A2,2,0,0,0,59.86,52.35Z"/></g></g></svg>