<svg xmlns="http://www.w3.org/2000/svg" viewBox="0 0 75.72 76.17"><defs><style>.cls-1{fill:#1a9afb;}</style></defs><title>ICON 4Asset 25</title><g id="Layer_2" data-name="Layer 2"><g id="Layer_2-2" data-name="Layer 2"><path class="cls-1" d="M72.36,41.6h-18A3.36,3.36,0,0,0,51,45v9.73a3.37,3.37,0,0,0,3.37,3.37h18a3.36,3.36,0,0,0,3.36-3.37V45A3.35,3.35,0,0,0,72.36,41.6ZM58.54,53.66a3.09,3.09,0,1,1,3.09-3.09A3.08,3.08,0,0,1,58.54,53.66Z"/><path class="cls-1" d="M54.47,38.3H70.79V31.9a8.41,8.41,0,0,0-8.42-8.41H8.42A8.41,8.41,0,0,0,0,31.9V67.75a8.42,8.42,0,0,0,8.42,8.42h54a8.42,8.42,0,0,0,8.42-8.42v-6.4H54.48a6.74,6.74,0,0,1-6.74-6.74V45A6.73,6.73,0,0,1,54.47,38.3Zm-25.16-.23a1,1,0,0,1,1.26.41.92.92,0,0,1-.36,1.31.06.06,0,0,0-.06.06,13.32,13.32,0,0,0-1.61.78,5.18,5.18,0,0,0-1.43,1.13,8.86,8.86,0,0,0-1.19,1.43l-.06.06a13.47,13.47,0,0,1-1.55.06c.12-.3.3-.6.42-.89a15.12,15.12,0,0,1,1.19-1.73,15.59,15.59,0,0,1,1.55-1.49A17.09,17.09,0,0,1,29.31,38.07ZM18,31.09a13.85,13.85,0,0,1,3.15.54,11.4,11.4,0,0,1,3,1.49,5,5,0,0,1,2,3.34c.06.47.06.89.12,1.37,0,.29.12,1.13.12,1.61v.35a.06.06,0,0,1-.06.06c-.18,0-.42,0-.42.06a13.49,13.49,0,0,1-3.1-.18,4.52,4.52,0,0,1-2-1.13,8.71,8.71,0,0,1-2.21-3.46c-.06-.17-.12-.29-.18-.47a18,18,0,0,1-.59-2.92.76.76,0,0,1-.06-.36A.28.28,0,0,1,18,31.09ZM38.79,50.94c0,.29-.06.59-.06.83a32.09,32.09,0,0,1-1.79,8.64c-.71,2.09-1.67,4.89-3.57,6.2-1.67,1.19-3.82,1-5.66.42a6.52,6.52,0,0,0-2.57-.66c-1.07-.12-2.08.54-3,.84-1.9.53-4,.59-5.54-.84s-2.5-4-3.22-6a35.12,35.12,0,0,1-1.78-8.64c0-.3-.06-.54-.06-.83a8,8,0,0,1,2-6.14c2-2,4.65-2.21,7.21-1.43a15.71,15.71,0,0,0,9.06,0c2.5-.72,5.25-.6,7.15,1.43A7.62,7.62,0,0,1,38.79,50.94Z"/><path class="cls-1" d="M50.29,15.11a11.25,11.25,0,0,0,8.11,4.63l.56,2.1h3.31l-2.48-9.28a3.22,3.22,0,0,0-3.93-2.27L51.75,11.4l-7-10A3.21,3.21,0,0,0,40.26.58L9.9,21.84H25.15Zm-13.62-8a11.27,11.27,0,0,0,9.2,1.58l2.59,3.69-31.3,8.38Z"/></g></g></svg>